<?xml version="1.0" encoding="utf-8"?>
<!-- Generator: Adobe Illustrator 18.0.0, SVG Export Plug-In . SVG Version: 6.00 Build 0)  -->
<!DOCTYPE svg PUBLIC "-//W3C//DTD SVG 1.1//EN" "http://www.w3.org/Graphics/SVG/1.1/DTD/svg11.dtd">
<svg version="1.1" id="Layer_1" xmlns="http://www.w3.org/2000/svg" xmlns:xlink="http://www.w3.org/1999/xlink" x="0px" y="0px"
	 viewBox="0 0 612 792" enable-background="new 0 0 612 792" xml:space="preserve">
<title>Layer 1</title>
<g id="Peru">
	<path id="path2120" fill="#CCCCCC" d="M66.7,198.7c1.3-2.8,2-4.7,4.2-7c0.9-1.1,1.6-2.3,2.8-3.2c0.8-0.7,2.6-1.5,2.7-2.7
		c1.3,0.4,2.7,5.8,1.6,6.6c-0.8,0.5-1.7,0-2.4,0.9s-0.5,2.3,0.8,2.6c-1.1,1.5-0.7,3.8,1.2,1.9c1.6-1.7,2.2-0.9,3.6,0.4
		c1.3,1.1,2.7-0.5,3.8,1.1c1.1,1.7,1.1,4.4,3.5,5c2,0.4,2.3,0.7,3-1.6c0.5-1.7,2.6-2.2,2.6-4c0.1-2.4,0.5-4.7,1.5-6.9
		c0.5-1.2,1.2-2,1.2-3.4c0-0.8,0.9-3.2,1.5-0.9c0.3-0.5,0.4-1.1,0.1-1.6c-0.1-0.8,1.1-1.6,1.3-2c1.1-1.3,2.3-2.4,3.9-3.1
		c3.4-1.6,7.4-2.2,10.5-4.3c6.5-4.6,11-11.3,12.4-19c0.5,0.5,1.2,0.8,1.9,0.7c-0.9-2.3,0-4.2-1.3-6.1c-0.5-0.8-3.1-3.1-3-3.9
		c1.1,0.1,2.4,0.5,3.4,0c1.1-0.7,0.7-0.8,1.9-0.4c2,0.8,3.5,1.5,4.8,3.2c1.7,2.2,2.8,3,3.6,5.8c0.4,1.2-0.1,2.2,1.5,2.3
		s1.1,0.8,2.2,1.7c2,1.9,3.6,0.8,4.3,4c0.5,2.4,0.4,3.1,3.1,3.8c2.8,0.8,0.1,4.2,1.6,5.8c0.8,0.9,2,1.2,3.1,1.2
		c0.7-0.1,1.5-0.1,2.2-0.1c0.9,0,2,0.5,3,0.5c1.9-0.1,4.3-1.5,5.1-3.2c0.9-1.7,3.4,1.6,4.4,1.7c1.6,0.1,4-2.2,5.2-1.3
		c0.9,0.7,1.7,1.6,2.6,2.3c0.8,0.5,2.8,0.4,3.4,0.9c2.2,2.3,2.2,3.1,0.5,5.7c-1.3,2.2-3.9,5.7-4.3,8.1c-0.4,3,3,0.7,4.2,1.7
		c1.1,0.9,1.7,2,2.6,3.2c0.8,1.3,0.3,3.4-0.9,1.5c-0.3,0.3-0.5,0.7-0.8,0.9c-1.5-2-4.8-3.4-6.7-0.9c-2.2,2.7-6.9,2-10,2.8
		c-1.6,0.4-2.4,2.3-4,2.7c-1.7,0.5-1.2,1.2-2.3,2.3c-2.7,2.4-4.6,1.7-4.6,5.9c0,1.5,0.1,2.7-0.8,3.9c-0.8,1.2-1.7,2.4-1.5,3.9
		c0.3,1.6,1.7,3.9-0.1,5.1c-1.5,1.1-3,1.6-4.2,3c-0.9,1.1-1.3,2.3-1.1,3.6c0.1,0.7,0.4,1.3,0.7,1.9c-0.8,0.3-1.5,0.7-2.2,1.3
		c-2.2,2.3,4.3,4.4,1.6,6.1c1.3,0.9,2.3,2.6,2.6,4c0.1,0.9,0.8,1.2,1.5,1.7c0.8,0.7,0.8,1.7,1.3,2.6c0.9,1.5,2.8,2.2,3.5,3.8
		c0.8,2-0.8,3.2-1.9,4.7c2.4,1.2,5.9,0.1,8.3,1.7c1.5,1.1,3,3.6,2.4,5.5c3.2,0.4,7.3,1.1,10.2-0.8c1.7-1.2,4.2-5.7,6.6-5.8
		c-0.3,1.2-1.2,1.2-0.5,2.4c0.8,1.3-0.5,2.6-0.4,4c0.3,3.8,0.4,7.7,0.8,11.4c1.2-1.1,2.2,1.1,3.4,1.1c1.7-0.1,3.1-1.6,4.8-1.6
		s2.7,0,3.5,1.6c1.3,2.4,2.7,4.8,4,7.3c1.3,2.4,2.7,4.8,4,7.3c1.1,1.7,1.9,3.5,0,5.1c-1.6,1.5-1.2,3.2-1.1,5.2
		c0.1,2.2-0.5,5.4,0.3,7.3c0.4,1.2,1.6,2.3,1.6,3.6c0,0.1-1.1,3.2-1.2,3.2c-1.2,1.1-2,2.8-2.6,4.3c-0.9,2.7,1.9,3.1,1.9,5.2
		c0,1.5-1.3,2.7-1.6,4.2c-0.3,1.2,0.7,2.8,1.1,4c0.4,1.1,1.2,3.1,2.6,3.4c0.7,0.1,4,0.4,2,1.7c-1.3,0.9-0.1,3.1-1.1,3.5
		c-1.6,0.9-2,3.5-3.2,4.7c-0.5,0.5-1.3,0.8-1.7,1.5c-0.8,1.2,0.4,0.8,1.1,1.7c1.6,2.2-1.7,2.7-2.3,4c-0.7,1.5,0.9,3.4-0.1,5.1
		c-0.9,1.5-2.7,2-4.3,2c-1.9,0-3.2-1.3-4.4-2.6c-1.5-1.3-3.1-2-4.7-3.1c-2.8-2-2.6-5.7-5.9-7c-4-1.6-6.7-5.5-10.9-6.6
		c-2-0.5-4-1.9-5.8-3c-2-1.3-4.3-1.7-6.3-2.8c-2-1.1-3.8-2.8-5.9-4c-2.3-1.3-4.6-2.6-7-3.9c-2-1.1-3.2-3.6-4.7-5.1
		c-2-2.2-5-3.2-6.5-5.9c-0.8-1.5-1.9-3.2-3.2-4.2c-1.2-0.8,0.4-3.8-1.7-3.4c0-0.4,0.1-0.7,0.3-1.1c0.3,0.1,0.7,0.4,0.9,0.5
		c0.8-4.3-0.9-6.6-3.1-10.1c-2-3.2-3.2-6.6-6.1-9.1c-0.8-0.8-1.6-1.2-1.5-2.3c0.3-1.2-0.4-2.6-1.1-3.6c-0.5-0.9-1.2-2.2-2.2-2.8
		c-0.8-0.7-2.3-1.1-2.7-2c0-0.5,0-1.1,0.1-1.6c-0.1-1.2-0.9-2.6-1.5-3.5c-1.1-2-2.4-3.8-3.5-5.7c-1.1-1.7-1.6-3.9-2.4-5.9
		c-1.7-4.6-4.6-7.9-5.8-12.4c-1.7-5.9-6.7-9.6-9.1-15.5c-2.7-6.7-8.1-11.6-14.7-14.3c-0.5-0.3-2.7-0.8-2.8-1.6
		c-0.1-1.1-0.4-3,1.2-2.8c2.8,0.4,1.7-2.3,0.8-3.8c-1.3-2-2.6-2.8-2.7-5.2c0.3-0.3,0.5-0.7,0.8-0.9c0-0.4-1.2-1.5-1.5-1.7
		C66.4,201.3,67.2,200.4,66.7,198.7"/>
</g>
<g id="FrenchGuiana">
	<path id="path2122" fill="#CCCCCC" d="M340.6,119.4c1.7-0.1,3.1-3.1,3.8-4.3c1.1-2.4,0-5.1,1.6-7.4c2-2.7,0.1-4.6-1.5-6.6
		c-1.7-2.2-1.6-6.1-1.9-8.7c-0.1-3.1,0.3-4.8,2.6-7c0.8-0.8,1.9-1.7,2.2-2.8c0.4-1.5,0.8-3.5,3-2.7c1.3,0.5,2.4,1.6,3.9,2
		c1.6,0.4,3.6,0.4,5,1.5c1.6,1.3,3.8,6.2,6.3,6.1c-0.4,0.7-0.7,1.3-0.8,2c0.7-3.2,6.2,2.3,3.1,4.4c1.5-0.5,0.7-2,1.3-3
		c1.2-1.5,2,2,2.2,2.8c0.4,3.6-2.4,7.5-4.3,10.4c-2.2,3.4-3.6,6.2-5.1,9.8c-0.5,1.3-1.2,2.6-2.4,3.5c-0.5,0.4-1.3,1.3-2,1.5
		c-1.1,0.3-1.9-0.5-3,0c0.4-1.3-0.4-1.3-1.3-1.1c-1.3,0.4-2.6-0.1-3.9-0.5c-0.7-0.3-3.2,1.6-3.6,2.2
		C344.8,122.3,341.2,119.9,340.6,119.4"/>
</g>
<g id="Bolivia">
	<path id="path2626" fill="#CCCCCC" d="M191,273.8c2.6,0.1,5.1,0.4,7.7,0.5c1.2,0.1,0.5,0.3,0.8,0.9c0.3,1.2,2.2,0,2.7-0.3
		s1.7-0.5,2.2-1.1c0.5-0.9,0.8-2.3,1.6-3c1.9-1.6,3.5,0.9,4.6-1.6c0.9-2.3,3.8-2.3,5.5-3.6c1.6-1.2,2.4-3.5,4.6-4.2
		c2.4-0.7,5.1-1.9,7.8-1.5c2.8,0.4,2.3,0.7,4.2-1.1c4.2,2.8-0.3,8.2,0.9,11.8c0.3,0.9,1.1,1.5,1.3,2.3c0.4,0.9-0.5,1.9-0.7,2.7
		c-0.7,2.4,1.7,3.8,2.3,5.7c0.4,1.3,0.3,1.2,1.3,2.2c0.7,0.5,0.5,2.2,1.2,2.4c0.8,0.5,1.5-0.1,2.3,0.8c0.9,1.1,1.7,1.2,2.8,2
		c0.1,0.1,0.5,1.5,0.8,1.6c0.7,0.8,1.5,0.9,2.6,1.1c1.3,0.3,2,0.8,3.4,0.1c1.1-0.5,2.2-0.3,3.1,0.4c0.8,0.5,1.5,1.2,2.3,1.7
		c1.1,0.7,1.3-0.8,2.2-0.5c1.6,0.5,1.7,3.6,3.9,3.9c1.9,0.3,3.2,1.7,5.1,1.9c2.6,0.1,3,4,5.1,4.6c1.7,0.4,3.5,0.1,5.2-0.1
		c2.6-0.4,5.1,1.6,7.1,2.8c3.4,1.9,1.2,3.8,2.4,6.6c1.3,3.1,1.9,5.8,2.6,9c-0.8,0-1.6,0-2.6,0.1c0.1,2.4,3.1,3.8,3.5,6.3
		c0.3,1.9,0.1,4.2,0.9,5.9c1.1,2.3,5.2,1.5,7.3,1.7c3.8,0.4,7.8,0.9,11.6,0c0,1.7-0.9,2.7-1.1,4.3c-0.1,1.2,0.4,2.8,0.8,4.2
		c0.5,1.9,2.8,5,4.8,5.4c1.1,0.1,1.6-0.5,2.2,0.8c0.4,1.1,0.8,2,1.2,3c1.1,2.7,2.4,4.2,1.9,7c-0.3,1.5-1.5,3.9-1.1,5.5
		c0.7,2.2-0.8,3.9-1.6,5.9c-1.1,2.7-1.2,4,1.1,5.8c1.6,1.3-0.9,2.3-2.2,3.1c0.8-2.7-0.9-4.4-3-5.8c-2.2-1.3-5-3.9-7.5-4.4
		c-6.9-1.6-15.1,2-21.7,3.2c-3.2,0.5-5,0.5-5.4,4c-0.4,2.8-3,4.8-3.4,7.7c-0.4,2.7,0.9,5.1,0.4,7.8c-0.8,3.9-1.1,7.8-2,11.7
		c-1.9-1.6-1.6-3-4.3-3c-2,0.1-4.4-0.1-6.5,0.7c-2.3,0.9-2.2-1.3-3.4,1.7c-1.1,2.7-1.6,5.1-1.9,7.9c-3-4-2.4-8.1-8.1-9
		c-2.3-0.4-5.7,0.7-7.7-0.3c-1.7-0.8-2.8-3.1-4.8-3.5c-0.3,3-0.1,3.9-3.1,4.8c-1.5,0.5-3,3.4-3.9,4.7c-1.3,2-1.7,3.1-4.4,3.4
		c-0.9,0.1-2,0.1-2.8-0.3c-1.5-0.8-0.5-2.4-1.1-3.6c-0.5-1.5-0.7-3.2-1.5-4.6c-0.7-1.2-1.5-2-1.9-3.5c-0.7-2.6-1.3-5.8-2.8-7.9
		c-0.8-1.2-2.2-1.7-3-2.8c-0.9-1.2,0.1-2.4-0.4-3.8c-0.5-1.1-2-1.1-2.6-2.3c-0.7-1.2,0.8-2-0.8-3.5c2.8-1.7,2.7-1.5,0.7-4.2
		c-0.3-0.4,0.8-2.2,1.1-2.4c1.1-1.7,0-2.3-1.5-3.4c-2.7-2.2-3.8-4-4.7-7.4c-0.4-1.5-2.7-5.2-1.2-6.7c-4.4-0.9-3.4-7.9-6.9-8.7
		c0.1-0.9,0.8-1.3,1.5-1.9c1.1-0.8,1.3-2,2.2-3c0.7-0.9,1.1-1.7,1.9-2.4c0.1-0.1,0-1.7,0.1-2c0.3-0.8,2.6-3.2-0.1-3.2
		c-2,0-2.6-0.5-3.4-2.4c-0.5-1.3-1.7-3.4-1.5-4.8c0.3-1.3,2.2-3.4,1.5-4.7c-1.1-2.3-2.8-2.7-1.3-5.5c0.9-1.9,1.9-3.2,2.4-5
		c0.7-2.2,1.2-2-0.1-4.3c-1.2-2-0.3-3.8-0.5-5.9c-0.1-1.7-1.2-5.5,0.1-7s2.6-2.6,1.5-4.6C197.5,285.3,194,279.6,191,273.8"/>
</g>
<g id="Brazil">
	<path id="path2754" fill="#CCCCCC" d="M143.5,234c0.9-0.9,0.5-1.6,1.9-2.3c1.6-0.8-0.3-2.4,0.1-4.2c0.8-3.2,4.3-2.8,5.7-5.1
		c0.9-1.6,0.1-3.1-0.3-4.7c-0.4-1.5,0.4-2.8,1.2-3.9c1.6-2.3-0.1-5.7,1.6-7.8c0.8-1.1,2.7-1.1,3.8-2.2c0.9-0.9,1.1-1.9,2.3-2.3
		c1.6-0.5,2.4-2.2,4-2.8c1.5-0.5,3.6-0.5,5.2-0.9c1.9-0.4,3.4-0.3,4.8-1.7c0.3-0.3,2.2-2.4,2.7-1.6c0.4,0.7,1.2,0.5,2,0.4
		c0.9-0.1,1.9,1.2,2.4,2c0.3-0.3,0.5-0.7,0.8-0.9c1.3,2.3,2.2-2.3,2.3-3.1c0.5-3.8,1.1-7.5,1.5-11.2c0.5-5.1,1.3-10.1,2.2-15.2
		c0.3-2.2,1.5-4.2,0.9-6.3c-0.5-2.2-1.9-3.5-1.9-5.7c-0.1-2.3-1.5-3-3.2-4c-2.3-1.5-1.7-3.8-1.7-6.1c0-1.3-0.4-3,0.3-4.3
		c0.4-0.7,3-1.5,3.8-1.2c1.2,0.4,1.6-1.1,3.1-0.3c1.6,0.8,2.2,0.4,2-1.5c-0.1-2.8-4.6-4.7-7-3c0.3-2-0.7-5.2,0.1-7.1
		c0.8-1.7,4-0.7,5.2-0.7c3,0,5.9,0,8.9,0.1c0.5,0,2.3,0.1,2.4-0.7c0.1-0.4,0.4-2.6,1.1-2.4c1.1,0.1,0.7,3.9,2.7,2.4
		c1.3-0.9,2-2.4,3.2-3.6c1.6-1.5,3.2,1.1,3.9,2.3c1.2,2.3,1.1,3.8,0.8,6.3c0,0.5-0.3,1.9,0.8,1.7c1.5-0.3,1.7-0.3,3,0.9
		c1.5,1.5,2.8,3.2,4.7,4c2.6,1.2,3.4-1.3,5.4-2.3c3.6-1.9,1.5,2.7,2.4,3.8c0.9-0.3,2.7-2.8,3.2-3.6c0.9-1.5,1.5-2.2,3.1-2.8
		c1.5-0.5,2.6-0.9,3.6-2c0.8-0.8,2.4-2.2,2.3,0c1.2-1.9,2.4-2.6,3-4.8c0.4-1.7,1.2-1.9,2.8-2.3c0.5-0.1,3.5-1.6,3.8-2.2
		c2-2.7-0.9-3.4-3.1-3.2c-1.1,0-2-0.1-3-0.8c-0.5-0.4,0.4-1.9,0.3-2.4c-0.5-3-2.8-4.8-2.2-8.2c0.5-2.4-1.3-3.2-2.8-4.7
		c-0.8-0.8-3.5-3.9-2.3-5.2c0.9,0.4,1.2,1.7,2.2,1.7c1.3,0.1,3.8-0.8,4.4,1.1c0.4,1.5,0.9,1.9,2.4,1.1c1.5-0.7,3.1,1.6,4.3,0.5
		c2.2-2,3.6,4.6,6.3,3.9c1.7-0.4,0.1-3.9,0.8-5.1c0.5-0.8,2-0.4,2.8-1.3c1.2-1.3,2.3,0.3,3.5,0.1c2-0.3,5.9-1.3,6.6-3.2
		c0,0.1,2.8-1.5,2.6-1.6c1.3,0.3,2.2,0.3,3.1-0.9c1.6-2,6.2-4.6,2.6-7c1.5-0.3,2.7,0.1,4.2-0.3c1.2-0.4,2.6-0.3,3.1,1.1
		c1.1,2.6-1.1,4.3-0.9,6.7c0.1,1.2,3.1,1.2,3.9,2c0.3,0.3-0.4,1.3-0.1,2c0.4,1.1,1.1,2,1.6,3.1c0.7,1.1-2.8,3.8-3.1,4.7
		c-0.3,0.9,0.1,2-0.1,3c-0.4,1.7-1.5,3.5-1.7,5.2c-0.3,2.7,0.8,4.4,1.9,6.6c0.5,1.1-0.3,5.1,1.5,5.1c-0.1,0.3-0.3,0.7-0.4,0.9
		c1.9,0.3,3.2,2.6,4.3,4c0.9,1.1,2.6,0.5,3.4,1.6c0.7,1.1,1.1,1.1,2,0.5c0.7-0.4,3-0.9,2.4-1.9c-0.9-1.9,3.8-1.5,4.4-1.7
		c0.9-0.3,1.6-1.3,2.6-1.9c1.2-0.7,2,0.4,3.2-0.9c1.5-1.7,3.1-3.5,5.1-2s3.8-0.4,5.9,0.1c1.3,0.4,4.7,2.2,5.2-0.1
		c0.5-2.2-3.1-2.7-1.7-4.7c1.6-2.4,2.4-0.8,4.8-0.9c1.5-0.1,2.8-0.3,4-0.8c2.7-1.1,2-0.8,4,0.8c0.4,0.3,0.3-0.8,0.8,0
		c0.5,0.9,1.5,1.3,2.3,2c1.1,0.8,2.3,0.8,3.5,1.5c1.3,0.7,0.8-0.5,1.9-0.8c0.9-0.1,1.2-1.2,2-1.6c0.7-0.4,1.5,0.5,2.2,0.5
		c0.8,0.1,4.2-0.7,3.5,1.1c0.9-0.4,2.4,0.7,3.2,0c1.1-0.9,2.6-1.7,3.4-3c1.2-1.7,2.2-3.9,2.7-6.1c1.5-5.5,5.4-9.6,8.9-13.9
		c0.1,0.8,0.4,1.5,0.9,2c-0.4-1.2-1.5-2.8-0.4-4c3,1.9,3.4,4.7,3,7.9c0.1-0.9,0.3-2,1.1-2.6c-0.1,4.2,0.3,8.6,1.7,12.6
		c0.7,1.6,3.1,6.6,1.3,8.1c1.3-0.4,1.6,1.1,2.2,2c0.8,1.7,3,1.1,4.4,1.7c3.4,1.5,2.8,5.5-0.1,6.7c0.8-0.3,1.6-0.1,2.3,0.5
		c-1.3,1.3-3.6,2.4-4,4.3c-0.3,0.9-1.3,1.5-1.9,2.2c-0.8,1.2-1.2,2.6-2.2,3.6c-1.3,1.5-3,2.6-4.4,3.9c-1.9,1.6-2.8,3.9-4.3,5.8
		c-1.5,1.7-1.9,3.1-1.7,5.4c0.1,1.2-2.2,1.5-2.3,3.2c-0.1,2.3-1.9,1.1-3,1.1s-4.6,1.6-5,2.7c0.9-0.3,6.2-1.2,4.7,1.2
		c0.9-1.1,2.6-0.9,3.8-1.7c1.3-0.8,2.4-1.7,4-2.4c2-0.8,4.8-3.2,5.9-5.1c2.6,1.5,0.1,5.2,1.7,7.4c0.7,0.8,0,3,1.1,3.4
		c0.9,0.3,2.6-0.3,1.9,1.3c2.2,0.4,6.1-3.5,6.5,0.9c-0.1-1.3,1.2-1.6,2.2-1.9c0.5,0,0.9-0.3,1.1-0.7c0.4-1.1,1.5-0.7,2.4-0.8
		c-1.2,3.6-2.2,5.9-2,9.7c1.6-2.2,0.7-6.7,3.4-8.1c1.9-0.8,2.2-1.1,3.2-2.8c1.7-3,2.3-0.8,4,0.4c0-0.7-0.1-1.2-0.5-1.7
		c1.1-0.1,2-0.3,3-0.5c-1.1-0.5-2.2-0.1-3.2,0.1c-0.3-1.5,0.8-1.5,1.5-2.3c1.2-1.2-0.1-3.8,1.3-5.1c1.7-1.7,1.2-0.3,2.4-0.7
		c0.8-0.3,2.6-2.4,2.7-0.3c1.6-1.6,1.7,0.7,3.2,0.1c-0.7-0.5-0.8-1.3-0.4-2.2c0.9,0.3,3.1,0.8,2.7,2.3c0.3-0.1,0.7-0.3,0.9-0.5
		c0.1,0.4,0.3,0.7,0.4,1.1c0.8-0.7,0.9-0.7,0.9,0.4c0.8-0.3,1.3-0.9,1.3-1.7c-0.5,1.2,1.2,1.5,0.8,2.7c0.1-0.8,0.7-1.3,1.5-0.9
		c0,0.8-0.5,1.5-1.3,1.6c1.3-0.8,2.7,1.2,4-0.1c-0.1,1.9,1.2,0.8,1.6-0.3c-0.5,2.2,1.3,1.3,1.2,2.7c0.5-0.3,0.9-0.5,1.2-1.1
		c-0.1,1.2,1.3,0.8,1.6,1.9c0.3-0.3,0.7-0.7,0.9-0.9c0,0.7,0.3,1.3,0.8,1.9c0.3-0.3,0.7-0.5,0.9-0.8c0.1,0.9,0.5,1.5,1.5,0.5
		c-0.7,0.5-0.9,1.3-0.4,2c0.1-0.8,0.8-1.3,1.5-1.5c-1.1,0.9-0.7,3.1,0.3,4c0.4-0.8-0.1-2.2,1.1-2.7c2-0.8,1.1,0.7,2,0.9
		c0-0.8,0.4-1.5,1.2-1.7c-0.3,0.7-0.5,1.3-0.5,2c2.3-1.3-0.3,2.7,2.2,1.2c-0.3,0.3-0.7,0.7-0.9,0.9c0.8,0.3,1.5-0.1,1.9-0.8
		c-0.7,1.5,1.6,0.7,0.7,2.6c-0.9,1.7-0.5,3.1-2.7,3.8c0.8-0.5,1.5,0,1.6,0.8c0-1.2,1.3-3.1,2.6-1.5c1.2,1.7-0.9,2.3-1.6,3.5
		c-0.5,1.1-1.6,4.4-1.2,5.7s-1.6,2.4-0.7,3.4c0.1-1.9,2.3-2.4,3.1-3.9c0.8-1.5,0.3-3.9,1.1-5.1c0.4-0.7,2.4-2,3-0.9
		c1.1,1.7-2.3,2.7-2.4,4.2c0.9-0.7,1.3-0.4,0.9,0.7c1.1-0.5,2.7-5,3.4-2.7c0.1-1.6,3.1-2.4,4.3-1.7c-0.1-3.1,6.2,0.3,7.4,0.9
		c0.8,0.4,5.2,2.3,5.2,3.1c0.9-0.7,3.5,0.9,3-1.1c1.2,0.3,2.2,1.2,3.2,1.7c1.3,0.5,2.8,0.5,3.9,1.6c0-1.9,1.1-1.6,2.6-1.7
		c3-0.1,5.5-1.2,8.5-0.7c5.4,1.2,10.4,5.8,14.7,9.1c1.3,1.1,3,1.3,4.2,2.7c1.1,1.3,2,2.8,3.1,4.2c1.2,1.5,2.8,2.3,3.9,3.8
		c1.2,1.6,3.4,1.7,4.6,3.5c1.3,1.6,3.2,0.9,4.6,2.4c1.7,1.6,4.7,0.9,6.7,0.7c4.8-0.5,8.3,1.2,9.7,5.9c0.5,1.9,1.3,3.6,1.3,5.7
		c0,0.5-0.5,1.6,0,1.7c0.5,0.3,0.8,0.9,1.1,1.5c0.8,2,2.3,6.7,1.2,8.9c0.3-0.5,0.5-0.9,0.8-1.5c-0.3,2.2,1.3,4.8-0.8,6.5
		c0.4,0.1,0.7,0.1,1.1,0.3c-0.9,1.9,0.5,4-0.5,5.7c-1.2,1.7-0.3,4-1.2,5.8c-1.1,2.2-1.3,4.4-2.4,6.6c-1.1,2.3-3.4,3.9-4.3,6.3
		c-0.3-0.3-0.7-0.5-0.9-0.8c0.1,0.9-0.3,2.2-1.2,0.5c0.1,0.7,0.5,0.9,1.2,0.9c-1.3,2.8-3.5,6.5-5.8,8.5c-0.9,0.8-2.3,1.2-3.2,2
		c-1.1,0.9-1.9,2-3.1,2.7c0.3-0.8-0.3-1.3-1.1-1.6c-0.1,0.9,1.1,1.2,0.8,2c-0.3,1.1-1.2,2.6-2.2,1.2c0.5,0.7,1.7,1.3,1.1,2.4
		c-0.4,0.7-2.3,2.6-1.5,0.4c-0.7,0.9-0.5,2.2-1.3,3c0.4-0.1,0.8-0.3,1.2-0.4c-2.2,3.1-5.5,18.4-11,17.5c1.1-2.3-1.3-2.7-2-4.6
		c0,1.1-1.2,4-2.2,1.7c0.3,0.9,1.7,1.3,1.7,2.3c-0.1,1.7-2.3,3.1-1.7,5c-1.6-1.1-1.2,1.6-1.2,2.7c0.1-0.5,0.3-0.9,0.5-1.5
		c0.5,1.3,0.5,2.6,0.5,3.9c-0.4-0.3-0.7-0.7-1.1-0.9c0.8,0.7,1.6,3,1.2,4c0.3-0.7,0.5-1.3,0.8-2c0.1,4-1.2,7.8-0.5,11.8
		c0.5,3.5,2,7.3,2.3,10.8c0.3,6.3-3.6,12.1-1.9,18.6c0.9,3.6-1.3,4-2.8,6.7c-1.7,3.1-2,7-1.6,10.5c0.3,2.6,1.7,7.5-1.2,8.7
		c-2.8,1.2-0.5,6.7-3.9,7.1c2.3,2-1.6,4.7-3,5.9c-1.2,1.1-0.8,1.9-1.2,3.4c-0.5,2.2-1.6,4.2-1.2,6.5c0.1,1.2,1.1,3.1,0.1,4.2
		c-1.5,1.7-3.8,1.7-5.7,2.8c-1.2,0.8-2.6,2.2-3.1,3.5c-0.4,0.9,0,1.7,0.3,2.6c0.3,0.8-0.8,1.3-0.4,2.3c-1.3-1.5-5.1-0.7-6.7-0.4
		c-0.9,0.3-2.6,0.7-3.5,0.1c-1.3-0.8-0.4-2.2-0.5-3.4c-3.1,0.4-0.5,1.6-0.9,3.2s-6.6,0.9-8.1,1.7c0.9-1.1,2.6-0.5,3.8-0.9
		c-1.2-1.1-2.7-1.7-4.3-0.8c-1.3,0.8-2,0.1-3.5,0.4c-1.1,0.1-2.8,0.3-3.2,1.5s1.5,1.6,2.2,2.2c-1.5,1.2-3.6,0-4.6,1.3
		c-0.8,1.2-2.3,1.5-3.5,2.3c-1.1,0.7,0.3,1.9-0.8,2.6c-1.5,0.9-3.9-1.7-6.1,0c-0.3,0.1-1.6,2.8-2.2,2.2c-0.4-0.5-0.1-1.3-1.2-1.2
		c0.5,1.7-1.7,2-3,2.8c-1.6,1.1-2.3,2.6-3.5,3.9c-1.3,1.5-3.4,1.9-4.8,3.1c-1.2,1.1-1.9,2.8-3.4,3.8c0.3,0.1,0.7,0.4,0.9,0.5
		c-1.1,1.1-2.2,2.4-2.8,3.9c-0.1-0.7,0.1-1.3,0.5-1.9c-1.1,0.4-2,0.1-3-0.3c0.4,2-0.7,3.2-2.6,1.5c0,1.2,2.7,2.3,3.8,2.3
		c-0.7,0.7-0.9,1.6-1.2,2.6c-0.1,0.8-1.6,0.5-2.2,0.9c0.7,0,1.3,0,1.9,0.1c-0.3,0.9,0.1,1.9-0.1,2.8c-0.3,1.1-1.5,1.2-1.7,0
		c0.4,0.8,0.1,1.9,1.1,2.3c1.2,0.5,0.5,3,0.8,3.9c0.4,1.5,2.3,3.6,1.5,5.5c1.5-0.4,1.2,1.3,0.1,1.5c1.3,0.9,0.3,5.1,1.3,6.9
		c0.9,1.6-0.8,5.7-0.8,7.3c-0.5-0.4-0.9-0.8-1.2-1.3c0.4,0.8,0.3,1.9,1.3,2.2c-1.1,1.5-2.8,2.4-4.2,3.6c-1.5,1.3-2.6,3-3.4,4.7
		c-2.3,4.2-2.8,8.6-4,13.1c-1.1,4.2-3.2,8.1-5.7,11.7c-2.3,3.5-5.8,5.9-8.5,9c0.5-1.2-0.3-2.8-0.5-4c1.5,0.4,2,0.5,3.2-0.4
		c1.1-0.8,1.7-2.6,2.8-3.1c1.3-0.8,1.6-1.5,1.6-3.1c0-1.1,0.1-2.8,1.5-1.3c-0.5-1.5,0.3-2.2,1.2-3.2c0.8-0.9,0.9-1.9,0.7-3
		c-0.1-0.8-0.9-3.5,0.8-1.9c0-0.4-0.5-3-1.2-2.8c-0.4,0.1-2.7,1.9-2.8,2.4c-0.7-0.7-0.9-1.6-2-1.9c-1.1-0.4-0.9-2-1.9-2.6
		c-0.1,2.7,1.2,2.6,2.2,4.4c-2.3,0.5-0.7,3.1-0.8,4.6c-0.1-0.7-0.4-1.3-0.8-1.9c-0.3,0.9,0.5,2.2,0.1,2.8c-0.3,0.4-0.9,0.3-0.8,0.8
		c0.4,2.2-1.5,3.4-3,4.3c-1.2,0.7-0.8,2.3-1.1,3.4c-0.3,0.9-2.7,3.4-0.4,3.6c-1.2,0.8-0.4,2.6,0.8,1.5c0.1,1.2-0.7,2.4-1.2,3.4
		c-0.8,1.7-0.8,3.8-1.1,5.7c-0.5,3.6-2.7,5.8-4.6,8.7c-1.5,2.4-3.6,1.9-4-0.9c-0.1-1.2-0.5-2.6-0.5-3.8c0-1.5,1.7-2.8,2.4-4
		c0.9-2-1.6-2.8-3-3.5c-1.6-0.7-2.4-2-3.2-3.5c-1.7-3.2-4.8-3.2-7.4-5.4c-1.3-1.1-2.2-2.8-3.8-3.6c-0.7-0.1-1.3-0.3-2-0.4
		c-0.8-0.4-1.1-1.3-1.9-1.6c-1.2-0.5-1.7,0.1-3-1.3s-2.3-3.2-4.3-3.8c0.8,1.6-3.2,4.3-3.4,0.9c-0.1-2.8-3.5-4.6-5.5-6.1
		c-1.5-1.1-4.6-5-6.9-3.4c-0.7,0.5-0.5,1.9-1.7,1.7c-1.3-0.1-2.4,0.1-3.5-1.1c2-0.8,2.2-3.8,3.9-5.1c2-1.5,3-3.8,3.6-6.1
		c0.8-2.6,3-4.4,4.3-6.7c0.7-1.2,1.9-4.4,3.5-2.8c0.4-0.8,0-1.5-0.8-1.7c1.3-1.6,2.8-3.2,4.7-4.2c1.9-1.1,2.2-2.2,3.4-3.5
		c1.2-1.3,2.8-1.7,4.4-2.6c1.2-0.5,3.2-3.2,4.7-2.6c0.3-2.4,0.3-4.3,0.1-6.7c-0.1-3-0.4-4.4-1.3-7.1c-0.7-1.9-1.1-4.2-3.2-4.8
		c-1.2-0.4-3.5-0.7-3.8,1.2c-1.2-0.7-2.7-1.5-2.2-3.1c0.7-2.3,0.8-3.8,1.1-6.2c0.1-1.6-0.3-3.9,0.5-5.4s-1.7-3,0-4.3
		c-1.2-0.8-2.2-2.4-3.6-2.6c-1.6-0.1-2.7,1.3-4.2,1.9c-3.9,1.3-4.8-2.6-5.7-5.7c-0.5-1.7-0.9-3.8-1.3-5.7c-0.3-1.7,0-3.6-1.5-5
		c-1.3-1.2-0.5-3-2.7-3.5c-1.6-0.4-3.1-0.3-4.4-1.5s-2-0.4-3.2,0.5c-1.1,1.1-2.7,0.3-3.9,0.1c-1.9-0.3-3.8-0.3-5.4-1.1
		c-0.9-0.5-3.8,0.4-4-0.8c-0.3-1.1,0.1-2.3,0-3.5c0-1.1-0.8-2.6-0.4-3.6c0.7-1.9,0-3.5,0.3-5.2c0.3-1.3-2.2-1.9-0.8-3.5
		c-1.1-0.1-1.3-1.2-1.5-2.2c-0.1-1.5-0.9-1.7-1.7-2.8c-1.7-2.4,4.4-2.6,1.9-4.4c-3.1-2.3-2-4.2-0.5-7.4c0.4-0.9,1.7-2.6,1.3-3.4
		c-0.8-1.5-0.3-2.7,0.1-4.3c0.3-1.3,1.2-3.2,1.1-4.6c-0.1-1.3-1.5-2.3-2-3.5c-0.7-1.5-0.7-4.4-2.4-4.7c-2.3-0.3-5-1.9-5.8-4.2
		c-0.5-1.5-1.1-3.4-1.2-5c0-1.6,1.2-3,1.1-4.7c-3.2,0.8-6.7,0.4-10,0c-2.2-0.3-6.9,0.4-8.5-1.2c-1.3-1.5-1.1-4.6-1.3-6.5
		c-0.4-2.6-3.5-4-3.5-6.3c0.8-0.1,1.6-0.1,2.6-0.1c-0.5-2.8-0.8-5.8-2-8.3c-0.5-0.9-1.1-1.7-0.9-3c0.3-1.3,0.5-2.2-0.5-3.2
		c-3.4-3.6-8.6-4.6-13.2-3.5c-1.3,0.3-3.6-3.1-4.2-4c-0.7-0.9-1.2-0.5-2.2-0.5c-0.8,0-2.7-1.2-3.2-1.7s-1.5,0-2-0.4
		c-0.9-0.7-1.5-1.9-2.2-2.8c-0.8-1.2-1.2-0.9-2.4-0.4c-1.3,0.7-1.9-0.9-2.8-1.5c-2.4-1.6-3.4,0.1-5.8-0.4c-2.8-0.7-3.1-0.9-4.6-3
		c-0.7-1.1-3.2-2.7-4.4-2.8c-1.2-0.1-0.8-1.7-1.5-2.6c-0.5-0.5-1.6-0.4-1.6-1.3c0-1.9-1.7-3-2-5.2c-0.1-1.2,0.8-2.4,0.5-3.5
		c-0.3-0.9-1.3-1.1-1.5-2.3c-0.1-0.9-0.1-1.7-0.3-2.7c-0.3-1.2,0.9-2,1.2-3c0.4-2,0.1-5.4-1.7-6.7c-0.4,0.4-0.8,1.5-1.6,1.5
		c-1.9-0.1-3.2-0.1-5.1,0.1c-2,0.3-5.5,0.3-6.9,2.3c-1.7,2.8-4.4,2.8-6.9,4.8c-0.7,0.5-1.7,1.5-2,2.4c-0.3,1.5-1.7,0.3-2.7,0.3
		c-1.3-0.1-2,1.3-2.4,2.3c-0.7,1.3-1.9,2.2-3.2,2.7c-0.4,0.1-2.7,0.9-2.6-0.1c0.3-1.5-1.5-1.1-2.4-1.2c-2.7-0.1-6.9-1.3-9.4-0.5
		c-1.3,0.4-2.6,1.9-4.2,1.3c-0.9-0.3-2.2-1.7-3.1-0.9c-0.4-3.5-0.3-7.1-0.8-10.6c-0.3-1.7,0.1-2.3,0.7-3.8c0-0.5-0.1-0.9-0.4-1.2
		c-0.5-0.9,0.4-1.3,0.7-2.3c-2.6,0-4.8,4-6.6,5.7c-2.6,2.3-7,1.3-10.1,0.9c0.5-1.6-0.8-4.4-2-5.5c-2.3-1.9-6.2-0.5-8.6-1.7
		c2.8-3.8,1.9-4.7-1.1-7.9c-0.7-0.7-0.7-1.3-0.9-2.2c-0.3-0.9-1.3-1.1-1.9-1.9c-1.2-1.6-0.9-3.6-3-5
		C147.8,237.5,144.2,235.1,143.5,234"/>
	<g id="BrazilNorthIslands">
		<path id="path2756" fill="#CCCCCC" d="M363,164.2c0.9-0.1,1.9-0.8,2.6-1.5C364.5,162.5,363.3,163.1,363,164.2"/>
		<path id="path2758" fill="#CCCCCC" d="M365.3,165.5c0.8-0.9,2-0.7,2.8-1.5C367.3,162.7,364.7,164,365.3,165.5"/>
		<path id="path2760" fill="#CCCCCC" d="M368.2,163.6c2.7-0.7,9-7,7.5-10c-1.6-3.1-4.6,1.1-5,2.7c-0.3,1.2,0.3,2.6-0.9,3.2
			C368.6,160.5,367.6,161.9,368.2,163.6"/>
		<path id="path2762" fill="#CCCCCC" d="M373.5,152c0.9-0.7,3.8-2.6,2.4-4C374.6,148.8,374,150.7,373.5,152"/>
		<path id="path2764" fill="#CCCCCC" d="M373.6,160.7c1.5-0.5,2.6-2.6,1.6-3.9C375.2,158.2,373.6,159,373.6,160.7"/>
		<path id="path2766" fill="#CCCCCC" d="M377.8,156.5c-1.1,0.4-1.9,1.3-2.2,2.6c1.3-0.3,1.6-1.7,2.7-2.6
			C378.2,156.5,377.9,156.5,377.8,156.5"/>
		<path id="path2768" fill="#CCCCCC" d="M376.3,152.7c0.4-0.9,0.7-2,1.7-2.4C376.6,148.8,375.9,151.6,376.3,152.7"/>
		<path id="path2770" fill="#CCCCCC" d="M376.2,157.6c0.9-0.9,1.5-2.3,2.6-3.1c0.5-0.4,0.9-1.7-0.3-1.2
			C377.1,153.8,376,156.4,376.2,157.6"/>
		<path id="path2772" fill="#CCCCCC" d="M376.8,152.9c0.8-0.3,1.3-0.8,1.1-1.7C377.1,151.4,376.7,152,376.8,152.9"/>
		<path id="path2774" fill="#CCCCCC" d="M379,149.8c0.7-0.8,1.6-1.2,2.4-2c0.9-0.9-0.7-1.3-1.3-1.1
			C378.6,147.3,375.9,149.2,379,149.8"/>
		<path id="path2776" fill="#CCCCCC" d="M377.7,153.1c0.8-0.4,2.6-1.1,1.9-2.3C378.3,151,378.2,152.3,377.7,153.1"/>
		<path id="path2778" fill="#CCCCCC" d="M378.2,156.2c0.5-0.3,0.8-0.7,1.1-1.2C378.5,155,377.9,155.4,378.2,156.2"/>
		<path id="path2780" fill="#CCCCCC" d="M378.5,146.4c0,0.1,0,0.4,0.1,0.5c0.8-0.1,1.3-0.4,1.9-0.9
			C379.8,145.5,379,145.7,378.5,146.4"/>
		<path id="path2782" fill="#CCCCCC" d="M379.8,163.5c0.7,1.2,1.2,2.6,2.2,3.5c0.7,0.8,3.8,0.9,2.2,0.1c1.3,0.1,3.1-0.7,4.4-0.3
			c0.9,0.3,2.3,0.9,1.9-0.7c0.3,0.4,0.4,0.7,0.7,1.1c0.9-0.7,1.9-1.6,1.9-2.8c0.5,2,4,0.5,5.1,0c2-1.1,2-3.1,3.1-4.8
			c1.1-1.6,1.5-3.4,1.9-5.2c0.4-1.9,2.4-5-0.7-5.1c-2.6-0.1-5.7-1.7-8.1-0.7c-1.1,0.4,0.1,0.9-1.6,0.8c-1.5,0-2.7-0.3-4-0.7
			c-2.6-0.7-6.1-1.9-7.7,1.1c-0.9,1.6-1.1,4.2,1.1,4.7c-0.8-0.1-1.6-0.4-2.3-0.5c-0.3,0.9,0.3,1.3,0.3,2.2s-0.8,1.7-0.3,2.7
			c0.5,1.1,2.2-0.4,3.1-0.1c-1.3,2.3-1.1,0.7-3.4,0.9C380.1,160.8,379.8,162.3,379.8,163.5"/>
		<path id="path2784" fill="#CCCCCC" d="M382,146.4c1.3,0.9,1.2-0.4,0.8-1.3C381.8,143.2,380.7,145.2,382,146.4"/>
		<path id="path2786" fill="#CCCCCC" d="M383.2,144.4c0.9-1.5,1.7-3.1,0.4-4.7C383,141,381.8,144,383.2,144.4"/>
		<path id="path2788" fill="#CCCCCC" d="M382.9,121.8c0.3-0.3,0.4-0.7,0.7-0.9C382.5,120.4,382.2,120.8,382.9,121.8"/>
		<path id="path2790" fill="#CCCCCC" d="M383.8,124.6c1.5-0.7,0.7-2,0-3C382.4,122.2,383.2,123.7,383.8,124.6"/>
		<path id="path2792" fill="#CCCCCC" d="M386.9,146.4c0.9,1.9,2.8-1.1,3.6-1.9c2-2.2-1.6-1.7-2.7-1.3s-3.6,0.4-4,1.9
			C383.4,146.1,386.3,146.3,386.9,146.4"/>
		<path id="path2794" fill="#CCCCCC" d="M385.2,142.4c0.5-0.4,3.2-2.4,2.2-3.2C385.7,137.8,384,141.1,385.2,142.4"/>
		<path id="path2796" fill="#CCCCCC" d="M385.2,143.7c0.7-0.3,1.1-0.7,1.5-1.2C386,142.5,385.5,143,385.2,143.7"/>
		<path id="path2798" fill="#CCCCCC" d="M385.2,137.8c0.9,0,2.2-0.3,2-1.5C386.3,135.9,384.9,136.4,385.2,137.8"/>
		<path id="path2800" fill="#CCCCCC" d="M387.6,135.6c0.7-0.4,0.7-0.8,0.3-1.5C387.2,134.6,387.2,135,387.6,135.6"/>
		<path id="path2802" fill="#CCCCCC" d="M390.2,146.4c-1.3,2.2,2,1.7,3.1,1.3C395.1,147.1,391.8,144.8,390.2,146.4"/>
		<path id="path2804" fill="#CCCCCC" d="M398.5,167.4c0.3-0.8,0.5-1.7,0.5-2.6C397.8,165.2,397.3,166.6,398.5,167.4"/>
		<path id="path2806" fill="#CCCCCC" d="M403.6,160C406.3,162.5,404.2,156.8,403.6,160"/>
		<path id="path2808" fill="#CCCCCC" d="M411.4,154.3c1.1,0.4,0-1.1,0-1.1C411.4,153.7,411.4,154.1,411.4,154.3"/>
		<path id="path2810" fill="#CCCCCC" d="M419.8,453.2c0.3,0.3,0.5,0.5,0.8,0.8c0.4-0.9,0.7-2-0.1-2.8
			C419.9,451.8,419.6,452.4,419.8,453.2"/>
		<path id="path2814" fill="#CCCCCC" d="M423.5,158.2c0.5-0.1,0.8-0.5,0.8-1.1C423.4,157,423.1,157.3,423.5,158.2"/>
	</g>
	<g id="BrazilSouthIslands">
		<path id="path2812" fill="#CCCCCC" d="M423,470.3c0.9-1.2,1.6-3.6,0.5-5C422.2,466.2,422.9,469.1,423,470.3"/>
	</g>
	<g id="BrazilSoutheastIslands">
		<path id="path2822" fill="#CCCCCC" d="M450.9,425.5c0.1-0.9-0.5-1.5-0.1-2.4c-1.2-0.3-1.6,0.9-1.9,1.9
			C449.6,424.9,450.3,425.1,450.9,425.5"/>
		<path id="path2826" fill="#CCCCCC" d="M459.3,416.7c0.8-0.1,1.5-0.7,1.9-1.2C460.4,414.8,458.9,415.5,459.3,416.7"/>
	</g>
	<g id="BrazilEastIslands">
		<path id="path2824" fill="#CCCCCC" d="M452.7,173.7c0.3-0.3,0.5-0.7,0.8-0.9C452.6,172.8,452.3,173,452.7,173.7"/>
		<path id="path2816" fill="#CCCCCC" d="M439.3,162.7c0.8-0.3,1.2-0.9,0.8-1.6c-0.4,1.1-0.7,1.3-0.8,0.7
			C439.3,162.1,439.3,162.4,439.3,162.7"/>
		<path id="path2818" fill="#CCCCCC" d="M441.6,165.8c0.4-0.1,0.7-0.3,1.1-0.4C441.7,164.8,441.4,165,441.6,165.8"/>
		<path id="path2820" fill="#CCCCCC" d="M443.7,182.1c0.7-1.2,1.1-2.6,1.1-4C443.3,178.8,443.9,180.8,443.7,182.1"/>
		<path id="path2828" fill="#CCCCCC" d="M505.6,304.4C507.1,300.6,503.2,303.7,505.6,304.4"/>
		<path id="path2830" fill="#CCCCCC" d="M507,299.4c0.7-0.7,2.6-1.9,1.1-3C508.3,297.6,507,298.2,507,299.4"/>
		<path id="path2832" fill="#CCCCCC" d="M507,298.2C507.4,298,507.4,298,507,298.2"/>
		<path id="path2834" fill="#CCCCCC" d="M522.7,276c0.4-0.5,0.7-1.2,0.8-1.9C523.2,274.8,523,275.3,522.7,276"/>
		<path id="path2836" fill="#CCCCCC" d="M544.8,236.7c0.1,0.3,0.1,0.4,0.3,0.7C545.6,236.4,545.4,236.1,544.8,236.7"/>
		<path id="path2842" fill="#CCCCCC" d="M535.4,259.7c-0.3-0.3-0.5-0.5-0.8-0.9C534.9,259.2,535.1,259.4,535.4,259.7"/>
	</g>
</g>
<g id="Venezuela">
	<path id="path3351" fill="#CCCCCC" d="M150.8,39.6c2.7-3.1,4-6.5,4.8-10.4c0.8-3.8,2-6.5,4-9.8c1.6-2.7,4.4-3.5,5.9-6.3
		c1.7-3.2,5.4-2.8,8.2-4.6c-1.2,2.8-4.8,0.8-6.5,3c-1.5,1.7,0.5,5.8,2.4,6.6c-1.6-0.1,0,3.6,0.1,4.3c0.5,2.2-1.6,4.3-3,5.7
		c-1.9,1.7-2.8,3.9-1.6,6.2c0.4,0.9,0.5,2,1.5,2.7c0.9,0.7,1.1,0.4,0.9,1.6c-0.4,2.7,1.7,3.4,3.9,2c2.3-1.2,3.1-3.1,3.4-5.7
		c0.4-3.2-1.1-5-2.7-7.5c-0.7-1.1-1.2-2.2-1.6-3.4c-0.4-0.9,0.4-2.4-0.4-3.2c1.2,0.1,2.3-1.7,3.2-2.3c1.7-0.9,3.4-2.3,5.2-2.6
		c1.7-0.3,3.1-0.5,4.6-1.5c0.5-0.4,2.3-1.7,3-1.3c-0.1-0.5-0.4-0.9-0.8-1.3c0.8,0.3,3,2.2,3.8,1.3c0.5-0.5,0-2.2-0.7-2.4
		c-1.2-0.5-2.7,0.7-3.9,0.7c0.3-1.3-0.9-8.5,3.1-6.7c1.7,0.7,1.5,4.7,1.7,6.2c0.7,3.4,4.3,1.1,6.7,2c2.7,0.9,6.1,1.6,7.3,4.8
		c0.7,1.9-1.2,6.2,2,6.9c3.8,0.8,8.6-0.9,12.4-1.5c3.2-0.4,6.6-1.1,8.6,1.7c0.8,1.2,2,2.2,3.4,2.7c1.1,0.4,2.3,0.7,3.4,0.9
		c-0.1,0,3.8,0.8,2,0.8c3.1,1.6,4.4-1.9,6.9-2.2c1.5-0.1,1.7-1.6,3-2.3c1.6-0.8,3.6,0.7,5.2-0.3c-1.5-1.6-5,0.1-5.9-1.9
		c0.8,0,1.7,0,2.6,0c1.2,0,1.5-0.7,2.4-0.8c0.4,0.1,0.8,0.3,1.2,0.5c1.2,0.3,2.4,0.1,3.6-0.1c5-0.8,10.2,0.1,15.1-0.9
		c-0.8,1.6-3.2,1.2-4.7,2c-2.3,1.2-4.8-0.7-7,1.1c0.7-0.7,1.3-0.5,1.6,0.4c-0.8-0.1-1.5,0.4-1.5,1.2c1.9-1.1,3.2,0,3.2,2.2
		c0,1.7-2.8,0.5-3.8,0.5c0.7,2.4,4.6,0.7,4.2-1.5c1.1,0.1,1.5,1.3,1.6,2.3c0.1,1.2,1.2,2.6,1.1,3.8c0.8-0.8,1.1-1.9,0.8-3
		c0.9,0.9,1.1,2.8,0.3,3.9c1.1-0.7,0.5-2.2,0.5-3.2c0.5,0.1,1.1,0.3,1.5,0.5c-0.1-0.1-3.4-1.7-1.5-1.6c1.7,0.3,4.2,2.2,3.2,4
		c0.4-0.8,1.1-0.7,0.5-1.5c0.7-0.4,1.5-0.4,2.3-0.1c-1.6-1.9,1.1-0.1,1.6,0.8c1.1,1.7,3.1,1.1,4.4,2.2c3.8,3-0.7,3-1.6,5.7
		c0.3-0.4,0.7-0.7,0.9-0.9c0.3,1.3-1.2,3.8-1.9,5c-0.4,0.7-0.3,1.3-1.2,1.3c-0.8,0-3.4-0.7-3.9,0c1.2,0.7,3.1,0.8,3.8,2.3
		c0.8-0.9,1.9-1.7,2-0.1c1.1-1.2,1.9-1.7,3.6-2.2c1.5-0.3,2.2,1.3,3.5,0c2.4-2.4,6.9,3.5,5.5,4.2c-1.3,0.7-2.2,1.7-3.2,2.8
		c-1.1,0.9-2.8,1.5-3.6,2.3c-0.5,0.7-1.1,1.5-1.6,2.2c-1.1,1.3,0.5,2.3,0.4,3.8c-0.1,0.9,0.3,2,1.3,1.3c1.3-0.7,2.3,0.9,1.2,2
		c-1.1,1.1-2.7,1.5-3.8,2.4c-0.5,0.5-1.3-0.3-1.9-0.3c-0.4,0-0.7,0.8-1.2,1.1c-4,1.6,0.1,4.2-2.2,6.5c-0.5,0.7-2.7,2-2,3.1
		c1.3,1.7,2.7,3.6,4,5.4c1.7,2,5.1,5.2,1.9,7.7c-1.1,0.8-1.7,2-2.8,2.8c-0.5,0.4-2.8,0.1-3,0.4c-0.5,0.9-2.3,0.8-2.4,1.7
		c0,1.2-2.2,1.2-3,1.6c-1.6,0.8-3.5,1.7-5.2,0.9c-1.2-0.5-2.3,0.9-3.5,1.1c-1.5,0.3-1.5,1.9-1.2,3.1c0.5,1.7-0.9,3.1-2.4,1.7
		c-1.1-0.9-1.5-2.2-2.4-3.1c-1.2-1.3-2,0.4-3.2,0c-1.6-0.5-2.3-0.1-3.9-0.3c-1.3-0.1-1.1,0.4-1.5-1.2c-0.5-1.5-2.4-1.6-3.8-1.3
		c-1.7,0.4-1.6-1.2-3-1.7c-1.1,1.1,0.9,3.6,1.6,4.4c2,2.4,3.6,2.8,3.6,6.2c0,1.1,0,2.2,0.4,3.2c0.4,1.3,1.7,2.7,1.6,4.2
		c-0.3,2.4-0.3,3.5,2.6,3.6c0.8,0,4.2-0.5,3.9,0.9c-0.5,2.8-1.7,1.7-3.4,3.5c-0.9,0.9-3.2,0.7-3.8,1.7c-0.5,1.1-0.1,2.3-0.9,3.4
		c-0.7,0.9-1.6,1.7-2.3,2.8c0.1-2.7-3.6,1.1-4.7,1.6c-1.7,0.7-3,1.3-4,3c-0.7,1.1-2.3,3.6-3.5,4c-0.8-0.9,0.3-2.2,0-3.2
		c-0.4-1.7-3.1,0-3.8,0.4c-3.9,2.8-6.5,0.1-9.1-3.2c-1.2-1.6-1.5-3.9-2-5.7c-0.7-2.2-2.2-5.1-2.2-7.3c0.1-1.7-4.3-7.5-6.5-5.9
		c-0.1-2,2.8-3.9,4.2-5c2.4-1.9,0.8-3.9-0.9-5.8c-3.8-4.3-2.4-12.1-2.4-17.2c0-1.9,0.8-2.3,2-3.5c0.8-0.8,0-2.3,0.4-3.2
		c0.4-1.1,2-1.6,1.9-3c-0.1-1.7,0-2.2-1.9-2.8c-2-0.8-5.7,1.1-8.1,1.2c-1.5,0.1-3.1,0.1-4.6-0.1c-2.3-0.4-1.9,0.7-3.8,1.1
		c0.4-0.1-2.3-0.5-2-0.4c-1.1-0.7-1.9-2.8-2.6-3.9c-0.9-1.5-1.9-2.8-2.7-4.4c-0.4-0.8-1.1-2-2.2-1.6c-2,0.7-3-1.2-5-1.3
		c-1.2-0.1-2.2,0.9-3.4,1.2c-1.7,0.4-3.2-0.8-5-0.4c-1.1,0.1-1.7-0.5-2.8,0.1c-1.1,0.5-2.6-0.1-3.2-1.1c-0.5-0.8-0.7-1.6-0.8-2.6
		c-0.3-1.2-2-0.8-2.7-1.6c-1.2-1.6,0.3-5.1,1.3-6.6c1.9-2.6-1.9-5.1-2.7-7c-0.9-2,0.1-6.6-2.8-5.8c0-0.7,0-1.3-0.3-2
		C153.5,39,152.3,39.7,150.8,39.6"/>
	<g id="g4656">
		<path id="path3353" fill="#CCCCCC" d="M274.6,47.8c-0.9-0.1-2-0.4-3-0.8C272.6,46.4,274.6,46.3,274.6,47.8"/>
		<path id="path3355" fill="#CCCCCC" d="M275.5,45.2c0.5-0.9,1.5-2,2.7-1.5C277.9,45.1,276.6,44.8,275.5,45.2"/>
		<path id="path3357" fill="#CCCCCC" d="M275.8,47.5c-0.3-0.3-0.5-0.5-0.8-0.8c0.7,0,1.3-0.1,2-0.4C277.1,47,276.6,47.4,275.8,47.5"
			/>
		<path id="path3359" fill="#CCCCCC" d="M276.7,45.7c-0.3-0.1-0.7-0.3-0.9-0.4c0.7-0.4,1.2-0.4,1.9-0.1
			C277.4,45.3,277,45.6,276.7,45.7"/>
		<path id="path3361" fill="#CCCCCC" d="M277.9,46.2c-0.1-0.7,0.1-0.8,1.1-0.4C278.8,45.9,278.3,46,277.9,46.2"/>
		<path id="path3363" fill="#CCCCCC" d="M278.2,42.9c-0.3,0-0.7,0-0.9,0c0.3-0.7,0.8-1.2,1.6-0.9C278.8,42.3,278.5,42.5,278.2,42.9"
			/>
		<path id="path3365" fill="#CCCCCC" d="M278.8,40.4c-0.9-0.3-0.9-0.7,0.3-0.9C279,39.7,278.9,40.1,278.8,40.4"/>
		<path id="path3367" fill="#CCCCCC" d="M278.9,40.9c-0.9,0.4-1.6,1.3-2.6,1.9C276.7,41.7,277.8,40.9,278.9,40.9"/>
		<path id="path3369" fill="#CCCCCC" d="M279.2,40.2c0.1-0.4,0.5-0.7,0.9-0.8C279.8,39.7,279.4,40,279.2,40.2"/>
	</g>
	<g id="g4677">
		<path id="path3534" fill="#CCCCCC" d="M234.8,19.8c-0.3-0.1-0.7-0.1-0.9-0.3c0.3-0.3,0.5-0.5,0.9-0.8
			C235.2,19.1,235.2,19.5,234.8,19.8"/>
		<path id="path3536" fill="#CCCCCC" d="M247.3,20c-0.3-0.7-4.8-1.7-2.4-2.6c1.2-0.4,1.3,0.9,2,0.8c1.2-0.1,1.5-1.6,2.6-2
			C250.1,19,249.8,18.7,247.3,20"/>
	</g>
	<path id="path3538" fill="#CCCCCC" d="M260.2,24.4c0.5,0.7,0.9,1.3,1.2,2C260.9,26,260.2,25.2,260.2,24.4"/>
	<path id="path4714" fill="#CCCCCC" d="M272.3,6.6c-1.1-0.9-0.1-2.3,0.8-2.7C273.5,5,273.2,6.1,272.3,6.6"/>
	<path id="path6046" fill="#CCCCCC" d="M268.7,29.5c1.1-1.7,4.2-1.5,4.8-3.5c0.4-1.2,0.1-4-1.6-3.9c1.3-1.3,3.5-1.6,5.2-1.7
		c3.5-0.3,0.5,1.9,0.8,3.9c0.3,1.9,1.3,3.6-1.1,4.6C274.2,29.9,271.4,28.5,268.7,29.5"/>
	<path id="path6052" fill="#CCCCCC" d="M280.8,16.7c0.3-1.2,1.3-2,2.4-2.3C283.3,15.9,281.6,16.1,280.8,16.7"/>
	<path id="path6441" fill="#CCCCCC" d="M187.9,1.1c-0.1-0.3-0.3-0.7-0.5-0.9c1.1-0.4,1.5,1.1,1.6,1.9C188.6,1.6,188.2,1.3,187.9,1.1
		"/>
	<path id="path6443" fill="#CCCCCC" d="M200.3,6.3c-1.6-0.4-3.9-1.9-3.9-3.8C197.2,2.7,200,5.4,200.3,6.3"/>
	<path id="path6445" fill="#CCCCCC" d="M205.3,6.5c-0.3-0.5,0.1-2-0.5-2.3c-0.5-0.3-0.8-0.1-0.7-1.1C205.3,4.2,206.9,4.8,205.3,6.5"
		/>
</g>
<g id="Colombia">
	<path id="path3786" fill="#CCCCCC" d="M90.4,128c-0.4-0.1-0.7-0.1-1.1-0.3c0.4-2.3,2.8-3.1,4.7-1.9c1.1-2-1.5-3.9-0.5-5.8
		c1.3-2.6,4.2-2.4,6.6-2.8c0.4-0.1,0.3-1.2,0.9-0.8c0.4,0.3,1.5,0.5,1.5-0.3c0-1.6,2.2-3.6,0.8-4.7c2.3,0,2.7-3.1,3.4-4.6
		c0.5-1.2,1.6-2.2,2.7-2.8c-1.3-1.1,0.3-1.3,0.7-2.4c-0.9,0-2.2,0.8-2.6-0.5c0.8-0.1,1.3-0.8,1.2-1.6c-0.7-0.3-2.3,1.7-2.4,0.1
		s0.8-1.9,2-2.6c-1.9,0-1.1-2.6-0.8-3.6c0.5-2.2,0-4.8-0.1-7c-0.1-1.6-0.8-3.1-0.9-4.7c0-0.9,2.7-1.2,2.3-3.2
		c-0.3-1.2-3.1-4-1.2-4.7c1.7-0.7,0.3-4.2-0.5-5c-1.5-1.6-1.6-4.2-3.2-5.5c-1.1-0.9,0-2,0.7-3c0.7-0.9,0-2.3,0.9-3.2
		c0.5,0.5,0.8,1.2,1.1,1.9c2-1.5,5-4.3,4-7.1c-0.9-2.8-2.8-3.5-1.1-6.2c0.9,1.3,2.2,3.1,3,4.4c0.9,1.5,3.1,1.9,1.1,3.8
		c2.7,3,1.3-5.7,0.9-6.6c-0.5-1.3,5.7-4.4,6.5-5.5c0.9-1.3,1.7-3.6,3.4-4.3c0.9-0.4,3.1-0.1,3.6-1.2c0.8-1.5-0.7-2-0.4-3
		c0.5-1.6,0.8-3.6,1.7-5.1c-1.5-0.1-1.1-0.7-0.1-1.1s0.5-1.6,0.5-2.4c0-1.7,3-2.3,3-3c0-0.9,3.6-4.6,4.4-4.6c1.7,0,3.1,1.5,4.8,1.6
		c-1.5-0.1-1.2,1.3-2.6,1.3c0.9,3.6,3.1-1.2,3.6-2.6c1.2-3.2,2.7-3.1,6.2-2.4c4.7,0.8,6.2-2.3,10-4.6c2-1.2,8.1-2.7,6.2-6.2
		c0.8-0.3,3-0.9,1.7,0.7c1.5-0.3,0.5-1.6,2.2-2.4c1.9-0.8,3.6-0.8,5.2,0.5c5.7,4.7-6.5,6.6-8.2,8.9c-0.9,1.2-1.3,3-2.4,4
		c-0.8,0.8-2,0.5-2.8,1.3c-1.3,1.5-2.7,3.8-3.6,5.7c-1.2,2.7-1.3,5.5-2,8.3s-2.7,6.2-4.6,8.3c1.5,0,2.7-0.5,3.9-1.6
		c0.3,0.7,0.4,1.3,0.3,2c3-0.8,1.9,4.4,3.5,6.3c2.2,2.7,2.7,4.3,1.5,7.7c-0.7,1.6-1.6,5.2,0.7,6.1c2.6,0.9,1.2,4,3.9,4.6
		c1.1,0.3,2.2-0.4,3.1-0.5c1.7-0.1,3.2,0.9,5,0.8c1.5-0.1,2.8-1.2,4.3-1.2c1.3,0,2.4,1.3,3.8,1.6c0.9,0.3,1.9-0.5,2.7,0.1
		c1.2,0.9,1.9,2.8,2.8,4c0.8,1.2,1.5,2.3,2.2,3.5c0.9,1.6,1.3,1.1,2.7,1.5c2,0.5,3.9-1.1,6.5,0c0.8,0.3,2.6-0.5,3.5-0.5
		c1.9,0,3.5,0.1,5.1-0.9c1.9-1.1,5,1.1,4,3.1c-0.5,1.1-1.9,2-2.2,3.2c-0.3,1.6,0.3,2.4-1.2,3.4c-2,1.3-1.2,6.7-1.3,9
		c-0.3,2.6,0.8,5.4,1.3,8.1c0.4,2,4.3,4.8,3.8,7c-0.8,2.6-5.7,3.6-5.7,6.7c1.7-1.3,6.2,3.5,6.7,5c-0.1,0.4-0.3,0.8-0.3,1.2
		c0.3,0.8,0.9,1.5,0.9,2.3c0,1.6,0.9,3.5,1.3,5.1c0.3,1.3,1.7,4.6,0,4.8c-1.6,0.1-1.2-1.5-1.1-2.6c0.3-1.6-1.6-9-3.9-8.2
		c-1.2,0.4-5,6.9-5.9,3.1c-0.4-1.3-2.2-2-2,0c0.3,2.3-2.7,1.5-4.3,1.5c-2.3,0-4.7,0-7,0c-1.6,0-3.2-0.9-4.7-0.3
		c-2.3,0.9-0.4,6.1-0.7,7.9c1.9-1.2,6.2-0.1,7,1.9c0.3,0.8,0.5,3.2-0.9,3.1c-0.9-0.1-1.5-1.2-2.4-1.1c-2.2,0.4-5.8,0.9-5.9,3.4
		c-0.1,3-0.4,7.1,2.2,9.1c1.3,0.9,2.8,1.9,2.8,3.8c0,1.7,0.8,2.4,1.6,4c1.6,3.5-0.4,8.2-0.9,11.7c-1.2,8.5-0.9,17.6-3.6,25.8
		c-0.7-1.6-1.9-3-3-4.2c-1.2-1.3-2.8,0-4.3-0.8c-1.3-0.8,2.2-6.1,2.7-6.9c0.9-1.6,4-4.7,2.6-6.3c-0.7-0.7-1.7-2.4-2.7-2
		c-1.6,0.7-3.1-1.9-4.2-2.6c-1.9-1.1-2.2-0.1-3.9,0.7s-3.4-0.7-4.7-1.5c-1.5-1.1-4.3,2.3-6.1,3c-1.1,0.4-3.2-0.3-4.6,0
		c-1.9,0.3-2.8-0.1-4.3-1.3c-1.2-0.9,0-3.1-0.4-4.4c-0.5-1.9-3.5-0.8-3.9-2.7c-0.3-1.3-0.5-3-1.1-4.2c-0.5-1.3-2.6-1.1-3.4-2.2
		c-0.9-1.2-1.5-1.2-2.7-1.6c-1.5-0.5-2-2.8-2.2-4.2c-0.3-2.6-5.2-6.3-7.7-7.1c-0.4-0.1-0.9-0.9-1.3-0.3c-0.4,0.7-0.4,0.9-1.3,0.5
		c-1.3-0.7-3.5-1.3-4.7-2.3c-0.9-0.7-5.5-6.3-6.1-2.4c-0.3,2-7.4-0.4-8.9-0.7c-2.6-0.4-0.7-2.6-2.6-3.4c-1.6-0.7-0.9-2-3-2.2
		c-1.6,0-4.6-2.3-5.8-3.2C93.9,131.9,91.9,130.1,90.4,128"/>
	<g id="g4690">
		<path id="path3582" fill="#CCCCCC" d="M101.7,116.4c0.7-0.4,0.5-0.8-0.5-0.9C101.3,115.7,101.4,116.1,101.7,116.4"/>
		<path id="path3584" fill="#CCCCCC" d="M104.6,109.7c-0.3,0.3-0.7,0.7-0.8,0.9C104.8,110.9,105,110.6,104.6,109.7"/>
		<path id="path3586" fill="#CCCCCC" d="M105.6,97.7c0.3,0.4,0.5,0.7,0.8,1.1C106.1,98.5,105.8,98.1,105.6,97.7"/>
		<path id="path3588" fill="#CCCCCC" d="M107.3,86.3c0-0.4,0.1-0.7,0.1-1.1C107.5,85.6,107.5,86,107.3,86.3"/>
		<path id="path3788" fill="#CCCCCC" d="M98.7,117.1c-0.3-0.4-0.4-0.7-0.5-1.2C98.9,116,99.5,116.7,98.7,117.1"/>
		<path id="path3790" fill="#CCCCCC" d="M98.7,117.1C99,117.3,98.9,117.3,98.7,117.1"/>
		<path id="path3794" fill="#CCCCCC" d="M102.5,116.3c-0.3-0.3-0.5-0.7-0.8-0.9C102.3,115.3,102.2,115.6,102.5,116.3"/>
		<path id="path3802" fill="#CCCCCC" d="M106.9,96.1c0.4,0.3,0.7,0.5,1.1,0.8c-0.7,0.4-1.3,0.5-2,0.3
			C106.1,96.7,106.5,96.3,106.9,96.1"/>
		<path id="path3804" fill="#CCCCCC" d="M107.5,96.5c0.1,0.1,0.3,0.1,0.4,0.3C107.6,96.7,107.5,96.7,107.5,96.5"/>
	</g>
	<path id="path5692" fill="#CCCCCC" d="M141.9,18.6c0.3-0.1,0.5-0.1,0.8-0.3C142.4,18.4,142.2,18.4,141.9,18.6"/>
</g>
<g id="Argentina">
	<path id="path4454" fill="#CCCCCC" d="M213.2,487.1c0.1-0.9,1.3-1.2,1.5-2.2c0.3-1.2-0.4-3.1-0.4-4.4c0.1-3.8,2.3-5.2,3.6-8.5
		c0.9-2,0.9-4.2,1.3-6.3c0.3-1.1,0.5-2.3,1.1-3.2c0.5-0.9,1.7-0.1,2.7-0.7c4-1.9-0.1-4.3-1.5-6.3c-1.5-2.4,1.2-3.9,0.3-6.2
		c-0.5-1.6-5.4-10.2-1.3-10.4c-0.4-1.1-2.6-3.5-2.3-4.6c0.8-2.4,2.3-4.2,4.6-5.1c2-0.9,5.4-1.7,6.3-4s0.8-5.2,1.2-7.7
		c0.1-0.9,0.8-2.6,0.4-3.5c-0.3-0.7-2-1.6-1.9-2.3c0.1-0.8,1.7-3.2,2.3-3.5c1.7-0.7,0.9-2.7,2.6-3.5c2.7-1.3,2.8-1.6,3.2-4.8
		c2.2,0.4,3.4,2.7,5.2,3.5c2.3,0.9,4.8-0.3,7.3,0.1c5.7,0.8,5.4,5.1,8.2,9.1c0.1-1.7,0.1-3.5,0.8-5.2c0.4-0.9,1.1-4.2,2-4.6
		c0.7-0.3,2-0.1,2.8-0.4c1.5-0.4,3.4-0.1,4.8-0.1c0.9,0,3-0.5,3.2,0.5c0.4,1.5,3.2,3.1,4.3,4.2c1.2,1.2,2,1.3,2.8,3
		c0.5,1.2,1.3,2.4,2.2,3.5c1.9,2.4,5.2,4.2,7.8,6.1c1.5,1.1,2.2,2.6,3.5,3.6c1.2,1.1,3,0.9,4.3,1.5c1.9,0.8,3.2,1.2,5.4,1.2
		c1.6,0,2.8,1.5,4.2,2.2c3.5,1.7,6.2,5.1,10.1,6.5c1.1,0.4,2.4,0.5,3.4,1.3c1.3,1.2,1.9,0.5,3.2,1.3c1.3,0.8,3,0.9,4,2.2
		c0.7,0.8,1.5,1.6,2.2,2.6c1.3,1.7-1.2,3.6-1.5,5.7c-0.5,3-3.2,3.8-2.6,7.3c0.5,3.2-1.9,4.2-2.6,7c-0.4,1.3-0.8,0.9-0.1,2.6
		c2-0.8,4-0.8,6.2-0.4c3.6,0.7,7,2.8,10.6,1.7c1.1-0.4,1.6,1.3,2.8,0.5c1.1-0.8,2.3,1.1,3.2,1.3c0.7-1.3,0.7-3.1,2.6-3.4
		c1.3-0.1,2,1.3,3.2,1.2c1.9-0.3,1.6-2.6,2-3.8c0.5-1.5,3.6-1.3,3.4-2.2c0-0.3,1.7-2.8,2-2.8c1.3,0.3,1.1-3,1.2-4
		c0.3-2.2,0.3-4.6-0.3-6.7s0.8-1.5,2-0.7c0.3-1.7,2.6-1.6,3.8-1.2c2.2,0.8,2.6,3,3.2,4.8c0.9,2.7,1.2,4.2,1.3,7.1
		c0,1.5,0.4,2.8,0.1,4.4c-0.1,0.8-0.3,1.5-0.4,2.3c-0.5-0.1-0.9-0.1-1.3,0.1c-1.6,0.9-2.7,2.2-4.4,2.8c-0.8,0.4-3.8,1.3-3.9,2.6
		c-0.1,1.7-2.2,1.9-3.4,2.7c-0.7,0.4-0.8,1.5-1.5,2c-0.9,0.8-2,1.5-2.8,2.4c0.8,0.3,1.2,0.9,0.8,1.7c-1.7-1.9-5.2,5.5-6.3,6.9
		c-1.7,2.6-2.2,7.5-5.5,8.9c-1.5,0.5-1.3,2.6-2,3.8c-0.4,0.7-0.9,0.9-1.6,1.1c0.4,1.1,0,1.7-0.8,2.4c-2.2,1.9,0.1,2.6,0.4,4.7
		c0.1,1.1-0.7,0.8-0.8,1.6c0,0.9,0.5,1.9,0.7,2.8c0.1,0.9-0.1,2-0.5,2.8c-0.8,1.7,0.8,0.7,0.7,2.3c-0.1,2.2-1.3,2.6-0.9,4.8
		c0.4,2,1.5,2.7,0.9,4.7c-0.5,1.7,0.7,4,1.5,5.5c1.6,2.6-1.9,1.6-1.7,3.2c0.1,2-0.9,4,0,5.9c0.5,1.1,4.7,7.1,1.3,7
		c1.5,1.2,1.7,2.8,3.5,4c2,1.2,4,2.2,6.1,3.2c3.5,1.6,8.3,4.3,6.5,8.6c-1.3,3.1,2.7,9.4,6.5,7.8c1.5-0.7,2.2,3.8,2.4,4.6
		c0.9,2.3-0.7,5-1.6,7.1c-0.9,1.9-3.1,4.7-3.2,6.9c-0.1,2.3,0.1,3-1.9,4.4c-3.8,2.7-8.2,4-12.6,5c-5.5,1.1-10.8,2.7-16.4,3
		c-2.2,0.1-4,0-6.1-0.1c-2.4-0.3-4-1.7-6.3-2c0.3,0.7,0.8,1.2,1.3,1.6c0.5,0.5,0,1.7,0.3,2.4c0.1,0.4,4.6,3.6,1.7,2.6
		c1.3,0.9,1.9,1.6,2.2,3.2c0.3,1.2,0.4,3.1-1.3,2.2c0.3,1.2,0.5,2.4,0.5,3.6c0,0.9-1.1,1.9-0.3,2.7c0.5,0.7,1.2,1.1,1.9,1.6
		c0.9,0.8,0.4,2.2,1.7,1.5c-0.8,4.7-5.7,5.5-9.7,5.8c-5.2,0.5-9.7-3.1-14.9-3.9c2.2-0.4-0.1-1.2-0.8-0.8c-0.9,0.5-1.5,1.6-1.5,2.7
		c-0.1,2.8,3.4,5,3.9,7.7c0.4,2.3,0.5,5.1,3,6.1c1.3,0.5,4.8,0.8,3.8,3c0.5,0.1,5.5,0.7,5.1-0.5c-0.3-1.1-2.6-1.1-3.4-1.5
		c1.6,0.3,2.6-1.5,4-1.5c1.6-0.1,3.2,2.2,3.5,3.5c0.3,1.2,1.9,3.1,0.9,4.4c-0.7,0.9-2.8,1.2-3.9,1.1c-1.6-0.1-1.3-2-2.2-2.8
		c-1.3-1.3-3.1-1.9-4.7-0.8c-4.3,2.8,2.8,5.2,5.2,4.6c-0.3,1.3-1.6,1.7-2.7,2.3c-2.2,0.9-2,1.9-2.8,3.8c-0.8,2-0.9,2.7,0.4,4.6
		c0.5,0.7,1.1,1.5,1.2,2.3c-0.1,0.5-0.1,1.1,0,1.7c0.5,0.5,0.9,1.2,0.9,2c0,0.4,0.1,1.7-0.4,1.9c-0.8,0.1-1.7,0.5-1.9,1.5
		c-0.1,1.6,2.3,1.9,2,3.1c-0.3,1.3-10-0.5-7.8,3c-4.2-0.9-5.2,4.2-5.8,7.1c-0.9,5.1,2.4,7.1,6.2,9.7c1.9,1.2,3.5,3,5.7,3.9
		c2.7,1.2,5.9-0.4,8.5,1.1c3.5,2.2,4,9.1-1.5,8.5c1.1,0.4,1.7-0.5,2.7-0.5c1.5-0.1,2,0.9,3,1.9c-0.8,0.1-1.1,0.5-0.7,1.3
		c-1.6-0.3-4.8,3.8-5.8,4.8c-1.3,1.3-2.3,2.6-3.2,4c-0.7,1.1-1.2,1.7-1.2,3c0,1.1,0.1,2-0.8,2.8c0.8,0.1,1.3-0.3,1.6-1.1
		c0.1,2.8,3.2,7.9-1.1,9.3c-3.2,1.1-4.2-3.8-6.9-4.3c0.7,0.3,2.6,1.6,1.9,2.6c-0.4,0.7-2.3,0.1-3,0.7c2.7-1.1,3.8,0.7,6.1,1.2
		c-0.3,1.7-3.1,1.7-3.8,3.6c-0.8,2.7,0.9,4.4-0.5,7.1c2-2.4,4.8,3,5.5,4.3c1.1,2.2-3.4,0.9-4.4,1.7c1.2-0.4,3.9,0.7,4.3,0.4
		c1.6-0.9,2.8,1.2,4,2.2c2.3,1.9,4.8,3.2,5.9,5.9c-0.5-0.9-1.9-0.9-2.8-1.1c-1.7-0.1-3.4-1.1-5-1.6c-4.2-1.2-8.6-1.7-12.9-1.7
		c-1.9,0-3.8,0-5.8,0c-1.6,0-5,0.7-6.3-0.3c-2.2-1.3-4-4.4-6.7-4.7c0.9-1.3,0.1-3.4-1.1-4.2c-1.5-1.1-0.3-2.6-1.1-3.8
		c-0.5-0.8-2-3-3.2-2.4c-0.9,0.4-1.7-0.1-2.7,0c-0.7,0.1-1.1,1.1-1.6,1.3c-1.2,0.7-3.1-2.7-3.5-3.5c-0.8-1.6-4-2.7-4.3-4.3
		c-0.1-0.8-0.5-0.9-0.9-1.6c-0.3-0.5,0-1.3-0.3-1.9c-0.3-0.8-1.3-1.2-1.6-2c-0.4-0.9,0-2-0.1-3c1.6,0.3,1.7-0.7,2.2-1.9
		c0.3-0.7-0.1-1.3,0.4-1.9c0.5-0.5,1.5-0.1,2-0.8c1.1-1.2-0.1-3.2-0.9-4.3c-0.9-1.2,1.5-1.3,1.6-2.3c0.1-1.1-1.5-2.6-2.3-3.1
		c-1.6-1.1-1.9-1.9-1.9-3.8c0-1.3,0.3-6.1,2.7-5.7c-0.5-1.1-1.7-1.2-1.7-2.3c0-0.7-0.7-1.3-0.4-2c0.3-0.5,0.8-0.8,1.1-1.3
		c1.1-2.2-2.6-5.5-4-6.6c1.3,0,2.2-2.6,0.7-3c-1.1-0.3-2.7-2.7-1.6-3.6c0.9-0.8,1.2-0.3,1.9-1.7c0.5-1.2,0.8-1.2-0.3-2.3
		c-0.9-0.9-2-1.7-3-2.4c-1.5-1.1-3.6,0-5-1.5c-1.2-1.2,6.3-0.7,7-1.6c-0.3,0.4,0-2.4,0.1-2c-1.1-3.2-6.3,0-7.5-3.1
		c-0.3-0.5-0.7-1.1-0.9-1.5c-0.3-0.8,1.1-1.6,0.5-2.4c-0.7-1.1-2.4-1.6-1.5-2.7c1.2-1.3-4.8-2.6-2.7-4.4c1.2-1.1-0.3-1.9-1.3-2.2
		c-2-0.4-2.8-1.1-3.5-3.1c-0.5-1.5-0.5-3.4-1.1-4.8c-0.4-1.1-2-2-0.5-3.1c0.9-0.7,2.7-0.1,1.5-1.7c-1.1-1.3-3.4-3.4-3.1-5.2
		c0.4-3.4-3.1-6.3-3.6-9.4c-0.3-1.2-0.1-2.8,0.4-3.9c0.9-1.7-1.6-2.2-1.9-3.6c2.3,0.8,0.8-2.6,0.1-3.4c-1.3-1.5-0.9-2.3,0.9-2.4
		c-1.2-1.2-0.5-4.4-1.1-6.1c-0.8-2.4,1.6-3,3.1-4.3c1.6-1.5-1.9-3.8-2.4-5.7c-0.7-2.3-4.2-5.1-3.8-7.4c0.3-1.5-1.2-5.2-2-6.6
		c-0.8-1.6-1.2-5,0.1-6.3c0.7-0.7,1.2,0,1.6-0.8c0.3-0.7,0.3-1.6,0.7-2.2c0.4-0.4,1.5-0.7,1.5-1.3c0.1-1.6-0.4-3.2-1.1-4.7
		c-0.5-1.2-1.1-2.4-1.7-3.5c-0.1-0.3-1.3-1.1-1.3-1.2c0-1.1,1.3-0.5,1.5-1.7c0.1-1.2-0.1-2.4-0.3-3.5s0.1-6.5,1.9-6.2
		c1.6,0.3-0.7-3.9-0.8-4.3c-0.7-1.6,0.1-7-1.6-7.5c-1.1-0.4-0.4,1.3-1.9-0.4c-1.1-1.3-0.8-1.9-0.5-3.4c0.1-1.2-0.7-1.6-1.5-2.2
		c-0.9-0.7-0.7-1.5-0.9-2.4c-0.7-2.3-3-3.6-3.6-5.9c2.2,0.9-0.3-2-1.1-2.4c-2-1.1-2.7-4.3-2.7-6.2c-0.1-2.4,1.7-1.5,1.2-4
		c-0.4-1.9,1.5-5.2,0.1-6.9c3.2,2.2,2-3.5,1.6-4.7C215.2,493.4,212.3,488.8,213.2,487.1"/>
	<path id="path4136" fill="#CCCCCC" d="M319.3,601.1c0.1-0.7-0.1-0.8-0.9-0.3C318.6,600.9,319,601.1,319.3,601.1"/>
	<path id="path4138" fill="#CCCCCC" d="M320.9,603.2c0.1-1.2-1.1-1.7-2-1.2C319.5,602.5,320.2,602.9,320.9,603.2"/>
</g>
<g id="Suriname">
	<path id="path4608" fill="#CCCCCC" d="M309,105c-1.1-0.7-3.5-4.7-3.5-5.9c0-1.9,3.2-5.5,2.3-7.3c-1.6-3.2,2.7-3.4,4.8-3.6
		c1.2-0.1,2.8-3,0.7-3.5c2.2-2.6,1.3-8.3,6.1-7.7c1.5,0.3,9.6,0.9,8.7,3.5c1.1-2-0.5-3.5,2.7-3.5c1.2,0,5.1-0.1,5.2,1.7
		c0.7-0.8,1.9-0.4,2.7-0.4c-0.3-0.1-2.8-1.1-2.4-1.3c1.7-1.2,6.5,0.7,8.3,0.9c3.4,0.5,3.2,3,1.7,5.4c-1.6,2.7-3.8,4.2-3.6,7.7
		c0.1,3-0.3,6.6,1.2,9.3c1.2,2.2,4,4,2.4,6.7c-0.5,0.9-1.3,1.7-1.6,2.8c-0.3,1.1,0.3,2.2,0,3.4c-0.5,2.2-2,4.6-3.5,6.2
		c-0.5,0.5-3.8-1.6-4.2-2c-1.3-1.6-4,0.4-5.9,0.7c-1.5,0.3-1.7,0.7-3.1-0.1c-1.5-0.8-1.2,0-1.9,0.8c-2,2.2,0.5,2,0.9,4.4
		c0.5,3-4.4,1.3-5.5,0.5c-0.8-0.5-2.2-0.7-2.8-1.3c-0.7-0.8-0.9-2-1.5-3c-0.9-1.9-3.4-4.8-3.4-7c0-0.8-0.3-5-1.3-5.1
		c-0.7-0.1-2,0.9-2.6,0.1C309.4,106.6,309.8,105.5,309,105"/>
</g>
<g id="Ecuador">
	<path id="path6721" fill="#CCCCCC" d="M69.7,172c2,0.7,2.2-2.4,2-3.6c-0.1-0.9-0.5-1.7-0.8-2.7c-0.5-1.6,1.2-2.8,0.5-4.3
		c-0.7-1.6-2.6-3.9,0.5-4.2c1.3-0.1,1.7-0.7,2-1.9c0.3-1.6,1.2-1.2,2.6-1.5c-2.3-0.3-2.4-3.1-1.1-4.4c2-2,3.5-3.5,3.6-6.6
		c0-0.9-1.2-4.8-0.4-5.4c0.9-0.5,4.6-3.2,4.6-0.7c-0.5-1.6,1.3-2.3,2.6-2.7c1.2-0.4,3.8-2,4-0.5c0.5-1.2,0.9-2.6,1.9-3.6
		c2.7,2.6,6.9,7.1,10.9,7c1.2,0,1.3,1.5,2.6,1.9c1.6,0.5,0.1,3.8,3,3.6c2.2,0,3.8,0.9,5.9,1.1c0.7,0,2.3,0.9,2.7-0.4
		c0.1-0.4-0.7-0.8-0.1-1.1c2-0.9,3.5,0.8,4.7,2.2c1.7,2.2,4.3,2.3,6.5,3.8c-1.2,0.3-2.3,0.1-3.5-0.1c-0.1,0.8,2.4,3.2,2.8,3.9
		c1.5,1.9,0.4,3.9,1.3,6.2c-0.8,0.1-1.3-0.1-1.9-0.7c-1.5,7.7-5.9,14.5-12.4,19c-3.1,2.2-7.1,2.8-10.6,4.3c-1.7,0.8-2.7,1.9-3.9,3.4
		c-0.4,0.4-0.8,0.9-1.1,1.3c-0.3,0.8,0.3,1.2-0.4,2c-0.7-3.1-2,3-2.2,3.2c-1.1,1.9-2.2,4.6-2,6.7c0.1,2.6-1.7,2.6-2.4,4.6
		c-0.7,2.2-0.5,2.4-2.6,2.4c-2.4,0-3-2.7-3.8-4.6c-0.9-2.3-2-0.5-3.6-1.3c-1.1-0.5-2.2-2.7-3.5-1.3c-1.7,1.7-3.6,1.3-1.7-1.2
		c-1.3-0.1-1.6-2-0.7-2.8c0.5-0.5,1.7-0.1,2.4-0.7c1.1-0.8-0.5-6.1-1.7-6.6c1.5-0.8,2.7-0.4,3.6-2.2c0.8-1.5,0.9-3.2,1.5-4.8
		c0.5-2,0.7-2,0-3.9c-0.7-1.7-0.8-3.5,0.4-5.1c-2.2,1.1-0.8,3.5-1.1,5.2c-0.5,3-2.6,0.3-0.4,0.1c-1.1-0.1-1.2-0.9-0.8-1.7
		c-0.7,0.7-3.1,3.6-2.6,4.7c-1.6-1.1-2.8-2.8-4.4-3.8C71.3,173.8,69.9,173.4,69.7,172"/>
	<g id="EcuadorIslands">
		<path id="path4732" fill="#CCCCCC" d="M81.1,177.2c0.4-0.7,0.3-1.3-0.1-1.9C80.8,175.9,80.8,176.5,81.1,177.2"/>
		<path id="path4734" fill="#CCCCCC" d="M81.6,175.5c-0.1-0.4-0.3-0.7-0.5-0.9C81.2,174.9,81.5,175.2,81.6,175.5"/>
		<path id="path5302" fill="#CCCCCC" d="M83,135.9c0.1,0.3,0.3,0.4,0.1,0.7C83.1,136.3,83,136.2,83,135.9"/>
		<path id="path6533" fill="#CCCCCC" d="M79.6,177.5c-1.1,0.1-2.2,0.9-2.6,1.9c-0.1,0.4,0.1,2.8,0.9,2.3c0.3-0.3,0.8-1.5,0.8-1.9
			c0-0.5,1.5-1.1,1.9-1.7C80.3,177.9,79.9,177.6,79.6,177.5"/>
	</g>
</g>
<path id="path4806" fill="#CCCCCC" d="M337.6,526.4c-0.1-0.4-0.3-0.7-0.4-1.1C337.3,525.6,337.4,526,337.6,526.4"/>
<g id="FalklandIslands">
	<path id="path4810" fill="#CCCCCC" d="M380.2,748.3c0.5-0.1,0.8-0.5,0.5-1.1c-0.9-1.2-1.3,1.3-1.3-0.9
		C377.4,746.5,379.4,748,380.2,748.3"/>
	<path id="path4812" fill="#CCCCCC" d="M386.3,741.9c0.1,0.3,0.3,0.5,0.4,0.8c-2.2,0.8-3.9-1.2-6.1-1.1c0.9,0.9,1.9,0.5,2.6,1.6
		c0.5,0.9,2.8,1.6,3.8,1.9c-1.6-0.5-3.1,0-4.6,0.4c1.1,1.6,2.7-1.1,3.9,0.5c-0.8-0.1-1.2,0.1-0.9,0.9c-0.3-0.4-0.5-0.7-0.8-1.1
		c0,0.9-1.2,2.8,0.7,1.6c-0.5,1.5-3.6,1.3-4.8,1.6c0.5,0.3,4.8,2.2,2.2,0.5c0.5-0.1,2.4,2,2.7,1.2c0.7-1.2,2.6-0.7,1.7-2.6
		c2.7,0.9,3.6-2.2,4.8-3.9c0.4-0.7,0.9-1.3,1.1-2.2c0.1-0.8-2-1.9-1.6,0.1C390.2,742.1,387.5,741.3,386.3,741.9"/>
	<path id="path4814" fill="#CCCCCC" d="M383.7,741.7c0.5,0.3,1.1,0.3,1.6,0.1c-0.3-0.8-0.8-1.2-1.6-0.9c0.4,0.3,0.7,0.5,1.1,0.8
		C384.4,741.7,384,741.7,383.7,741.7"/>
	<path id="path4816" fill="#CCCCCC" d="M385.9,740.9c0.3,0.3,0.7,0.4,1.1,0.4C386.5,741.1,386.1,741,385.9,740.9"/>
	<path id="path4818" fill="#CCCCCC" d="M387.5,740.2c0.5,0.8,2.3,0.8,3,0.4C389.5,740.3,388.4,740.5,387.5,740.2"/>
	<path id="path4820" fill="#CCCCCC" d="M392.5,751.5c0.7-0.7-0.3-1.1-0.8-0.9C391.9,750.8,392.2,751.1,392.5,751.5"/>
	<path id="path4822" fill="#CCCCCC" d="M392,749.9c1.3,0.7,2.3,2.2,3.9,2.2c-0.7-0.4-1.1-1.2-0.7-1.9c0.9,0.4,1.9,0.9,3,1.1
		c0-1.2-1.3-1.9-2.3-2.3c1.2-0.1,1.9,0.7,3,0.7c0.7,0,1.2-0.5,1.9-0.3c0-1.3-2.6-1.6-3.2-2.6c1.3,0.8,3,0.9,4.6,0.8
		c0.9-0.1,2.4-1.3,0.9-1.6c1.5,0.3,3-0.1,4.3-0.7c-0.4,0.1-3.8-1.3-4.2-1.7c1.1-0.5,2,0.1,3.1-0.1c-0.9-0.7-5.2-3.4-5.4-0.3
		c0.8,0.1,1.6,0.5,2.2,1.2c-1.2,0-4.7-2.3-2.2-1.9c-1.1-1.9-4-1.7-5.8-1.5c0.5,0.8,0.1,1.6-0.7,1.9c0.8,0,1.2,0.4,1.1,1.2
		c-0.4-0.1-0.7-0.4-1.1-0.5c0.3,1.1,1.9,1.2,1.9,2.6c-1.6-2-4.7,1.9-3.5,3.6C392.7,749.6,392.5,749.7,392,749.9"/>
	<path id="path4824" fill="#CCCCCC" d="M402.3,748.8c0.3,0.3,0.5,0.4,0.9,0.5C402.9,749.2,402.5,749.1,402.3,748.8"/>
</g>
<g id="Paraguay">
	<path id="path5308" fill="#CCCCCC" d="M274,405.3c0.9-3.9,1.5-7.8,1.9-11.8c0.3-2.2,0-4.2-0.3-6.3c-0.1-2.2,0.9-3.9,1.9-5.8
		c1.3-2.6,1.2-6.3,4.4-6.7c4-0.5,8.2-1.5,12.1-2.7c6.5-2,11-1.5,16.8,1.7c2.3,1.3,5.4,3,5.7,5.9c0.1,1.7,1.5,7.3,3.4,7.8
		c-1.2,1.5,0.7,1.9,1.1,3c0.3,0.8,0,3.4-0.1,4.3c-0.3,0.7-0.3,1.3-0.4,2c0.1,0.9,0.8,1.7,0.4,2.7c-0.4,1.1-0.4,2.7-0.3,3.8
		c0.1,0.7,7,1.7,8.1,1.7c1.5,0,3,0.8,4.6,0.8c1.5-0.1,2-2.8,3.5-1.7c1.5,1.1,2.3,1.5,4,1.7c1.3,0.1,2.7,0.9,3,2.3
		c0.3,1.5,1.5,2.4,1.6,4.2c0.3,2.2,1.5,4.2,1.7,6.3c0.3,2.6,0.9,7.5,4.3,7.3c1.9-0.1,3.2-1.6,5-2c1.7-0.3,3,1.7,4.2,2.6
		c-0.8,0.5-0.8,1.2-0.4,2c0.8,1.5,0,2.3,0.4,3.8s-0.1,3.1-0.4,4.6s0.1,2.7-0.7,4c-1.3,2.3-0.1,7.1,0.1,9.7c0.1,0.8,0.1,5.7-1.1,5.9
		c-0.5,0.1-2.7,2.6-2.4,3.1s-1.9,0.5-2.2,0.7c-0.7,0.3-0.9,1.3-1.2,1.9c-0.3,0.5-1.5,4.2-2.6,3.2c-2.6-2.3-4-0.4-5.2,2.2
		c-0.8-0.3-1.3-1.5-2.2-1.5c-1.1,0-1.7,0.5-2.8,0c-1.1-0.7-1.7,0.4-2.7,0.4s-2-0.5-3-0.8c-3.1-0.8-6.3-2.2-9.6-1.9
		c-1.6,0.1-2.6,1.2-3.1-0.7c-0.1-0.4,1.2-3.1,1.5-3.4c3.4-2.2-0.3-8.2,2.8-9.7c1.5-0.7,1.9-3.8,2.6-5.2c1.5-2.7-0.7-4.7-3-6.2
		c-1.7-1.2-4.2-1.1-5.8-2.4c-0.9-0.8-2-1.1-3.2-1.2c-1.3-0.3-2.4-1.3-3.5-2c-2.7-1.5-5-2.8-7.4-4.8c-2.7-2.2-5.1-1.6-8.1-2.8
		c-1.9-0.7-5.8-1.2-6.5-3.5s-5.8-4-7.5-5.7c-1.9-1.6-3-3.6-4.3-5.8C278.1,408.2,275.7,407.4,274,405.3"/>
</g>
<g id="Guyana">
	<path id="path5694" fill="#CCCCCC" d="M272,77.2c2-2.2,3-3,2.3-5.8c-0.5-2,0.4-3,2.3-3.1c0.9-0.1,0-1.2,1.2-0.9
		c1.3,0.4,1.7-0.4,3-0.8c0.9-0.3,2.2-0.9,2.6-1.9c0.4-0.8-0.4-2.2-1.3-1.9c-2.4,0.8-0.9-1.3-2-2.7c-0.9-1.2,0.3-2.4,1.1-3.5
		c0.9-1.2,1.1-0.7,2.4-1.5c1.9-0.9,2.7-3.4,4.3-4.3c2.3-1.3,0.7-2-0.4-3.9c1.6,1.9,3.6,3.1,5.5,4.7c-0.9-1.3-2.7-1.6-3.4-3.2
		c2.3,1.1,4.6,2.4,6.2,4.3c1.3,1.5,3.1,4.3,4.7,5.4c1.9,1.1,2.3,4.6,1.6,6.3c-0.5,1.3-1.2,2.3-1.3,3.8c-0.1,1.3-0.1,2.7-0.9,3.9
		c2.6-0.4,0.7-6.7,4.6-5.4c3,1.1,6.6,3.2,7.3,6.6c1.9-1.7,3.4,1.9,3.6,3.2c0.5,2.4-0.4,6.1-2,7.9c2.6,0.7-0.3,2,0.4,3.4
		c-1.6,0.3-7.1-0.1-6.3,3c0.8,2.7-1.3,4.4-1.7,7.1c-0.3,1.7,1.6,5.4,3,6.6c1.3,1.2,0.4,2.7,2.4,3c0.4,0,1.5-0.4,1.7,0
		c0.8,1.3,0.9,2.8,1.2,4.3c0.4,2.7,3.2,5,3.2,7.7s3.1,2.7,4,4.3c-3.4,2.2-6.6-2.2-9.7,0.4c-0.5,0.4-0.8,1.1-1.3,1.5
		c-0.8,0.9-2,0.5-3.1,0.8c-1.9,0.7-2,1.6-4.3,1.6c-0.7,0-1.1,0.5-1.6,1.1c-0.4,0-0.7,0.1-0.9,0.4c0.1,0.4,0.1,0.8,0.1,1.2
		c-0.5,0.9-3.4,1.5-4.3,1.1c-0.7-0.3-0.3-1.1-1.2-1.1c-0.8,0-2.4-0.5-2.7-1.5c-0.5-1.3-2.4-3.4-3.9-3.6c0.1-0.3,0.3-0.7,0.4-0.9
		c-1.3,0.1-1.2-1.1-1.1-2c0.3-1.6-0.1-2.3-1.1-3.4c-1.6-1.9-1.5-5.7-1.1-7.9c0.4-1.7,1.7-3.4,1.7-5.2c0-1.6,0.4-1.5,1.3-2.8
		c0.5-0.8,1.9-2.4,1.3-3.4c-0.4-0.8-1.6-2-1.6-3c0-0.9,0.5-1.9-0.5-2.3c-0.8-0.3-2.7-0.4-3.1-1.1s1.1-3,1.2-3.8c0.3-1.5,0-3.1-1.1-4
		c-1.6-1.5-4.3,0.8-6.3-0.1C276.2,84.4,273.2,79.5,272,77.2"/>
</g>
<g id="Uruguay">
	<path id="path5885" fill="#CCCCCC" d="M335.7,501.9c0.8-1.2,2.6-2.3,1.9-4c1.3,0.9,2.6,1.6,4.2,0.8c0.9-0.4,0.9-1.9,2-2
		c2.2-0.3,4.2,2.3,5.5,3.5c1.9,1.6,5.4,3,5.7,5.7c0.1,0.9-0.1,2.6,1.3,2.3c1.1-0.3,2.8-1.2,2.2-2.6c1.7,0.4,5,5.8,6.3,5.2
		c1.3-0.4,1.5,0.5,2.6,1.2c1.3,0.8,2.8,0.8,4,2.2c0.9,0.9,1.6,2,2.8,2.8c1.5,0.9,3.2,1.1,4.4,2.3c2.4,2.2,3.2,4.8,6.2,6.3
		c3.5,1.7,1.7,2.7,0.1,5.2c-1.2,1.9-0.4,6.7,1.5,7.9c1.2,0.8-0.8,5.2-1.6,6.6c-0.7,1.1-3,5.9-4.8,4.2c1.1,1.3-1.2,2-2.2,2.4
		c-2.4,0.9-3.2,1.1-5.8,0.5c-2-0.4-4.3-1.5-6.3-0.4c-0.8,0.4-1.7,0.9-2.8,1.1c-1.5,0.1-1.3-0.9-2.4-1.5c-1.6-0.9-3.8-0.5-5.4-1.6
		c-2.3-1.3-3.1-2.7-5.9-2.6c-1.9,0.1-3.4,0.8-4.7-0.7c-1.7-2-4.6-3.4-6.1-5.7c-1.1-1.6-2.6-8.5-0.3-9.1c2.4-0.7,0.7-3.4-0.1-4.7
		c-0.5-0.9-0.8-1.9-1.2-2.8c-0.3-0.8,0.7-1.5,0.4-2.6c-0.4-0.9-2-3.8-1.2-4.7c1.9-2.2-0.5-3.5,0.3-4.8c0.5-0.9-0.1-5.7,0.1-5.8
		C338.4,505.3,336.1,503.5,335.7,501.9"/>
</g>
<g id="Chile">
	<path id="path6393" fill="#CCCCCC" d="M190.3,359.9c2.2-1.2,4.7-0.1,5.5-3.1c0.4-1.3-1.5-3.4-0.4-4.6c0.3-0.1,0.5-0.3,0.8-0.1
		c0.8,0,1.6-1.5,2.2-2c0,1.6,1.7,2.4,2.3,3.9c0.4,1.5,1.3,2,2.8,2.3c-1.3,1.2,0.7,4.8,1.1,6.2c1.2,3.5,1.9,5.5,4.8,7.9
		c2.7,2.2,1.5,2.8,0.4,5.7c-0.1,0.5,2,1.9,2,2.8c0,1.2-1.7,1.2-2.6,1.7c1.5,1.3,0.3,2.8,1.2,4.3c0.4,0.7,1.6,0.5,2,1.2
		c0.7,0.9-0.1,1.1,0,2c0.4,3,4.3,4.3,4.7,7.8c0.4,4.2,3.1,7.5,4.3,11.4c0.9,3,0.8,6.7,5.1,5.4c4.3-1.3,4.6,1.3,4.2,4.8
		c-0.3,2.7,0.4,7.1-1.9,9.1c-2.4,2-6.6,1.5-8.2,4.6c-0.5,1.1-2.2,1.6-2.3,3.1c-0.1,1.2,2,3.5,2.4,4.7c-3.1,0.1-0.9,5-0.3,6.5
		c0.5,1.2,1.2,2.4,1.7,3.8c0.7,2-1.2,2.4-1.1,4.2c0.1,2.6,4.3,5.2,3.8,7.4c-0.4,1.3-2.6,1.9-3.6,1.3c-1.3-0.7-1.6,3.2-1.7,3.9
		c-0.9,3.8-2,6.5-4,9.8c-1.7,2.8,0.3,6.1-0.8,9c-0.5,1.5-1.9,1.7-1.3,3.6c0.4,1.6,1.6,2.8,2,4.4c0.3,0.9,0.3,1.9,0.5,2.8
		c0.3,0.8,0.9,1.2,1.2,1.9c0.5,1.5-1.3,3.1-2.7,2.2c1.1,1.3-0.3,3.9-0.3,5.2c0,1.1,1.1,2.6,0,3.4c-0.7,0.7-1.2,0.5-1.3,1.7
		c-0.1,2.3,1.5,4.6,2.6,6.5c0.5,0.9,1.6,0.5,2.3,1.5c0.5,0.7,0.3,1.6-0.8,1.1c0.7,2.6,3.5,4.2,4,6.7c0.1,1.1,0.3,2,1.3,2.6
		c1.5,0.7,0.3,2.2,0.5,3.4c0.8,3,3.8,0.3,3.6,3.8c0,2.7,0,5,1.5,7.3c0.3,0.4,1.2,2.8-0.1,2.6c-1.2-0.4-1.1,0.3-1.1,1.2
		c0,1.2-0.5,2.3-0.7,3.4c-0.3,1.3,0.1,2.7,0.1,4c0,1.5-0.9,1.1-1.2,2c-0.3,1.1,0.4,0.7,0.8,1.5c1.3,2.7,2,5.4,3.1,8.1
		c0.4,0.8,0,1.5-0.9,1.5c-0.8,0.1-0.9,1.3-1.1,2c-0.5,1.3-3.1,0.9-2.6,2.8c0.4,1.2-0.5,2.2-0.1,3.4c0.4,1.1,1.3,2.2,1.5,3.4
		c0.1,2,0.8,3.9,1.2,5.8c0.4,2.2,2.7,3.4,3.5,5.2c0.5,1.2,0.8,2.7,1.6,3.8c0.4,0.5,1.7,1.6,1.3,2.4c-0.8,1.9-4.3,1.7-3.6,4.3
		c0.4,1.6,0.1,5.5,1.2,6.6c-1.3,0-2.3,0.3-1.3,1.7c0.3,0.7,3.1,5,0.3,4c0.3,1.5,1.7,1.6,2.2,2.7c0.3,0.8-0.5,1.7-0.8,2.6
		c-0.5,2.6,1.6,4.2,2.3,6.6c0.5,2,0.9,4.6,1.7,6.3c0.8,1.9,2.3,3.2,3.4,4.8c-0.8,0.7-2.6,0.4-2.8,1.6c-0.3,1.1,1.3,2.8,1.5,4.2
		c0.1,1.5,0.9,4.6,2.3,5.5c1.2,0.8,4,0.3,4.2,2.3c0.1,1.7-2.6,0.4,0.1,2.6c0.5,0.4,1.3,1.1,1.7,1.5c1.1,1.2-0.7,0.8-0.3,1.6
		c0.3,0.8,1.5,1.1,1.9,1.7c0.7,1.1-0.9,1.7-0.4,2.8c0.7,1.2,0.8,2.4,2.3,2.7c1.9,0.4,4.3-0.4,5.8,1.1c0.4,0.4,0.3,2.4,0,2.8
		c-1.3,1.2-3.8,0-5.4,0c-3.4,0.1,0.3,2.2,1.7,2.3c3.2,0.3,6.9,3.6,4.4,6.6c-0.3,0.4-1.1-0.1-1.3,0.4c-0.5,0.8,0.7,2.2,0.8,2.8
		s1.2,0.7,1.6,1.2c0.7,0.8-0.4,2.4-1.3,2.4c1.3,0.9,5.2,4.4,4,6.5c-0.5,0.9-1.7,1.2-1.1,2.4c0.1,0.4,0,1.6,0.4,1.7
		c0.7,0.3,1.3,0.8,1.6,1.5c-1.5-0.3-2.7,3.8-2.7,4.8c0.1,1.3-0.3,2.4,0.5,3.6c0.7,0.9,3.9,3,3.5,4.4c-0.3,0.8-1.6,0.8-1.9,1.6
		c-0.4,1.3,2.6,2.6,1.5,4.4c-0.5,0.9-2.3,0.8-2.7,1.9c-0.5,1.3,0.4,3.6-2.2,3.2c0.3,1.3,0.1,2.8,0.9,3.9c0.7,0.9,1.7,3.1,1.9,4.3
		c0.1,1.6,3.2,2.7,4.2,3.9c0.8,1.2,1.3,3.4,2.8,4c0.9,0.4,1.2-0.1,2-0.7c0.9-0.7,1.6-0.3,2.7-0.3c2.2,0,2.3-0.4,3.6,1.7
		c0.9,1.5,0.1,3.2,1.5,4c1.2,0.7,1.9,3.2,1.1,4.3c2,0.3,5.2,2.8,6.5,4.4c1.3,1.7,7.1,0.5,9.1,0.5c7.9,0,15.3,1.6,23,3.6
		c-2,0-3.8-0.8-5.7-1.2c-3.5-0.7-1.7,1.2-2.8,2.7c-0.9,1.3-2.8,0.1-4,1.3c-1.3,1.5-3.8,1.2-5.7,1.7c1.2,1.6,1.2,3.5,1.6,5.4
		c0.4,1.7,1.5,2.8,2.3,4.3c2.3,4-3.1,2.7-5.1,2.3c-2.4-0.5-7.9-2-8.9-4.7c-0.9-2.7,4.3-1.2,2,0.7c1.2,0,0.8-1.5,1.3-2.2
		c0.4-0.5,3.1,1.9,1.7,3.2c2.2-0.7-1.7-4,2.3-4.7c0.7-0.1,0.8-2,0.8-2.4c0-1.3-2.3-1.1-3.1-1.9c0,1.5-2,2.7-3,3.5
		c-1.7,1.2-3.2-0.7-4.8,0.4c1.2-0.3,2.2,0.8,3,1.5c-0.7,0.1-1.3,0.1-2-0.3c0.3,0.7,0.1,1.5-0.3,2c1.2,0.1,2.2,1.1,3,1.9
		c-3,0.8-7.9-2.4-10-4.3c1.5,0.7,3.5,0.7,5,0.5c-0.3-1.3-3.4-1.3-3.5-3.9c0-1.5,2.6-2.2,2.2-0.3c1.7-0.5,1.9-0.4,3.1-1.7
		c1.2-1.5,4.4,0.7,6.1-0.4c-1.1-1.3-8.2-2.4-8.5,0c-0.9-0.4-1.6-0.8-0.1-1.3c-0.9,0-4.6,0.1-3.8,1.9c0.7-0.7,1.3-0.7,2-0.1
		c-0.3,0.8-0.9,1.3-1.6,1.5c0.5,0.8,2,3,0.1,3.1c-1.2,0.1-3.9-1.5-1.5-2.2c-1.2,0.4-2.2-0.7-3-1.2c0.7,0.1,1.3,0.1,2,0
		c-0.4-0.1-0.7-0.4-1.1-0.5c1.3-0.8-0.1-2.4,1.6-1.9c-1.5-0.5-1.5-0.8,0-0.7c-0.7-0.3-1.3-0.3-2,0c0.7,0.5,0.9,1.3,0.4,2
		c-0.3-0.7-0.9-1.2-1.7-1.2c0,0.8-0.4,1.5-1.2,1.9c0.4-0.9,0.1-1.3-0.8-1.1c2.2-1.7-3.1-5.1-3.5-6.7c0.9,1.1,2.6,2,4,2
		c0.7,0,3.2-2.3,2.6,0.4c1.1-0.7,3,0.4,1.5-1.3c0.5,2.3-0.8-0.7-0.8-1.9c1.1,0.1,2.2,1.2,3,1.9c1.5,1.2,0.5,2.3-0.4,3.6
		c0.9-0.7,2-0.1,3-0.1c-1.3-0.7-0.3-2.3-1.5-3c-0.7-0.4-3.1-2.3-0.9-2.6c-1.3-1.1-1.9-2.7-3.4-3.5c-1.6-0.9-3.5-0.9-4.8-2.3
		c-0.3,0.3-0.4,0.7-0.5,0.9c1.2-0.1,7.1,1.5,7,3.1c-0.1,1.3-6.2-1.9-7.1-1.7c0.7,0.8,1.5,0.7,2.3,1.2c0.8,0.7,0.3,1.9,1.6,1.9
		c-0.5,0.5-0.8,1.2-0.9,1.9c-0.9-1.3-1.6-3-3-4c1.1,1.3,2.6,3.1,2.6,5c-1.5-1.3-3.5-1.9-4.3-3.9c0.7,0.5,1.3,0.9,2,1.5
		c-0.5-0.9-2.2-1.5-1.9-2.8c-0.7,0-1.3,0.7-1.9,0.5c-0.7-0.1-0.5-1.1-1.2-1.2c-0.8-0.1-1.9-2.3-2-3c1.7,0.4,2.7,1.9,4,3
		c-1.3-1.5-2.2-3.4-3.6-4.7c2.2,1.9,0.5-0.5-0.5-0.7c-0.1,0.3-0.1,0.7-0.3,0.9c-0.8-0.3-1.5-0.5-2.2-1.2c1.3,2.2-1.9-1.5-2.4-1.9
		c-0.7-0.5,0.9-0.8,1.1-0.8c0.4-0.1,0.8-0.1,1.3,0c1.6,0.1-1.6-1.9,0.9-0.5c-0.8-0.7-0.8-2.3,0.5-2.3c-1.1,0-2.4-1.1-1.5-2.2
		c-1.1,0.9-0.1,3-0.8,4.2c-0.8,1.3-4.2-3.2-5-3.6c0.7,0.3,1.3,0.5,2,1.1c-2-1.9,0.1-0.5,1.2-0.5c-1.2-1.1-4-1.1-4.6-2.6
		c0,2.3-2.6-1.1-3.9-1.2c1.3-2.7,5.8,1.5,7.9,1.2c-1.9-0.4-5.9-1.6-6.2-4c1.6-0.1,2.7,1.6,4.3,0.9c-1.1,0-1.2-0.7-0.8-1.6
		c-0.9,2.3-5.7-1.2-2.3-1.9c-0.8,0.1-3.4-0.7-1.9-1.5c2-1.2,3.5,0.9,5.2,1.5c-1.2-0.8-2.7-1.6-3.8-2.3c-0.5-0.4-1.5-0.4-1.5-1.3
		c0-0.9,0.9-1.1,1.6-0.7c-1.1-0.5-3-4.4-0.8-3.2c-0.7-0.5-1.3-0.4-2,0.1c0.5,0.5,0.5,4.4,0.1,5c-1.5-1.5-3.9-4-3.8-6.2
		c0-0.5-1.7-1.5-0.9-2.2c0.7-0.5,2.2-0.5,2.8-0.3c-0.3-0.3-5.2-0.8-3.5-2.4c0.8-0.7,2.7,0.3,3.5,0.5c-0.8-0.4-1.2-1.2-0.5-2
		c-0.7,0.1-4.4-0.3-2-1.1c-2.4,1.1-3.6-3.4-6.1-2.6c-0.4-2.6,3.5,0.4,4.2,1.1c-0.4-0.7-0.9-1.3-1.5-1.9c1.7-0.3,3.2,0.7,4.8,1.2
		c0.7,0.3,1.5,0,2.2,0.4c0.9,0.7,2,0.3,2.8,0.9c0.4-0.5,0.3-1.1-0.1-1.6c-0.4,2.2-3.6-0.8-3.8-1.9c1.2,0.9,2.7,0.7,4,1.1
		c-0.5-0.1-1.1-0.3-1.6-0.3c-1.1-0.1-1.6-1.3-2.4-1.9c-0.7-0.5-1.5-0.3-2-1.1c-0.5-0.7-0.1-1.5-0.8-2c0.8,1.1,1.1,3.9-1.1,3.4
		c-1.9-0.4-5.8-0.1-7.1-1.5c0.8-0.3,1.1-0.8,0.5-1.5c1.9-0.5,2.7,1.7,4.4,2.2c-1.5-0.3-0.5-1.9,0.5-1.3c-0.3-1.7-1.2,0-2.3-0.7
		c-0.8-0.4-1.1-1.3-2-1.3s0.4-4.6,2-1.9c-0.3-0.8,0-1.3,0.8-1.2c-0.1-0.5-0.3-0.9-0.5-1.3c-0.1,1.2-1.3,1.6-1.9,0.4
		c0.7-0.3,1.2-0.4,1.9-0.5c-0.7-0.9-2-1.1-2.8-1.6c-1.9-1.2-2.3-1.7-4.4-0.5c0.8-0.3,1.6,0,2,0.7c-1.6-0.4-3.2-0.7-4.7-1.5
		c-2.6-1.5-0.8-2-1.7-3.8c-0.9,1.9-4.7,2.2-4.8,3.8c1.7-2.8,4.6,4.3,0.7,1.2c-2.6-2-0.3-7.4,2.8-6.1c-0.9-0.1-1.2-0.8-0.7-1.5
		c1.6,1.2,0.8-1.7,2.4,0c-1.3-0.9,0.4-2.2-1.1-3.1c0.9,3.8-3.8,0.7-0.9,0.8c-0.9-0.1-2.2-0.4-2.4-1.5c1.3,0.5,2.6-0.8,3.9-0.5
		c1.2,0.3,1.5,1.5,2.7,1.6c-1.7-1.2,0.1-1.6,1.1-1.7c1.2-0.1,0.8,1.3,2.2,1.5c-0.7,0.9,0.8,2.7,0.4,0.7c2.8,1.3-1.5,3.2-3.1,2.4
		c1.1,0.7,4.7,1.2,6.1,1.2c-0.7-0.3-1.2-1.1-1.2-1.9c0.8,0.5,1.9,0.8,2.3,1.9c0.4,1.1-0.8,2-0.1,3.2c1.9-0.3,2.4-4.8,2.2-6.3
		c-0.3,1.1-0.5,2.2-1.2,3c0.1-2-2.7-7.3,1.3-7.1c-1.2-0.7-2.3,0.3-3,1.2c-0.3-0.9-0.8-2.2-0.5-3.1c0.3-1.1,1.6-1.1,1.9-2.2
		c0.7,0.9,1.7,1.2,2.8,1.7c1.2,0.7,1.6-0.7,0.5-0.7c-0.8,0.1-1.3-0.3-2-0.7c-1.2-0.8-2.6-0.1-3.8-0.8c2.2-1.6-3-3.2,1.1-3.6
		c2.8-0.3,4.2-4.3,2.7-6.6c-0.9,1.6-7.1-1.6-7-3.2c0.3-0.3,0.5-0.4,1.1,0c-1.7-1.9,1.7-3.1,0.7-4.7c-0.3,1.2-1.3,1.2-1.5-0.1
		c0-1.6-1.1-0.9-1.7-2.4c-0.7-1.3,0-1.7,0.3-3c0.1-0.7-1.1-2.6,0.8-2.2c0-1.2-0.8-1.3-1.5-2.2c-0.5-0.7-0.4-1.5-0.8-2.2
		c-1.5-2.6,0.4-1.1,2-1.5c-1.5-0.3-3.1-1.9-3.5-3.4c2.2-0.8,3.2,1.1,4.3,2.6c-0.3-2-1.6-4-2.6-5.8c-2,1.9-4.8-0.8-2.4-2.4
		c1.5-1.1,3.6-1.7,1.6-3.6c1.2,5.2-3,1.5-5.4,0.8c-1.9-0.4-0.5,2.4-1.6,3.1c-1.5,0.9-7.1-0.7-4-2c-5.4-0.1-6.1-8.5-6.6-12.1
		c-0.3-1.6-1.3-5.4-0.5-6.9c0.8-1.6,1.9-0.1,1.5-2.3c-0.3-1.5,0.4-2.8,0-4.2c-0.5-2.2-1.2-3.4-2.7-5.7c-1.6-2.3-3.5-4.4-4.3-7.1
		c-0.5-1.6,0-2.8-1.3-4.3c-0.8-0.9-1.7-1.9-2.3-3c-0.5-0.9,0.1-1.5-0.1-2.2c-0.7-1.3-1.3-2.2-1.1-3.8c1.1,0.8,3.1,1.3,3.8-0.4
		c0.7-2.2-1.5-3.8-0.7-5.9c0,0.8,0.5,1.2,1.2,1.2c0-0.5-0.1-1.1-0.4-1.6c-0.3-0.9,0.5-2,0.5-3.1c0-2-1.2-3.4,0-5.4
		c0.9-1.6-0.8-2.4,0-4.3c0.5-1.3,1.6-3.8,1.9-5.2c0.5-3.6-1.1-7.4-0.9-10.9c0.1-1.9,1.9-3.6,1.7-5.4c-0.1-1.5-1.3-3.4-1.9-4.7
		c-0.5-1.2,0.3-2.8,0.7-3.9c0.5-1.2-0.4-3.1-0.5-4.2c-0.1-0.8,0.4-1.5-0.1-2.3c-0.7-0.8-1.2-1.6-1.5-2.6c-0.8-2.2-1.1-4.2-1.9-6.3
		c-1.6-3.9-3.5-8.1-4.2-12.2c-0.4-2.2,0.1-2.3,1.6-3.4c1.2-0.8,0-2.7,0.8-3.8c0.8-1.1-1.6-6.7-2.6-7.4c-1.1-0.8-2.4-3.4-1.6-4.7
		c1.1-1.9,1.2-3.6,1.9-5.7c0.4-1.3-0.5-3.6-0.5-5c0-2.3,1.7-3.8,0.9-6.1c-1.3-3.5,0.5-7.9,0.5-11.7c0-3.2-2-6.1-1.9-9.1
		c0.1-1.7,2-2.2,1.9-3.8c-0.1-2.3-1.7-4.6-2.3-6.7c-0.5-2.4-0.1-4.7-0.4-7c-0.1-1.2-0.7-2-0.3-3.2c0.3-0.9,0.7-2,0.4-3.1
		c-0.3-1.2-2.2-0.5-2.4-1.9c-0.3-1.5,0.1-3.1,0.3-4.4c2.3,2,2.2-4.6,2.2-5.7c-0.1-5.7,1.1-12.2-1.1-17.5c-2.3-5.7-0.8-12-3-17.8
		c-0.9-2.4-1.9-5.4-2.3-7.9C191.4,364.1,192.1,360.9,190.3,359.9"/>
	<g id="IslandsChile">
		<path id="path4456" fill="#CCCCCC" d="M316.7,755.8c2,1.7,4.4,3,5.9,5.2c-1.3-2.4-4.4,1.9,0.7,1.9c1.9,0,2.6,2.2,3.8,3.2
			c1.5,1.3,3.8,1.7,5.1,3c3.8,3.4,9.1,4.8,13.7,7c2,0.9,5.1,2.2,7.4,2c1.1,0,2.3-0.3,3.4-0.3c1.6,0.1,1.2,1.7,0.8,3.1
			c-1.2-0.7-2.8,0.5-4.3,0c-1.6-0.7-3.9,1.5-5.9,1.1c-2.3-0.5-4.3-1.1-6.7-1.1c-2.7-0.1-6.1,0-8.6-0.9c-1.6-0.7-2.6,0.9-4-1.1
			c-1.2-1.9-2-4.2-3-6.3C322.1,767.1,319.1,761.6,316.7,755.8"/>
		<path id="path4808" fill="#CCCCCC" d="M363,781c1.3-1.6,4.2-1.2,6.1-1.9c-2.4-0.7-4.7,0.1-7,1.1C362.3,780.4,362.7,780.7,363,781"
			/>
		<path id="path6062" fill="#CCCCCC" d="M220.6,633.1c-0.9-0.7-1.2-0.1-1.6,0.5c-0.5,0.9-2.6-1.1-3.2-1.1c1.6,1.7,0.1,4,1.1,5.4
			c1.5,2.3,1.2,5.8,2.4,8.1c0.5,0.9-0.5,1.6-0.1,2.7c0.4,1.1,1.7,1.3,2.8,1.6c0.8,0.3,1.7,0.5,2.7,0.5c1.9,0.3,0.3-2.4,0.1-3
			c2.8-0.3,0-2.3-0.9-3.1c0.7,0.1,1.3,0.1,1.9,0c-0.4-0.7-5.7-4-2.7-4c-2.2-1.3,0.1-2,1.2-3C222.6,636.6,221.3,635,220.6,633.1"/>
		<path id="path6064" fill="#CCCCCC" d="M217,653.9c0.4-0.3,0.7-0.5,0.9-0.8c-0.7-0.4-1.3-0.4-1.9,0
			C216.5,653.4,216.7,653.7,217,653.9"/>
		<path id="path6066" fill="#CCCCCC" d="M220.2,668.6c0.3-0.8-0.1-1.2-0.9-0.9C219.5,668.1,220,668.3,220.2,668.6"/>
		<path id="path6068" fill="#CCCCCC" d="M221.8,665.8c-0.1-0.5-0.1-0.8-0.8-0.9C221.4,665.2,221.7,665.5,221.8,665.8"/>
		<path id="path6070" fill="#CCCCCC" d="M223.3,642.4c0.1-0.8-0.1-0.8-0.9-0.1C222.6,642.4,223,642.4,223.3,642.4"/>
		<path id="path6072" fill="#CCCCCC" d="M224.7,641.4c-0.3-0.9-1.1-1.5-2-1.2C223.4,640.5,224.1,640.9,224.7,641.4"/>
		<path id="path6074" fill="#CCCCCC" d="M224.9,666.1c-0.4-0.9-1.5-0.9-2-0.1C223.6,665.9,224.3,665.9,224.9,666.1"/>
		<path id="path6076" fill="#CCCCCC" d="M224.1,659.2c-0.5-0.1-0.4-0.5-1.1-0.1C223.4,659.1,223.7,659.1,224.1,659.2"/>
		<path id="path6078" fill="#CCCCCC" d="M224.8,664.3c0.4-0.5,0.5-1.1,0.4-1.6c-0.5,0.7-1.2,0.8-2,0.5
			C223.4,663.8,224,664.3,224.8,664.3"/>
		<path id="path6080" fill="#CCCCCC" d="M224.5,659.6c-0.3-0.1-0.7-0.1-0.9-0.1C223.9,659.5,224.1,659.5,224.5,659.6"/>
		<path id="path6082" fill="#CCCCCC" d="M224.7,661.5c-0.3-0.3-0.5-0.3-0.9-0.1C224,661.3,224.3,661.5,224.7,661.5"/>
		<path id="path6084" fill="#CCCCCC" d="M225.7,657.3c-0.1-0.7,0.3-1.3,1.1-1.5c-1.1,0.3-2.3-0.3-3.1,0.8
			C224.5,656.6,225.2,656.9,225.7,657.3"/>
		<path id="path6086" fill="#CCCCCC" d="M226.4,667.8c0.3-1.1-1.1-1.5-1.9-1.5C225.1,667.1,225.7,667.5,226.4,667.8"/>
		<path id="path6088" fill="#CCCCCC" d="M225.5,633.5c0-0.5-0.3-0.9-0.8-1.1C224.9,632.8,225.2,633.1,225.5,633.5"/>
		<path id="path6090" fill="#CCCCCC" d="M227.1,646.4c-0.5-0.5-1.2-0.7-1.9-0.5C225.7,646,226.4,646.3,227.1,646.4"/>
		<path id="path6092" fill="#CCCCCC" d="M227.4,667.3c1.1-0.4,1.7-1.5,3-1.5c-0.9-0.9-2.6-1.2-3.8-0.9
			C224.4,665.7,226,666.9,227.4,667.3"/>
		<path id="path6094" fill="#CCCCCC" d="M227.4,661.7c0-0.4,0.1-0.8,0.4-1.2c-0.7-0.3-1.3-0.4-2.2-0.1
			C226,661.1,226.7,661.5,227.4,661.7"/>
		<path id="path6096" fill="#CCCCCC" d="M225.7,662.3c0.4,0.1,0.7,0.1,1.1,0.3C226.5,662.6,226.1,662.4,225.7,662.3"/>
		<path id="path6098" fill="#CCCCCC" d="M227.1,677.5c-0.3-0.3-0.7-0.4-1.1-0.5C226.3,677.2,226.7,677.4,227.1,677.5"/>
		<path id="path6100" fill="#CCCCCC" d="M227.4,657.8c-0.3-0.3-0.5-0.4-0.9-0.3C226.7,657.6,226.9,657.7,227.4,657.8"/>
		<path id="path6102" fill="#CCCCCC" d="M228,664.4c0.1-0.3,0.3-0.5,0.4-0.8c-0.7-0.3-1.3-0.4-2-0.5
			C226.7,663.8,227.4,664.3,228,664.4"/>
		<path id="path6104" fill="#CCCCCC" d="M228,660.3c-0.1-0.5-0.5-0.9-1.2-1.2C226.9,659.9,227.4,660.4,228,660.3"/>
		<path id="path6106" fill="#CCCCCC" d="M228.3,663c0.5-0.9-0.5-0.9-1.1-0.5C227.6,662.7,227.9,662.8,228.3,663"/>
		<path id="path6108" fill="#CCCCCC" d="M227.6,677.9c0.3,0,0.7,0.1,0.9,0.1c0-0.7,0-1.3-0.1-1.9
			C227.5,676.4,227.1,677.1,227.6,677.9"/>
		<path id="path6110" fill="#CCCCCC" d="M227.4,669.4c1.2,0.5,2.7-0.3,3.8-0.5C229.9,667.8,228,667.9,227.4,669.4"/>
		<path id="path6112" fill="#CCCCCC" d="M229,672.9c0.3-0.8-0.5-1.5-1.2-1.6C227.8,672.1,228.2,672.6,229,672.9"/>
		<path id="path6114" fill="#CCCCCC" d="M228.8,661.9c0.1-1.1-0.3-1.1-1.1-0.1C228.2,661.7,228.6,661.7,228.8,661.9"/>
		<path id="path6116" fill="#CCCCCC" d="M228.7,676.1c-0.3-0.4-0.5-0.7-0.8-0.9C228.2,675.6,228.4,675.9,228.7,676.1"/>
		<path id="path6118" fill="#CCCCCC" d="M228.8,674c0.3-0.9-0.1-1.1-0.9-0.4C228.2,673.7,228.6,673.9,228.8,674"/>
		<path id="path6120" fill="#CCCCCC" d="M229.8,659.6c0.4-1.1-0.8-1.9-1.6-1.9C228.6,658.4,229.1,658.9,229.8,659.6"/>
		<path id="path6122" fill="#CCCCCC" d="M229.2,663.4c0.5-0.7,0.3-0.9-0.7-0.9C228.8,662.7,229,663,229.2,663.4"/>
		<path id="path6124" fill="#CCCCCC" d="M229.5,667.8c0.1-0.4,0.1-0.7,0-1.1c-0.4,0.1-0.7,0.4-0.9,0.8
			C228.8,667.7,229.2,667.8,229.5,667.8"/>
		<path id="path6126" fill="#CCCCCC" d="M230,678.3c1.3-0.7,1.7-3.4-0.1-3.5C227.8,674.8,229.8,677.5,230,678.3"/>
		<path id="path6128" fill="#CCCCCC" d="M231.4,669.4c-0.8,0.4-1.7,0.5-2.6,0.8c0.3,2,4,1.9,5.4,1.6
			C233.9,670.6,232.7,669.4,231.4,669.4"/>
		<path id="path6130" fill="#CCCCCC" d="M232.2,673.6c0.7,0,1.2-0.1,1.9-0.1c-0.5-1.1-2.8-1.6-3.9-1.1
			C230.9,672.9,231.5,673.3,232.2,673.6"/>
		<path id="path6132" fill="#CCCCCC" d="M231.9,668.9c0.5-1.1-0.5-2-1.6-1.6C230.6,668.1,231.1,668.6,231.9,668.9"/>
		<path id="path6134" fill="#CCCCCC" d="M231.8,666.5c0.4-0.1,0.8-0.1,1.2-0.3C231.5,663.4,229.4,665.7,231.8,666.5"/>
		<path id="path6136" fill="#CCCCCC" d="M231.5,636.7c0.1-0.7-0.1-0.9-0.9-0.5C230.9,636.5,231.1,636.6,231.5,636.7"/>
		<path id="path6138" fill="#CCCCCC" d="M237.7,711.5c1.7-1.7-4.3-8.2-6.6-6.9c0.4,0.5,1.9,1.2,2,1.9c0.1,1.1,1.6,0.9-0.1,1.6
			c0.9,0.4,2-0.7,2.4,0.3C235.7,709.5,236.8,711.1,237.7,711.5"/>
		<path id="path6140" fill="#CCCCCC" d="M232.1,676.1c0.5-0.9,1.6-0.7,2.4-0.3C233.9,674.3,231.1,674.3,232.1,676.1"/>
		<path id="path6142" fill="#CCCCCC" d="M232.6,667.5c0.3,0,0.4,0,0.7,0c0-0.8-0.4-1.2-1.2-0.9C232.3,667,232.5,667.3,232.6,667.5"
			/>
		<path id="path6144" fill="#CCCCCC" d="M233.4,674.4c0.1-0.8-0.3-0.9-1.1-0.3C232.7,674.3,233,674.4,233.4,674.4"/>
		<path id="path6146" fill="#CCCCCC" d="M233.8,658.3c-0.1-1.1-0.3-2-1.5-1.2C232.5,657.7,233,658.3,233.8,658.3"/>
		<path id="path6148" fill="#CCCCCC" d="M234.1,677.8c1.5-0.9-0.7-2.3-1.7-1.5C232.7,677,233.3,677.5,234.1,677.8"/>
		<path id="path6150" fill="#CCCCCC" d="M233.5,701.7c0.3-0.7,0.1-1.1-0.4-1.6c-0.3,0.3-0.5,0.5-0.7,0.9
			C232.9,701.4,233.1,701.6,233.5,701.7"/>
		<path id="path6152" fill="#CCCCCC" d="M233.9,711.4c1.3,0.3,2.2-0.7,1.5-1.9c-0.9-1.5-1.7-0.4-3-0.1c0.3,1.2,1.5,1.2,2.4,1.5
			C234.6,711.1,234.3,711.3,233.9,711.4"/>
		<path id="path6154" fill="#CCCCCC" d="M234.6,679.9c0.1-0.8,0.3-2.3-1.1-2C233.8,678.7,234.1,679.4,234.6,679.9"/>
		<path id="path6156" fill="#CCCCCC" d="M234.5,712.6c0.8-0.3,1.6-0.8,2.2-1.3c-1.2-0.4-1.9,0.9-3.1,0.4
			C233.9,712.1,234.2,712.3,234.5,712.6"/>
		<path id="path6158" fill="#CCCCCC" d="M234.9,701.2c0.4-0.9,0.1-1.2-0.9-0.8C234.2,700.6,234.5,700.9,234.9,701.2"/>
		<path id="path6160" fill="#CCCCCC" d="M239.9,666.5c-0.3-0.4-0.5-0.7-0.8-1.1c1.5-0.4,1.1-1.9-0.3-2c-0.4,0-0.8,0-1.2-0.3
			c-1.2-0.9-0.9,0.4-2.4-0.4c-0.3,0.8,0.3,1.3,0.9,1.6c-0.7,0.5-1.3,0.7-2.2,0.7c0.3,0.9,0.9,2.3,2.3,2c-2.2,0.4,0,1.3,0.8,1.5
			C238.3,668.7,239.2,667.3,239.9,666.5"/>
		<path id="path6162" fill="#CCCCCC" d="M237.3,704.4c0.3-1.1-0.1-2.3-1.1-2.8c-0.4,0.7-0.4,1.3,0,1.9c-0.7-0.7-2.4-0.9-2,0.5
			C235.3,703.1,236.2,704.3,237.3,704.4"/>
		<path id="path6164" fill="#CCCCCC" d="M238,708.7c3.1-2.3-1.5-4-3.5-3.6C235.4,706.4,236.6,707.6,238,708.7"/>
		<path id="path6166" fill="#CCCCCC" d="M239.2,716c-0.1-1.6-3.1-3.1-4.4-2.3C235,715.7,238.3,714.2,239.2,716"/>
		<path id="path6168" fill="#CCCCCC" d="M237.2,705.1c-0.3-0.8-1.2-0.9-2-0.9C236,704.4,236.6,704.7,237.2,705.1"/>
		<path id="path6170" fill="#CCCCCC" d="M237.4,678.2c0-0.5-0.5-3.6-1.3-3.4C233.7,675.6,236.5,677.4,237.4,678.2"/>
		<path id="path6172" fill="#CCCCCC" d="M236.1,680.7c0.3-0.5,0.7-1.1,1.3-1.2C236.5,678.3,234.9,679.6,236.1,680.7"/>
		<path id="path6174" fill="#CCCCCC" d="M236.5,716c0.1-0.7-0.1-0.8-0.9-0.4C235.8,715.7,236.2,715.8,236.5,716"/>
		<path id="path6176" fill="#CCCCCC" d="M236.4,678.3c-0.1-0.5-0.4-0.8-0.8-1.1C235.8,677.5,236.1,677.9,236.4,678.3"/>
		<path id="path6178" fill="#CCCCCC" d="M235.7,673.5c0.4,0,0.7-0.1,1.1-0.1C236.5,673.3,236.1,673.3,235.7,673.5"/>
		<path id="path6180" fill="#CCCCCC" d="M237,671.3c-0.3-0.4-0.5-0.7-0.8-0.9C236.5,670.6,236.8,670.9,237,671.3"/>
		<path id="path6182" fill="#CCCCCC" d="M236.6,694.2c0.5-0.3,0.7-0.7,0.7-1.2C236.2,692.7,236,693.2,236.6,694.2"/>
		<path id="path6184" fill="#CCCCCC" d="M238.4,683.3c0.4-1.5-0.8-2.7-2-1.5C237.2,682.2,237.8,682.6,238.4,683.3"/>
		<path id="path6186" fill="#CCCCCC" d="M237.7,718c-0.3-1.3,2-2.3-0.3-3C237.7,716.4,235.3,717.7,237.7,718"/>
		<path id="path6188" fill="#CCCCCC" d="M238.3,681.3c-0.3-0.7-0.7-0.9-1.3-1.2C237,680.9,237.4,681.3,238.3,681.3"/>
		<path id="path6190" fill="#CCCCCC" d="M239.2,714.9c0.4-0.1,0.7-0.3,1.1-0.5c-0.5-1.1-1.6-1.6-2.8-1.6
			C238,713.6,238.5,714.2,239.2,714.9"/>
		<path id="path6192" fill="#CCCCCC" d="M238.3,704c-0.3-0.4-0.5-0.7-0.8-1.1C237.7,703.3,238,703.6,238.3,704"/>
		<path id="path6194" fill="#CCCCCC" d="M239.1,713.1c0-0.7-0.3-1.2-0.9-1.5C237.7,712.5,238.3,713,239.1,713.1"/>
		<path id="path6196" fill="#CCCCCC" d="M242.8,711.4c1.7-0.4-3.4-5.4-3.9-6.2c0.1,0.7,0.3,1.3,0.4,2c0.3,0.8,1.1,1.1,1.2,1.9
			c-0.7-1.7-2.8-0.7-1.7,0.9C239.5,711.4,241.6,711,242.8,711.4"/>
		<path id="path6198" fill="#CCCCCC" d="M239.5,721.1c-0.3-0.3-0.5-0.4-0.9-0.5C238.8,720.8,239.1,721,239.5,721.1"/>
		<path id="path6200" fill="#CCCCCC" d="M247.3,726.3c0.9,0.4,2.2,0.4,3,0c-0.3-0.3-0.5-0.5-0.8-0.8c1.7,1.2,1.1-1.7-0.4-2
			c2.7,0.5-1.2-2.8-0.7-0.1c-0.3-2.3-0.4-5.5-2.2-7.3c-0.7-0.7-0.3-1.6-1.3-1.9c-0.7-0.3-1.5-3.8-1.5-1.2c-1.1-4.2-4.8,1.7-2,0.5
			c-2.2,0.5-0.1,2,0.8,0.9c-0.7,0.9,1.1,3.6,1.2,4.7c-0.5-0.5-1.2-0.9-1.9-1.2c1.3,2.7-2.4-1.2,0,1.6c-0.4-0.7-1.2-1.1-1.9-0.9
			c0.7,0.5,1.3,1.2,1.9,1.9c-1.1-0.7-1.7-1.7-3-2.3c-0.1,1.7,1.7,2.2,2.6,3.4c0.9,1.3,2.4,3.4,4.2,3.5c0.1-1.3-1.3-1.7-1.5-3
			c-0.1-1.2,1.2-1.3,1.2-2.4c1.1,0.1,1.5,1.5-0.1,1.2c0,0.8,0.5,1.3,1.2,1.6c-0.4,0.1-0.7,0.4-1.1,0.5c0.3,0.8,1.3,0.8,2,1.2
			c1.3,0.8-1.1,1.7,1.1,1.3C247.9,725.7,247.7,726.1,247.3,726.3"/>
		<path id="path6202" fill="#CCCCCC" d="M239.6,712.1c1.1-0.7,0.7-1.1-0.5-0.9C239.3,711.4,239.5,711.7,239.6,712.1"/>
		<path id="path6204" fill="#CCCCCC" d="M244,725.3c-0.7-2-2.8-3-4.8-3.2c0.3,1.1,1.2,2.6,2.4,1.3
			C241.7,724.7,243.4,724.5,244,725.3"/>
		<path id="path6206" fill="#CCCCCC" d="M239.6,702.3c0.3-0.5,0.5-0.4,0.3-1.1C239.9,701.6,239.7,701.8,239.6,702.3"/>
		<path id="path6208" fill="#CCCCCC" d="M242.8,718.1c0.4-1.6-2.4-3.9-3-2.2C239.6,716.6,242.4,717.7,242.8,718.1"/>
		<path id="path6210" fill="#CCCCCC" d="M240.9,718c-0.3-0.3-0.5-0.4-0.9-0.4C240.3,717.7,240.7,717.9,240.9,718"/>
		<path id="path6212" fill="#CCCCCC" d="M241.9,707.5c1.5-1.1-0.4-2.2-1.5-2C240.9,706.2,241.5,706.8,241.9,707.5"/>
		<path id="path6214" fill="#CCCCCC" d="M242,703.5c1.2-0.4,2.6-0.1,3.4-1.1c-1.6-0.8-3.2-0.1-5-0.4
			C240.7,702.8,241.2,703.3,242,703.5"/>
		<path id="path6216" fill="#CCCCCC" d="M244.8,709c0.3-0.9-1.2-1.5-1.7-1.9C242.6,708.3,244,708.6,244.8,709"/>
		<path id="path6218" fill="#CCCCCC" d="M247.3,729.7c0.4-0.7,0.8-1.3,1.5-1.9c-1.1,0.7-2.2,0.7-1.9-0.8c-0.5,0.3-0.9,0.1-1.3-0.3
			c-0.8-0.7-1.7,0.1-2.7,0c0.7,0.5,3.2,0.9,3.1,2.3c-1.3,0.3-1.1-1.3-2.4-1.2c0,0.5,0.1,1.3,0.5,1.7c0.8,0.8,2.4-0.3,1.5,1.5
			C246.5,730.9,247,730.4,247.3,729.7"/>
		<path id="path6220" fill="#CCCCCC" d="M246.9,709.2c-0.4-0.7-1.2-1.2-2-1.1C245.5,708.6,246.2,709,246.9,709.2"/>
		<path id="path6222" fill="#CCCCCC" d="M247.5,735.2c0.3-0.9-0.5-1.7-0.9-2.6c0.8,0.4,1.3,0.1,1.5-0.8c-1.1,0.3-2-0.7-3,0.1
			c0.9,0.3,1.1,0.9,0.3,1.6C246.6,733.7,246.3,735.2,247.5,735.2"/>
		<path id="path6224" fill="#CCCCCC" d="M247.7,703.9c-0.1-0.5-0.4-0.8-0.9-0.9C247,703.2,247.4,703.6,247.7,703.9"/>
		<path id="path6226" fill="#CCCCCC" d="M248.3,730.8c-0.3-0.3-0.5-0.3-0.9-0.1C247.7,730.6,248.1,730.8,248.3,730.8"/>
		<path id="path6228" fill="#CCCCCC" d="M249.3,721.9c0.3-0.3,0.5-0.4,0.8-0.7c-0.5-0.7-1.2-1.1-1.9-1.3
			C248.5,720.6,248.9,721.4,249.3,721.9"/>
		<path id="path6230" fill="#CCCCCC" d="M249.3,704.9c-0.3-0.3-0.7-0.4-0.9-0.5C248.6,704.5,249,704.7,249.3,704.9"/>
		<path id="path6232" fill="#CCCCCC" d="M250.2,735.4c0.1-0.8-0.1-1.9-1.2-1.7C249.1,734.4,249.6,735.1,250.2,735.4"/>
		<path id="path6234" fill="#CCCCCC" d="M250.4,727.3c0.4-0.3,0.7-0.4,1.1-0.7C251,726.9,250.8,727,250.4,727.3"/>
		<path id="path6236" fill="#CCCCCC" d="M250.9,731.9c0.4-0.4,0.7-0.9,0.8-1.5C250.9,730.5,250.5,731.2,250.9,731.9"/>
		<path id="path6238" fill="#CCCCCC" d="M253.7,736.3c0-0.8-2.2-3.1-3-2.3C249.3,735.2,252.8,736.3,253.7,736.3"/>
		<path id="path6240" fill="#CCCCCC" d="M254.7,738.9c0.5-0.9,1.6-1.6,2.7-0.9c-1.6-1.1-1.7-3.5-4.3-3.1c0.5,0.7,1.1,1.3,1.5,2
			c-1.1-0.1-2-0.4-3.1-0.5c0.1,1.1,2,2.4,3,1.5C254.5,738,254.7,738.4,254.7,738.9"/>
		<path id="path6242" fill="#CCCCCC" d="M252.4,744.6c1.5-0.4,0.7-2.4,0.8-3.4c-0.7,0.5-1.3,0.3-1.6-0.5
			C251.7,741.8,251.6,743.7,252.4,744.6"/>
		<path id="path6244" fill="#CCCCCC" d="M252.2,739.4c0.4-0.1,0.7-0.4,0.9-0.5C252.9,739,252.6,739.1,252.2,739.4"/>
		<path id="path6246" fill="#CCCCCC" d="M257.8,735.8c0-1.2-1.6-1.7-2.4-2.2c1.9,0,0.5-0.3-0.1-1.1c-0.8-0.8-1.5-1.2-2.6-0.7
			c0.8,0.5,1.1,1.3,1.6,2C255.1,735.2,256.6,735.1,257.8,735.8"/>
		<path id="path6248" fill="#CCCCCC" d="M254.4,742.9c1.2-0.3,1.7-1.5,2-0.3c0-0.4,0-0.8,0-1.2c0.4,0.3,0.7,0.4,1.1,0.7
			c-0.9-1.6-2.2-3.4-3.6-0.8C254.5,741.5,254.9,742.1,254.4,742.9"/>
		<path id="path6250" fill="#CCCCCC" d="M255.6,747.5c1.2-0.4,0.3-1.6-0.4-1.9C255.1,746.3,255.2,746.9,255.6,747.5"/>
		<path id="path6252" fill="#CCCCCC" d="M257.8,739.8c0.1-1.1-1.2-1.2-1.6-2C255.2,739,257,739.5,257.8,739.8"/>
		<path id="path6254" fill="#CCCCCC" d="M258.2,750c0.5-1.2,0.4-5.1-1.7-4.8c0.3,0.7,0.7,1.3,1.1,1.9
			C255.6,746.8,257.2,749.3,258.2,750"/>
		<path id="path6256" fill="#CCCCCC" d="M259.1,739.9c0.3,0,0.4-0.1,0.7-0.1c-0.8-0.9-1.5-2-2.6-2.8
			C257.8,737.9,258.4,739,259.1,739.9"/>
		<path id="path6258" fill="#CCCCCC" d="M259.1,750.2c0.7-0.7,1.1-3.5-0.7-3C258.4,748.3,259,749.2,259.1,750.2"/>
		<path id="path6260" fill="#CCCCCC" d="M261.3,752.3c1.1-1.3-1.5-0.9-2-1.1C259.9,751.5,260.6,751.9,261.3,752.3"/>
		<path id="path6262" fill="#CCCCCC" d="M261.7,742.6c0-0.9-0.8-1.7-1.9-1.5C260.3,741.8,261,742.3,261.7,742.6"/>
		<path id="path6264" fill="#CCCCCC" d="M259.9,749.5c0.7-0.1,1.2-0.5,1.5-1.1C260.7,748.1,260,748.7,259.9,749.5"/>
		<path id="path6266" fill="#CCCCCC" d="M264.2,748.1c0-1.3-3-2.6-4-2.6C261.4,746.8,262.7,747.5,264.2,748.1"/>
		<path id="path6268" fill="#CCCCCC" d="M260.3,750.8c0-0.3,0-0.7,0-0.9C260.3,750.2,260.3,750.4,260.3,750.8"/>
		<path id="path6270" fill="#CCCCCC" d="M261.8,741.7c0.3-0.1,0.5-0.4,0.8-0.5c-0.4-0.8-1.1-1.1-1.7-0.4
			C261.1,741.1,261.5,741.4,261.8,741.7"/>
		<path id="path6272" fill="#CCCCCC" d="M264.6,746.4c0.3-0.1,0.4-0.3,0.7-0.5c-1.1-0.5-1.6-1.7-2.7-2.3
			C263,745.3,262.9,745.7,264.6,746.4"/>
		<path id="path6274" fill="#CCCCCC" d="M264.4,741.7c0-0.8-0.4-1.2-1.2-1.2C263.1,741.1,263.5,741.7,264.4,741.7"/>
		<path id="path6276" fill="#CCCCCC" d="M266.9,753c0.5-0.1,0.9-0.4,1.2-0.8c-1.2-0.7-3.5-3.2-5-1.7c1.2-0.4,2.2,0.5,3.1,1.1
			C264,750.8,266.4,752.8,266.9,753"/>
		<path id="path6278" fill="#CCCCCC" d="M278.2,763.3c0.8,0.3,1.7,0.3,2.6,0.1c-1.5-0.4-2.6-1.6-4-2c3.1,3-4.2-3-0.9,0.1
			c-2.2-1.6-4.2-1.6-6.6-2.3c-1.9-0.5-3.4-2.6-5.5-2c2.6,1.2,4.3,2.7,7,3.5c1.3,0.4,2.7,0.1,4,0.7
			C275.8,761.9,276.9,763.7,278.2,763.3"/>
		<path id="path6280" fill="#CCCCCC" d="M265.4,750.2c-0.3-0.5-0.4-0.7-1.1-0.5C264.6,749.9,265,750,265.4,750.2"/>
		<path id="path6282" fill="#CCCCCC" d="M266.8,746.7c-0.1-0.9-1.3-1.2-2-1.3C265.3,745.8,266,746.3,266.8,746.7"/>
		<path id="path6284" fill="#CCCCCC" d="M269.6,751.2c-0.4-1.9-3.2-3.1-5-3.2C265.8,749.6,268.1,749.9,269.6,751.2"/>
		<path id="path6286" fill="#CCCCCC" d="M266.6,747.6c-0.4-0.4-0.1-0.8-0.9-0.5C266,747.3,266.4,747.5,266.6,747.6"/>
		<path id="path6288" fill="#CCCCCC" d="M269.6,753c0.3,0,0.4-0.1,0.7-0.1c-0.7-1.3-2.3-2-3.6-1.9
			C267.6,751.6,268.7,752.2,269.6,753"/>
		<path id="path6290" fill="#CCCCCC" d="M267.7,748.8c0.7-0.5,0.4-0.8-0.7-0.9C267.3,748.1,267.4,748.4,267.7,748.8"/>
		<path id="path6292" fill="#CCCCCC" d="M268.4,751c0.1-0.7-0.1-0.8-1.1-0.4C267.7,750.7,268,750.8,268.4,751"/>
		<path id="path6294" fill="#CCCCCC" d="M270.8,756.7c1.3-0.8,0.8-3.6-0.9-3.4C268.5,753.8,270.8,756.2,270.8,756.7"/>
		<path id="path6296" fill="#CCCCCC" d="M272.7,762.7c-0.7,0-1.1-0.1-1.1,0.8C272,763.2,272.3,762.9,272.7,762.7"/>
		<path id="path6298" fill="#CCCCCC" d="M273.4,761.1c0.3,0.4,0.5,0.5,0.9,0.7C274,761.6,273.8,761.3,273.4,761.1"/>
		<path id="path6300" fill="#CCCCCC" d="M276.5,759.3c-0.3-1.3-2.2-1.2-3-0.7C274.6,758.2,275.7,758.6,276.5,759.3"/>
		<path id="path6302" fill="#CCCCCC" d="M274,749.2c0.8-0.3,1.2-0.9,0.8-1.7C274.2,747.9,273.8,748.4,274,749.2"/>
		<path id="path6304" fill="#CCCCCC" d="M276.5,766.4c0.3-0.3,0.4-0.7,0.7-0.9C275.9,765.1,275.7,765.5,276.5,766.4"/>
		<path id="path6306" fill="#CCCCCC" d="M278.9,764.1c-0.5,0-0.9,0.1-1.5,0.3c0.3,0.3,0.5,0.7,0.8,0.9c-0.7-0.1-1.3-0.4-2-0.5
			C277.1,765.2,280.2,766.3,278.9,764.1"/>
		<path id="path6308" fill="#CCCCCC" d="M288.4,772.4c1.1-0.7,2.3-1.3,3.5-1.6c-1.1-0.4-1.2-2.2,0.1-1.5c-0.4-2-2.4-1.1-3.2-2.3
			c-0.5-0.9-2.3-1.7-2.2-0.1c-0.4-0.8-1.9-2.3-2-0.4c-0.5-0.8-2.3-3.1-3.5-2.3c0.1,0.3,0.4,0.7,0.5,0.9c-0.7-0.1-1.3-0.1-2,0
			c1.3,0.7,2.4,1.5,3.9,1.9c-1.5,0.1-3.9-2-5-0.1c0.8-0.3,1.3,0.1,1.2,0.9c2.6-1.1,1.7,0.5,2.8,2c0.5,0.8,1.5,1.1,2,0.1
			c0.7-1.2,2.2-1.3,3.5-0.8c-0.3,0.3-0.7,0.7-0.9,0.9c0.4,0.3,0.7,0.5,1.1,0.8c-0.7,0.3-1.3,0.5-2,0.7
			C287.1,772,287.8,772.1,288.4,772.4"/>
		<path id="path6310" fill="#CCCCCC" d="M284.5,772.4c0-1.2-1.3-1.3-2-0.7C283.3,771.5,284,771.8,284.5,772.4"/>
		<path id="path6312" fill="#CCCCCC" d="M292.7,771.7c-0.1,0-0.4,0-0.5,0.1c0.5,0.8,0.4,1.2-0.5,1.3
			C292.9,774.6,294.8,772.4,292.7,771.7"/>
		<path id="path6314" fill="#CCCCCC" d="M293.3,775.7c0.3-0.7,0.3-0.9,1.1-0.8c-0.7-0.5-1.3-0.5-2,0
			C292.6,775.2,292.9,775.4,293.3,775.7"/>
		<path id="path6316" fill="#CCCCCC" d="M293.6,769.3c-0.4,0-0.7,0.1-0.9,0.4C292.9,769.5,293.3,769.4,293.6,769.3"/>
		<path id="path6318" fill="#CCCCCC" d="M297.3,770.3c-0.8-0.3-1.5,0.5-1.9-0.4c-0.4-0.8-2.2,0.8-2.7,0.9c0.5,1.6,4.7,1.7,4.2,3.8
			c2.7,0,0-1.9-0.5-2.7c0.5,0.7,1.2,0.8,1.9,0.5C297.7,771.7,297.5,771,297.3,770.3"/>
		<path id="path6320" fill="#CCCCCC" d="M295.3,774.2c-0.3-0.3-0.7-0.7-1.1-0.9C294.6,773.7,295,774,295.3,774.2"/>
		<path id="path6322" fill="#CCCCCC" d="M295.6,776.1c-0.3-0.1-0.7-0.3-0.9-0.3C294.9,776,295.2,776.1,295.6,776.1"/>
		<path id="path6324" fill="#CCCCCC" d="M296.1,775.9c0.4-0.9,0-1.2-0.9-0.7C295.4,775.3,295.8,775.6,296.1,775.9"/>
		<path id="path6326" fill="#CCCCCC" d="M301.1,771c-0.9-0.4-2.4-0.7-3.5-0.4c0.3,0.1,3,5.4,3,1.5c0,2.3,2.6,0.1,2.2,2.3
			c0.8-0.1,1.5-0.4,2.2-0.8c-0.5-0.7-2.8-3.5-2.3-0.9C301.9,772.5,301.2,771.8,301.1,771"/>
		<path id="path6328" fill="#CCCCCC" d="M299.3,779.2c-0.1-0.7,0-0.9-0.8-0.9C298.8,778.7,299.1,778.9,299.3,779.2"/>
		<path id="path6330" fill="#CCCCCC" d="M300.8,773.6c0.1,0.5,0.1,0.8,0.8,0.9C301.4,774.2,301.1,773.8,300.8,773.6"/>
		<path id="path6332" fill="#CCCCCC" d="M308.9,773.4c-0.4-1.2-1.6-1.9-2.2-3c0.7,0.7,1.2,0.7,1.9,0.1c-1.5-0.7-1.3-3-2.8-3.6
			c-2.2-1.1-1.1,1.9-0.1,2.6c-0.7-0.3-1.3-0.3-2,0.1C304.9,771.5,306.5,772.9,308.9,773.4"/>
		<path id="path6334" fill="#CCCCCC" d="M308.5,781.4c0.1-0.3,0.1-0.5,0.3-0.8c-1.3,0.1-2.6-0.7-3.9-0.3c0.1,0.4,0.3,0.7,0.5,0.9
			C306.3,780.2,307.7,780.6,308.5,781.4"/>
		<path id="path6336" fill="#CCCCCC" d="M310,772.6c0.3-1.2,0-1.3-0.9-0.4C309.3,772.4,309.6,772.5,310,772.6"/>
		<path id="path6338" fill="#CCCCCC" d="M314.5,784.2c0.3-0.8,0.5-1.6,1.6-0.9c-0.5-1.3-2.7-1.1-3.8-1.2c0.8,0,1.5-0.4,1.7-1.2
			c-0.8-0.1-1.5,0.8-2.3,0.7c-0.9-0.1-1.9-0.4-2.8-0.1C310,783.7,313.5,781.8,314.5,784.2"/>
		<path id="path6340" fill="#CCCCCC" d="M311.2,774c0.1-1.2-1.3-0.9-1.9-0.5C310,773.6,310.5,773.7,311.2,774"/>
		<path id="path6342" fill="#CCCCCC" d="M312.9,780.2c-0.8-0.1-1.5,0-2,0.5C311.7,781,312.4,780.7,312.9,780.2"/>
		<path id="path6344" fill="#CCCCCC" d="M317.4,781c-0.3,0.3-0.5,0.7-0.8,0.9C317.5,781.9,317.4,781.6,317.4,781"/>
		<path id="path6346" fill="#CCCCCC" d="M318.7,784.6c-0.3-0.4-0.5-0.5-0.9-0.7C318.2,784.2,318.4,784.3,318.7,784.6"/>
		<path id="path6348" fill="#CCCCCC" d="M319,784.9c-0.4,0-0.7-0.1-1.1-0.1C318.3,784.7,318.6,784.9,319,784.9"/>
		<path id="path6350" fill="#CCCCCC" d="M318.9,782.4c1.7-0.3,3.8,0.1,5.1-1.2c-1.5-0.3-4.8-0.8-6.1,0.3
			C318.3,781.8,318.6,782,318.9,782.4"/>
		<path id="path6352" fill="#CCCCCC" d="M318.6,783.4c0.4,0.9,3.1,1.2,3.9,1.1c-0.9,1.7,3.6,3,4.7,2.3c-0.7-0.5-1.3-0.9-2-1.5
			c-2.6-1.7,1.9-0.8-1.1-1.7c1.2-0.4,2.7,1.1,4,1.2c1.2,0.1,2.2,1.6,1.6,2.3c1.1-0.7,4,0.1,5.2,0.4c1.3,0.4,1.6,2.2,3.4,1.6
			c-1.1-1.2-2-2.3-3.6-3c-1.2-0.4-3.2-0.1-4-1.3c1.1,0.9,2.8,0.5,4,0.1c-2.4-1.6-6.1-0.3-8.2-2.6c1.9,0.7,2.6,0.5,4.4,0.5
			c1.5,0,0.7-1.5-0.4-1.6c-1.5-0.3-3.1,0.3-4.4,0.7c-0.8,0.3-5.2-0.5-3.8,1.5C321.7,781.8,319.5,782.4,318.6,783.4"/>
		<path id="path6354" fill="#CCCCCC" d="M319.7,785.3c-0.9,0.1-0.8,0.4,0.4,0.8C319.9,785.8,319.8,785.5,319.7,785.3"/>
		<path id="path6356" fill="#CCCCCC" d="M322.6,786.5c-0.3-0.5-0.3-0.8-0.9-0.7C321.9,785.9,322.3,786.2,322.6,786.5"/>
		<path id="path6358" fill="#CCCCCC" d="M324.6,787c-0.3-0.3-0.5-0.5-0.9-0.5C324,786.6,324.2,786.9,324.6,787"/>
		<path id="path6360" fill="#CCCCCC" d="M343.6,783.1c-1.5-2-9.7-3.8-11.4-1.2c1.5-0.7,1.7,1.2,2.6,2c0.7,0.7,5.1,0.5,2.7,0.8
			c0.7,0.1,1.3,0.1,2,0.1c0.5-0.1-0.1-0.7,0.1-0.8c0.8-0.7,1.6,1.1,2,1.3C342.9,785.8,344,784.1,343.6,783.1"/>
		<path id="path6362" fill="#CCCCCC" d="M340.9,788.8c0.3-0.3,0.4-0.5,0.7-0.9C340.5,787.6,340.2,787.8,340.9,788.8"/>
		<path id="path6364" fill="#CCCCCC" d="M343.3,791.9c0-0.3,0-0.5,0.1-0.8c-0.7-0.1-1.3-0.1-2,0.3
			C342.1,791.3,342.8,791.5,343.3,791.9"/>
		<path id="path6366" fill="#CCCCCC" d="M345.1,790.7c-0.3-0.7-0.7-1.3-1.3-1.6c-0.3,0.3-0.5,0.7-0.7,1.1
			C343.7,790.3,344.4,790.4,345.1,790.7"/>
		<path id="path6368" fill="#CCCCCC" d="M343.5,781.9c0.1,0.8,1.3,0.7,1.9,0.8C344.8,782.3,344.1,782,343.5,781.9"/>
		<path id="path6370" fill="#CCCCCC" d="M346,784.5c-0.5,0-0.9,0.3-1.2,0.7c0.7,0.4,1.2,0.4,1.9,0.3
			C346.4,785.1,346.2,784.9,346,784.5"/>
		<path id="path6372" fill="#CCCCCC" d="M346.4,791.7c0.1-0.7-0.1-0.8-0.9-0.4C345.9,791.5,346.2,791.6,346.4,791.7"/>
		<path id="path6374" fill="#CCCCCC" d="M347.8,792c-0.1-0.4-0.5-0.7-0.8-0.9C347.2,791.3,347.5,791.6,347.8,792"/>
		<path id="path6376" fill="#CCCCCC" d="M348.9,785.1c0.8-0.8,0.1-1.3-0.8-0.9C348.3,784.5,348.5,784.7,348.9,785.1"/>
		<path id="path6395" fill="#CCCCCC" d="M231.5,678.6c-0.1-0.4-0.1-0.7-0.3-1.1C232.6,677.6,232.7,678,231.5,678.6"/>
		<path id="path6397" fill="#CCCCCC" d="M256.1,741.8c0.1,0.3,0.1,0.5,0.1,0.8C256.3,742.3,256.3,742.1,256.1,741.8"/>
		<path id="path6399" fill="#CCCCCC" d="M256.1,741.8C256.1,741.4,256.1,741.4,256.1,741.8"/>
		<path id="path6401" fill="#CCCCCC" d="M276.9,751c0-0.4,0-0.7-0.1-1.1c0.3,0.3,0.4,0.7,0.5,1.1C277.3,751,277.1,751,276.9,751"/>
		<path id="path6403" fill="#CCCCCC" d="M304.2,763.2c-0.7-0.9-1.7-2.8-0.9-4c0.3,1.3,2.3,1.2,2-0.3c-0.1-0.8-2.4-1.5-3-1.7
			c1.1-1.1,2.6,0.3,3.8,0.5c2.6,0.5,1.3-2.4,2.2-3.5c0.8-1.2,3.1,1.5,3.9,1.7c1.5,0.4,2.7-1.3,4.2-0.5c1.5,0.9,1.6,3.1,2.6,4.4
			c1.3,1.9,2.3,4,3.1,6.2c2.2,5,5.2,9.6,7,14.5c-0.9-0.5-2-0.7-3-1.2c0.5,0.5,1.2,0.9,1.9,1.2c-1.3,1.5-4.7,0.5-6.3,0
			c-0.8-0.3-1.7-1.6-2.7-1.3c-1.2,0.4-1.5,0.7-2.4-0.3c0.3,0.4,0.4,0.8,0.7,1.2c-0.7-0.8-3.9,0.8-2.8-1.3c-0.1,1.1-3.5,1.6-4.4,1.2
			c0.7-0.5,1.2-1.1,1.9-1.5c-1.2-0.7-2.8,0.7-4,0.9c0-0.8-0.4-1.5-0.9-1.9c-0.4,2.4-2.2-0.4-3-0.9c1.3,1.9-1.3,1.2-2.3,0.9
			c-0.7-0.1-1.6,0.7-2.3,0.4s-0.9-1.5-1.5-1.9c1.2-0.1,2,0.8,3.1,1.1c-0.1-0.8-0.5-1.3-1.3-1.2c0.8-0.3,1.5-0.1,2,0.5
			c-2.2-2.2,4.3,0.1,5-0.7c0.5-0.7,0-1.9,1.6-1.3c1.2,0.3,0,3.5,1.9,3.1c-0.7-0.4-1.1-1.2-0.8-1.9c1.7,0,3.4,2.2,5.1,1.3
			c-1.6-0.9-3.4-1.3-4.8-2.6c-1.3-0.9-3.1-0.3-4-1.9c2.7,0.4,5.8,1.2,8.1,3c-0.8-0.5-1.1-1.7,0.3-1.5c1.2,0.1,2.2,1.5,3.1,2.2
			c-0.3-0.8-0.8-1.3-1.5-1.7c1.2-0.4,2.7,1.2,3.5,0.7c1.3-0.9,3.4,1.2,2.2,2.6c0.4-0.8,1.1-1.2,1.9-0.5c-1.2-1.2-0.1-1.3,0.8-1.2
			c-3.6-3.1-10.8-2-13.5-6.3c-1.9-3.1,5.5-2.4,4.6-5.1C313.3,761.1,306.3,766.7,304.2,763.2"/>
		<path id="path6405" fill="#CCCCCC" d="M316.6,752.6c0.1,0.1,0.3,0.3,0.4,0.5C316.8,752.8,316.7,752.7,316.6,752.6"/>
		<path id="path6407" fill="#CCCCCC" d="M328.4,779.8c0.3,0.3,0.7,0.5,0.9,0.8C328.7,780.8,328.7,780.3,328.4,779.8"/>
	</g>
</g>
<path id="path7062" fill="#CCCCCC" d="M203.8,338.4c0,0.3,0,0.7,0,0.9c-4.8-0.3,0.3-4.3-2.8-5.8c-0.7,3.4-2.4,0.8-4.2,1.2
	c0.3-0.5,0.8-2.4-0.3-2.4c-1.5,0-2.8-2.6-3.4-0.8c-2-1.1-3-1.5-1.6-3.8c0.3,0.3,0.5,0.7,0.8,0.9c0.4-1.3-1.1-2-0.8-3.1
	c0.7-3,3.2-0.8,4.3,0.3c1.3,1.3,3.1,2.2,4.3,3.5c0.9,0.9,1.3,2.6,3,2.3c-0.1,0.7-0.8,2.8,0.3,3.4c0.9,0.4,2-0.5,2.3,0.9
	c-1.2-0.4-1.5,1.6-2.8,1.3"/>
<g>
	<path d="M130.6,105.4c-0.2,0.1-0.4,0.2-0.6,0.3s-0.4,0.2-0.7,0.3c-0.2,0.1-0.5,0.1-0.8,0.2c-0.3,0.1-0.6,0.1-0.9,0.1
		c-0.6,0-1.2-0.1-1.7-0.3c-0.5-0.2-0.9-0.4-1.3-0.8c-0.4-0.4-0.7-0.8-0.9-1.4c-0.2-0.6-0.3-1.2-0.3-1.9c0-0.7,0.1-1.3,0.3-1.9
		c0.2-0.6,0.5-1,0.9-1.4c0.4-0.4,0.8-0.7,1.3-0.8c0.5-0.2,1.1-0.3,1.7-0.3c0.5,0,0.9,0.1,1.4,0.2c0.5,0.1,1,0.3,1.5,0.6v1.3h-0.1
		c-0.5-0.4-0.9-0.7-1.4-0.9c-0.5-0.2-1-0.3-1.5-0.3c-0.4,0-0.8,0.1-1.2,0.2c-0.3,0.1-0.7,0.4-0.9,0.6c-0.3,0.3-0.5,0.6-0.6,1.1
		s-0.2,0.9-0.2,1.5c0,0.6,0.1,1.1,0.2,1.5c0.2,0.4,0.4,0.8,0.6,1.1c0.3,0.3,0.6,0.5,0.9,0.6c0.4,0.1,0.7,0.2,1.1,0.2
		c0.5,0,1.1-0.1,1.5-0.3s0.9-0.5,1.3-0.8h0.1V105.4z"/>
	<path d="M137.3,102.8c0,1-0.3,1.9-0.8,2.5c-0.5,0.6-1.2,0.9-2.1,0.9c-0.9,0-1.6-0.3-2.2-0.9c-0.5-0.6-0.8-1.4-0.8-2.5
		s0.3-1.9,0.8-2.5s1.2-0.9,2.2-0.9c0.9,0,1.6,0.3,2.1,0.9S137.3,101.8,137.3,102.8z M136.2,102.8c0-0.8-0.2-1.4-0.5-1.8
		s-0.8-0.6-1.3-0.6c-0.6,0-1,0.2-1.4,0.6s-0.5,1-0.5,1.8c0,0.8,0.2,1.4,0.5,1.8s0.8,0.6,1.4,0.6c0.6,0,1-0.2,1.3-0.6
		C136.1,104.2,136.2,103.6,136.2,102.8z"/>
	<path d="M139.8,106h-1.1v-8.9h1.1V106z"/>
	<path d="M147.2,102.8c0,1-0.3,1.9-0.8,2.5c-0.5,0.6-1.2,0.9-2.1,0.9c-0.9,0-1.6-0.3-2.2-0.9c-0.5-0.6-0.8-1.4-0.8-2.5
		s0.3-1.9,0.8-2.5s1.2-0.9,2.2-0.9c0.9,0,1.6,0.3,2.1,0.9S147.2,101.8,147.2,102.8z M146.1,102.8c0-0.8-0.2-1.4-0.5-1.8
		s-0.8-0.6-1.3-0.6c-0.6,0-1,0.2-1.4,0.6s-0.5,1-0.5,1.8c0,0.8,0.2,1.4,0.5,1.8s0.8,0.6,1.4,0.6c0.6,0,1-0.2,1.3-0.6
		C145.9,104.2,146.1,103.6,146.1,102.8z"/>
	<path d="M157.9,106h-1.1v-3.6c0-0.3,0-0.5,0-0.8c0-0.3-0.1-0.5-0.2-0.6c-0.1-0.2-0.2-0.3-0.4-0.4c-0.2-0.1-0.4-0.1-0.7-0.1
		c-0.3,0-0.6,0.1-0.9,0.2c-0.3,0.2-0.6,0.3-0.9,0.6c0,0.1,0,0.2,0,0.3c0,0.1,0,0.2,0,0.3v4.1h-1.1v-3.6c0-0.3,0-0.5,0-0.8
		c0-0.3-0.1-0.5-0.2-0.6c-0.1-0.2-0.2-0.3-0.4-0.4c-0.2-0.1-0.4-0.1-0.7-0.1c-0.3,0-0.6,0.1-0.9,0.2c-0.3,0.1-0.6,0.3-0.9,0.6v4.8
		h-1.1v-6.4h1.1v0.7c0.3-0.3,0.7-0.5,1-0.7c0.3-0.2,0.7-0.2,1.1-0.2c0.4,0,0.8,0.1,1.1,0.3s0.5,0.4,0.7,0.8c0.4-0.4,0.8-0.6,1.2-0.8
		c0.4-0.2,0.7-0.2,1.1-0.2c0.7,0,1.2,0.2,1.6,0.6c0.3,0.4,0.5,1,0.5,1.8V106z"/>
	<path d="M165.4,102.8c0,0.5-0.1,1-0.2,1.4c-0.2,0.4-0.4,0.8-0.6,1.1c-0.3,0.3-0.6,0.5-0.9,0.7s-0.7,0.2-1.1,0.2
		c-0.4,0-0.7,0-0.9-0.1c-0.3-0.1-0.5-0.2-0.8-0.3l-0.1,0.3h-1v-8.9h1.1v3.2c0.3-0.2,0.6-0.5,1-0.6s0.7-0.2,1.1-0.2
		c0.8,0,1.3,0.3,1.8,0.9C165.1,100.9,165.4,101.7,165.4,102.8z M164.3,102.8c0-0.8-0.1-1.3-0.4-1.7c-0.3-0.4-0.7-0.6-1.2-0.6
		c-0.3,0-0.6,0.1-0.9,0.2s-0.6,0.3-0.9,0.5v3.7c0.3,0.1,0.6,0.2,0.8,0.3c0.2,0.1,0.5,0.1,0.7,0.1c0.6,0,1.1-0.2,1.4-0.6
		C164.1,104.2,164.3,103.6,164.3,102.8z"/>
	<path d="M168,98.6h-1.2v-1.1h1.2V98.6z M167.9,106h-1.1v-6.4h1.1V106z"/>
	<path d="M174.7,106h-1.1v-0.7c-0.1,0.1-0.2,0.2-0.4,0.3c-0.2,0.1-0.3,0.2-0.5,0.3c-0.2,0.1-0.4,0.2-0.6,0.2s-0.5,0.1-0.8,0.1
		c-0.6,0-1.1-0.2-1.5-0.6s-0.6-0.9-0.6-1.5c0-0.5,0.1-0.9,0.3-1.2c0.2-0.3,0.5-0.5,0.9-0.7c0.4-0.2,0.9-0.3,1.4-0.3
		c0.5-0.1,1.1-0.1,1.8-0.1v-0.2c0-0.2,0-0.4-0.1-0.6c-0.1-0.2-0.2-0.3-0.4-0.4c-0.2-0.1-0.3-0.1-0.5-0.2c-0.2,0-0.4,0-0.7,0
		c-0.3,0-0.6,0-0.9,0.1c-0.3,0.1-0.7,0.2-1.1,0.3h-0.1v-1.1c0.2-0.1,0.5-0.1,0.9-0.2c0.4-0.1,0.8-0.1,1.2-0.1c0.4,0,0.8,0,1.2,0.1
		c0.3,0.1,0.6,0.2,0.9,0.4c0.2,0.2,0.4,0.4,0.5,0.7c0.1,0.3,0.2,0.6,0.2,1V106z M173.7,104.4v-1.8c-0.3,0-0.7,0-1.2,0.1
		c-0.4,0-0.8,0.1-1.1,0.2c-0.3,0.1-0.6,0.2-0.7,0.4c-0.2,0.2-0.3,0.4-0.3,0.8c0,0.4,0.1,0.6,0.3,0.8c0.2,0.2,0.6,0.3,1,0.3
		c0.4,0,0.7-0.1,1-0.2C173.1,104.8,173.4,104.6,173.7,104.4z"/>
</g>
<g>
	<path d="M353.5,271.7c0,0.4-0.1,0.8-0.2,1.1s-0.4,0.6-0.6,0.8c-0.3,0.3-0.7,0.4-1.1,0.5c-0.4,0.1-0.9,0.2-1.5,0.2h-3v-8.5h2.5
		c0.6,0,1.1,0,1.4,0.1c0.3,0,0.6,0.1,0.9,0.3c0.3,0.2,0.5,0.4,0.7,0.6c0.1,0.3,0.2,0.6,0.2,0.9c0,0.4-0.1,0.7-0.3,1
		s-0.5,0.5-0.8,0.7v0c0.6,0.1,1,0.4,1.4,0.8S353.5,271.1,353.5,271.7z M351.6,267.9c0-0.2,0-0.4-0.1-0.5c-0.1-0.1-0.2-0.3-0.3-0.3
		c-0.2-0.1-0.4-0.2-0.7-0.2c-0.3,0-0.6,0-0.9,0h-1.3v2.5h1.5c0.4,0,0.6,0,0.8-0.1c0.2,0,0.4-0.1,0.6-0.2c0.2-0.1,0.3-0.3,0.4-0.4
		C351.5,268.3,351.6,268.1,351.6,267.9z M352.3,271.7c0-0.3-0.1-0.6-0.2-0.8c-0.1-0.2-0.3-0.4-0.6-0.5c-0.2-0.1-0.4-0.2-0.7-0.2
		c-0.3,0-0.6,0-1,0h-1.8v3.2h1.5c0.5,0,0.9,0,1.2-0.1c0.3-0.1,0.6-0.1,0.8-0.3c0.2-0.1,0.4-0.3,0.5-0.5
		C352.2,272.3,352.3,272,352.3,271.7z"/>
	<path d="M359,269.1L359,269.1c-0.2,0-0.4-0.1-0.5-0.1s-0.3,0-0.5,0c-0.3,0-0.7,0.1-1,0.2c-0.3,0.1-0.6,0.3-0.9,0.6v4.5H355v-6.4
		h1.1v0.9c0.4-0.3,0.8-0.6,1.1-0.7c0.3-0.1,0.7-0.2,1-0.2c0.2,0,0.3,0,0.4,0c0.1,0,0.2,0,0.4,0.1V269.1z"/>
	<path d="M364.7,274.3h-1.1v-0.7c-0.1,0.1-0.2,0.2-0.4,0.3c-0.2,0.1-0.3,0.2-0.5,0.3c-0.2,0.1-0.4,0.2-0.6,0.2s-0.5,0.1-0.8,0.1
		c-0.6,0-1.1-0.2-1.5-0.6c-0.4-0.4-0.6-0.9-0.6-1.5c0-0.5,0.1-0.9,0.3-1.2c0.2-0.3,0.5-0.5,0.9-0.7c0.4-0.2,0.9-0.3,1.4-0.3
		c0.5-0.1,1.1-0.1,1.8-0.1v-0.2c0-0.2,0-0.4-0.1-0.6c-0.1-0.2-0.2-0.3-0.4-0.4c-0.2-0.1-0.3-0.1-0.5-0.2c-0.2,0-0.4,0-0.7,0
		c-0.3,0-0.6,0-0.9,0.1c-0.3,0.1-0.7,0.2-1.1,0.3h-0.1v-1.1c0.2-0.1,0.5-0.1,0.9-0.2c0.4-0.1,0.8-0.1,1.2-0.1c0.5,0,0.8,0,1.2,0.1
		c0.3,0.1,0.6,0.2,0.9,0.4c0.2,0.2,0.4,0.4,0.5,0.7c0.1,0.3,0.2,0.6,0.2,1V274.3z M363.7,272.7V271c-0.3,0-0.7,0-1.2,0.1
		s-0.8,0.1-1.1,0.2c-0.3,0.1-0.6,0.2-0.7,0.4c-0.2,0.2-0.3,0.4-0.3,0.8c0,0.4,0.1,0.6,0.3,0.8s0.6,0.3,1,0.3c0.4,0,0.7-0.1,1-0.2
		C363.1,273.1,363.4,272.9,363.7,272.7z"/>
	<path d="M371.4,274.3h-5.2v-0.8l3.7-4.7h-3.6v-0.9h5v0.8l-3.7,4.7h3.8V274.3z"/>
	<path d="M374.1,266.9h-1.2v-1.1h1.2V266.9z M374,274.3H373v-6.4h1.1V274.3z"/>
	<path d="M377.2,274.3h-1.1v-8.9h1.1V274.3z"/>
</g>
<g>
	<path d="M148.9,291.2c0,0.4-0.1,0.7-0.2,1c-0.1,0.3-0.3,0.6-0.6,0.8c-0.3,0.3-0.6,0.5-1,0.7c-0.4,0.1-0.9,0.2-1.5,0.2h-1.1v3.2
		h-1.1v-8.5h2.3c0.5,0,0.9,0,1.3,0.1c0.4,0.1,0.7,0.2,0.9,0.4c0.3,0.2,0.6,0.5,0.8,0.8C148.8,290.3,148.9,290.7,148.9,291.2z
		 M147.7,291.2c0-0.3-0.1-0.5-0.2-0.8c-0.1-0.2-0.3-0.4-0.5-0.5c-0.2-0.1-0.4-0.2-0.6-0.3c-0.2-0.1-0.5-0.1-0.9-0.1h-1.1v3.4h1
		c0.5,0,0.8,0,1.1-0.1c0.3-0.1,0.5-0.2,0.7-0.4c0.2-0.2,0.3-0.4,0.4-0.6C147.7,291.7,147.7,291.4,147.7,291.2z"/>
	<path d="M155.3,294h-4.7c0,0.4,0.1,0.7,0.2,1s0.3,0.5,0.5,0.7c0.2,0.2,0.4,0.3,0.7,0.4c0.3,0.1,0.6,0.1,0.9,0.1
		c0.4,0,0.9-0.1,1.3-0.3s0.8-0.3,0.9-0.5h0.1v1.2c-0.4,0.2-0.7,0.3-1.1,0.4c-0.4,0.1-0.8,0.2-1.2,0.2c-1.1,0-1.9-0.3-2.5-0.9
		c-0.6-0.6-0.9-1.4-0.9-2.4c0-1,0.3-1.9,0.9-2.5s1.3-0.9,2.2-0.9c0.9,0,1.5,0.3,2,0.8c0.5,0.5,0.7,1.2,0.7,2.1V294z M154.3,293.2
		c0-0.6-0.1-1-0.4-1.3c-0.3-0.3-0.7-0.5-1.3-0.5c-0.6,0-1,0.2-1.4,0.5s-0.5,0.8-0.6,1.3H154.3z"/>
	<path d="M160.9,291.9L160.9,291.9c-0.2,0-0.4-0.1-0.5-0.1s-0.3,0-0.5,0c-0.3,0-0.7,0.1-1,0.2c-0.3,0.1-0.6,0.3-0.9,0.6v4.5H157
		v-6.4h1.1v0.9c0.4-0.3,0.8-0.6,1.1-0.7c0.3-0.1,0.7-0.2,1-0.2c0.2,0,0.3,0,0.4,0c0.1,0,0.2,0,0.4,0.1V291.9z"/>
	<path d="M167.2,297.1h-1.1v-0.7c-0.4,0.3-0.7,0.5-1,0.7c-0.3,0.2-0.7,0.2-1.1,0.2c-0.7,0-1.2-0.2-1.6-0.6c-0.4-0.4-0.6-1-0.6-1.8
		v-4.1h1.1v3.6c0,0.3,0,0.6,0,0.8c0,0.2,0.1,0.4,0.2,0.6c0.1,0.2,0.2,0.3,0.4,0.4c0.2,0.1,0.4,0.1,0.7,0.1c0.3,0,0.6-0.1,0.9-0.2
		c0.3-0.1,0.6-0.3,0.9-0.6v-4.8h1.1V297.1z"/>
</g>
<g>
	<path d="M297.8,418.3c0,0.4-0.1,0.7-0.2,1c-0.1,0.3-0.3,0.6-0.6,0.8c-0.3,0.3-0.6,0.5-1,0.7s-0.9,0.2-1.5,0.2h-1.1v3.2h-1.1v-8.5
		h2.3c0.5,0,0.9,0,1.3,0.1c0.4,0.1,0.7,0.2,0.9,0.4c0.3,0.2,0.6,0.5,0.8,0.8C297.7,417.4,297.8,417.8,297.8,418.3z M296.6,418.4
		c0-0.3-0.1-0.5-0.2-0.8c-0.1-0.2-0.3-0.4-0.5-0.5c-0.2-0.1-0.4-0.2-0.6-0.3c-0.2-0.1-0.5-0.1-0.9-0.1h-1.1v3.4h1
		c0.5,0,0.8,0,1.1-0.1s0.5-0.2,0.7-0.4c0.2-0.2,0.3-0.4,0.4-0.6C296.6,418.8,296.6,418.6,296.6,418.4z"/>
	<path d="M303.9,424.3h-1.1v-0.7c-0.1,0.1-0.2,0.2-0.4,0.3c-0.2,0.1-0.3,0.2-0.5,0.3c-0.2,0.1-0.4,0.2-0.6,0.2
		c-0.2,0.1-0.5,0.1-0.8,0.1c-0.6,0-1.1-0.2-1.5-0.6s-0.6-0.9-0.6-1.5c0-0.5,0.1-0.9,0.3-1.2c0.2-0.3,0.5-0.5,0.9-0.7
		c0.4-0.2,0.9-0.3,1.4-0.3c0.5-0.1,1.1-0.1,1.8-0.1v-0.2c0-0.2,0-0.4-0.1-0.6c-0.1-0.2-0.2-0.3-0.4-0.4c-0.2-0.1-0.3-0.1-0.5-0.2
		c-0.2,0-0.4,0-0.7,0c-0.3,0-0.6,0-0.9,0.1c-0.3,0.1-0.7,0.2-1.1,0.3H299V418c0.2-0.1,0.5-0.1,0.9-0.2s0.8-0.1,1.2-0.1
		c0.4,0,0.8,0,1.2,0.1c0.3,0.1,0.6,0.2,0.9,0.4c0.2,0.2,0.4,0.4,0.5,0.7c0.1,0.3,0.2,0.6,0.2,1V424.3z M302.8,422.7v-1.8
		c-0.3,0-0.7,0-1.2,0.1c-0.4,0-0.8,0.1-1.1,0.2c-0.3,0.1-0.6,0.2-0.7,0.4c-0.2,0.2-0.3,0.4-0.3,0.8c0,0.4,0.1,0.6,0.3,0.8
		c0.2,0.2,0.6,0.3,1,0.3c0.4,0,0.7-0.1,1-0.2C302.3,423.1,302.6,422.9,302.8,422.7z"/>
	<path d="M309.9,419.1L309.9,419.1c-0.2,0-0.4-0.1-0.5-0.1c-0.2,0-0.3,0-0.5,0c-0.3,0-0.7,0.1-1,0.2s-0.6,0.3-0.9,0.6v4.5H306v-6.4
		h1.1v0.9c0.4-0.3,0.8-0.6,1.1-0.7s0.7-0.2,1-0.2c0.2,0,0.3,0,0.4,0c0.1,0,0.2,0,0.4,0.1V419.1z"/>
	<path d="M315.7,424.3h-1.1v-0.7c-0.1,0.1-0.2,0.2-0.4,0.3s-0.3,0.2-0.5,0.3c-0.2,0.1-0.4,0.2-0.6,0.2c-0.2,0.1-0.5,0.1-0.8,0.1
		c-0.6,0-1.1-0.2-1.5-0.6c-0.4-0.4-0.6-0.9-0.6-1.5c0-0.5,0.1-0.9,0.3-1.2c0.2-0.3,0.5-0.5,0.9-0.7c0.4-0.2,0.9-0.3,1.4-0.3
		c0.5-0.1,1.1-0.1,1.8-0.1v-0.2c0-0.2,0-0.4-0.1-0.6c-0.1-0.2-0.2-0.3-0.4-0.4c-0.2-0.1-0.3-0.1-0.5-0.2c-0.2,0-0.4,0-0.7,0
		c-0.3,0-0.6,0-0.9,0.1s-0.7,0.2-1.1,0.3h-0.1V418c0.2-0.1,0.5-0.1,0.9-0.2c0.4-0.1,0.8-0.1,1.2-0.1c0.4,0,0.8,0,1.2,0.1
		s0.6,0.2,0.9,0.4c0.2,0.2,0.4,0.4,0.5,0.7s0.2,0.6,0.2,1V424.3z M314.6,422.7v-1.8c-0.3,0-0.7,0-1.2,0.1c-0.4,0-0.8,0.1-1.1,0.2
		c-0.3,0.1-0.6,0.2-0.7,0.4c-0.2,0.2-0.3,0.4-0.3,0.8c0,0.4,0.1,0.6,0.3,0.8c0.2,0.2,0.6,0.3,1,0.3c0.4,0,0.7-0.1,1-0.2
		S314.4,422.9,314.6,422.7z"/>
	<path d="M322.9,423.6c0,1.1-0.2,1.9-0.7,2.4c-0.5,0.5-1.2,0.8-2.3,0.8c-0.3,0-0.7,0-1-0.1c-0.3,0-0.6-0.1-1-0.2v-1.1h0.1
		c0.2,0.1,0.5,0.2,0.8,0.3c0.4,0.1,0.8,0.2,1.1,0.2c0.4,0,0.7,0,0.9-0.1s0.4-0.2,0.6-0.4c0.1-0.1,0.2-0.3,0.3-0.5
		c0.1-0.2,0.1-0.4,0.1-0.7v-0.6c-0.3,0.3-0.6,0.5-0.9,0.6c-0.3,0.1-0.7,0.2-1.1,0.2c-0.8,0-1.4-0.3-1.8-0.8
		c-0.4-0.5-0.7-1.3-0.7-2.3c0-0.5,0.1-1,0.2-1.4c0.2-0.4,0.4-0.7,0.6-1c0.2-0.3,0.5-0.5,0.9-0.6c0.4-0.2,0.7-0.2,1.1-0.2
		c0.4,0,0.7,0,0.9,0.1c0.3,0.1,0.5,0.2,0.8,0.3l0.1-0.3h1V423.6z M321.9,422.5V419c-0.3-0.1-0.6-0.2-0.8-0.3
		c-0.2-0.1-0.5-0.1-0.7-0.1c-0.6,0-1.1,0.2-1.4,0.6c-0.3,0.4-0.5,1-0.5,1.7c0,0.7,0.1,1.3,0.4,1.6s0.7,0.6,1.3,0.6
		c0.3,0,0.6-0.1,0.9-0.2S321.6,422.7,321.9,422.5z"/>
	<path d="M330.3,424.3h-1.1v-0.7c-0.4,0.3-0.7,0.5-1,0.7c-0.3,0.2-0.7,0.2-1.1,0.2c-0.7,0-1.2-0.2-1.6-0.6c-0.4-0.4-0.6-1-0.6-1.8
		v-4.1h1.1v3.6c0,0.3,0,0.6,0,0.8c0,0.2,0.1,0.4,0.2,0.6c0.1,0.2,0.2,0.3,0.4,0.4s0.4,0.1,0.7,0.1c0.3,0,0.6-0.1,0.9-0.2
		s0.6-0.3,0.9-0.6v-4.8h1.1V424.3z"/>
	<path d="M337.4,424.3h-1.1v-0.7c-0.1,0.1-0.2,0.2-0.4,0.3c-0.2,0.1-0.3,0.2-0.5,0.3c-0.2,0.1-0.4,0.2-0.6,0.2
		c-0.2,0.1-0.5,0.1-0.8,0.1c-0.6,0-1.1-0.2-1.5-0.6c-0.4-0.4-0.6-0.9-0.6-1.5c0-0.5,0.1-0.9,0.3-1.2c0.2-0.3,0.5-0.5,0.9-0.7
		c0.4-0.2,0.9-0.3,1.4-0.3c0.5-0.1,1.1-0.1,1.8-0.1v-0.2c0-0.2,0-0.4-0.1-0.6s-0.2-0.3-0.4-0.4c-0.2-0.1-0.3-0.1-0.5-0.2
		c-0.2,0-0.4,0-0.7,0c-0.3,0-0.6,0-0.9,0.1c-0.3,0.1-0.7,0.2-1.1,0.3h-0.1V418c0.2-0.1,0.5-0.1,0.9-0.2c0.4-0.1,0.8-0.1,1.2-0.1
		c0.5,0,0.8,0,1.2,0.1c0.3,0.1,0.6,0.2,0.9,0.4c0.2,0.2,0.4,0.4,0.5,0.7c0.1,0.3,0.2,0.6,0.2,1V424.3z M336.4,422.7v-1.8
		c-0.3,0-0.7,0-1.2,0.1s-0.8,0.1-1.1,0.2c-0.3,0.1-0.6,0.2-0.7,0.4c-0.2,0.2-0.3,0.4-0.3,0.8c0,0.4,0.1,0.6,0.3,0.8s0.6,0.3,1,0.3
		c0.4,0,0.7-0.1,1-0.2C335.8,423.1,336.1,422.9,336.4,422.7z"/>
	<path d="M344.9,417.9l-3.7,8.7H340l1.2-2.7l-2.5-6.1h1.2l2,4.7l2-4.7H344.9z"/>
</g>
<g>
	<path d="M165.6,492.9c-0.2,0.1-0.4,0.2-0.6,0.3s-0.4,0.2-0.7,0.3c-0.2,0.1-0.5,0.1-0.8,0.2c-0.3,0.1-0.6,0.1-0.9,0.1
		c-0.6,0-1.2-0.1-1.7-0.3c-0.5-0.2-0.9-0.4-1.3-0.8c-0.4-0.4-0.7-0.8-0.9-1.4s-0.3-1.2-0.3-1.9c0-0.7,0.1-1.3,0.3-1.9
		c0.2-0.6,0.5-1,0.9-1.4c0.4-0.4,0.8-0.7,1.3-0.8c0.5-0.2,1.1-0.3,1.7-0.3c0.5,0,0.9,0.1,1.4,0.2s1,0.3,1.5,0.6v1.3h-0.1
		c-0.5-0.4-0.9-0.7-1.4-0.9c-0.5-0.2-1-0.3-1.5-0.3c-0.4,0-0.8,0.1-1.2,0.2c-0.3,0.1-0.7,0.4-0.9,0.6c-0.3,0.3-0.5,0.6-0.6,1.1
		c-0.1,0.4-0.2,0.9-0.2,1.5c0,0.6,0.1,1.1,0.2,1.5c0.2,0.4,0.4,0.8,0.6,1.1c0.3,0.3,0.6,0.5,0.9,0.6c0.4,0.1,0.7,0.2,1.1,0.2
		c0.5,0,1.1-0.1,1.5-0.3s0.9-0.5,1.3-0.8h0.1V492.9z"/>
	<path d="M172.5,493.5h-1.1v-3.6c0-0.3,0-0.6-0.1-0.8c0-0.3-0.1-0.5-0.2-0.6c-0.1-0.2-0.2-0.3-0.4-0.4c-0.2-0.1-0.4-0.1-0.7-0.1
		c-0.3,0-0.6,0.1-0.9,0.2c-0.3,0.1-0.6,0.3-0.9,0.6v4.8h-1.1v-8.9h1.1v3.2c0.3-0.3,0.7-0.5,1-0.7s0.7-0.2,1.1-0.2
		c0.7,0,1.2,0.2,1.6,0.6s0.5,1,0.5,1.8V493.5z"/>
	<path d="M175.7,486.1h-1.2v-1.1h1.2V486.1z M175.6,493.5h-1.1v-6.4h1.1V493.5z"/>
	<path d="M178.8,493.5h-1.1v-8.9h1.1V493.5z"/>
	<path d="M186.3,490.4h-4.7c0,0.4,0.1,0.7,0.2,1c0.1,0.3,0.3,0.5,0.5,0.7c0.2,0.2,0.4,0.3,0.7,0.4c0.3,0.1,0.6,0.1,0.9,0.1
		c0.4,0,0.9-0.1,1.3-0.3c0.4-0.2,0.8-0.3,0.9-0.5h0.1v1.2c-0.4,0.2-0.7,0.3-1.1,0.4c-0.4,0.1-0.8,0.2-1.2,0.2
		c-1.1,0-1.9-0.3-2.5-0.9s-0.9-1.4-0.9-2.4c0-1,0.3-1.9,0.9-2.5s1.3-0.9,2.2-0.9c0.9,0,1.5,0.3,2,0.8c0.5,0.5,0.7,1.2,0.7,2.1V490.4
		z M185.2,489.6c0-0.6-0.1-1-0.4-1.3c-0.3-0.3-0.7-0.5-1.3-0.5c-0.6,0-1,0.2-1.4,0.5s-0.5,0.8-0.6,1.3H185.2z"/>
</g>
<g>
	<path d="M247.8,526.6h-1.2l-0.8-2.4h-3.7l-0.8,2.4h-1.1l3.1-8.5h1.5L247.8,526.6z M245.5,523.3l-1.5-4.2l-1.5,4.2H245.5z"/>
	<path d="M253,521.4L253,521.4c-0.2,0-0.4-0.1-0.5-0.1c-0.2,0-0.3,0-0.5,0c-0.3,0-0.7,0.1-1,0.2c-0.3,0.1-0.6,0.3-0.9,0.6v4.5h-1.1
		v-6.4h1.1v0.9c0.4-0.3,0.8-0.6,1.1-0.7c0.3-0.1,0.7-0.2,1-0.2c0.2,0,0.3,0,0.4,0c0.1,0,0.2,0,0.4,0.1V521.4z"/>
	<path d="M259.2,525.9c0,1.1-0.2,1.9-0.7,2.4c-0.5,0.5-1.2,0.8-2.3,0.8c-0.3,0-0.7,0-1-0.1c-0.3,0-0.6-0.1-1-0.2v-1.1h0.1
		c0.2,0.1,0.5,0.2,0.8,0.3s0.8,0.2,1.1,0.2c0.4,0,0.7,0,0.9-0.1c0.2-0.1,0.4-0.2,0.6-0.4c0.1-0.1,0.2-0.3,0.3-0.5
		c0.1-0.2,0.1-0.4,0.1-0.7v-0.6c-0.3,0.3-0.6,0.5-0.9,0.6c-0.3,0.1-0.7,0.2-1.1,0.2c-0.8,0-1.4-0.3-1.8-0.8
		c-0.4-0.6-0.7-1.3-0.7-2.3c0-0.5,0.1-1,0.2-1.4c0.2-0.4,0.4-0.7,0.6-1c0.2-0.3,0.5-0.5,0.9-0.6c0.4-0.2,0.7-0.2,1.1-0.2
		c0.4,0,0.7,0,0.9,0.1s0.5,0.2,0.8,0.3l0.1-0.3h1V525.9z M258.1,524.8v-3.5c-0.3-0.1-0.6-0.2-0.8-0.3c-0.2-0.1-0.5-0.1-0.7-0.1
		c-0.6,0-1.1,0.2-1.4,0.6c-0.3,0.4-0.5,1-0.5,1.7c0,0.7,0.1,1.3,0.4,1.6c0.3,0.4,0.7,0.6,1.3,0.6c0.3,0,0.6-0.1,0.9-0.2
		C257.6,525.2,257.9,525,258.1,524.8z"/>
	<path d="M266.7,523.5H262c0,0.4,0.1,0.7,0.2,1c0.1,0.3,0.3,0.5,0.5,0.7c0.2,0.2,0.4,0.3,0.7,0.4c0.3,0.1,0.6,0.1,0.9,0.1
		c0.4,0,0.9-0.1,1.3-0.3c0.4-0.2,0.8-0.3,0.9-0.5h0.1v1.2c-0.4,0.2-0.7,0.3-1.1,0.4c-0.4,0.1-0.8,0.2-1.2,0.2
		c-1.1,0-1.9-0.3-2.5-0.9s-0.9-1.4-0.9-2.4c0-1,0.3-1.9,0.9-2.5s1.3-0.9,2.2-0.9c0.9,0,1.5,0.3,2,0.8c0.5,0.5,0.7,1.2,0.7,2.1V523.5
		z M265.6,522.7c0-0.6-0.1-1-0.4-1.3c-0.3-0.3-0.7-0.5-1.3-0.5c-0.6,0-1,0.2-1.4,0.5s-0.5,0.8-0.6,1.3H265.6z"/>
	<path d="M273.6,526.6h-1.1V523c0-0.3,0-0.6-0.1-0.8c0-0.3-0.1-0.5-0.2-0.6c-0.1-0.2-0.2-0.3-0.4-0.4c-0.2-0.1-0.4-0.1-0.7-0.1
		c-0.3,0-0.6,0.1-0.9,0.2c-0.3,0.1-0.6,0.3-0.9,0.6v4.8h-1.1v-6.4h1.1v0.7c0.3-0.3,0.7-0.5,1-0.7s0.7-0.2,1.1-0.2
		c0.7,0,1.2,0.2,1.6,0.6s0.5,1,0.5,1.8V526.6z"/>
	<path d="M279,526.5c-0.2,0.1-0.4,0.1-0.7,0.1c-0.2,0-0.5,0.1-0.6,0.1c-0.7,0-1.1-0.2-1.5-0.5s-0.5-0.9-0.5-1.7v-3.4H275v-0.9h0.7
		v-1.8h1.1v1.8h2.2v0.9h-2.2v2.9c0,0.3,0,0.6,0,0.8s0.1,0.4,0.2,0.5c0.1,0.2,0.2,0.3,0.3,0.3c0.1,0.1,0.4,0.1,0.7,0.1
		c0.2,0,0.4,0,0.5-0.1c0.2-0.1,0.3-0.1,0.4-0.1h0.1V526.5z"/>
	<path d="M281.5,519.2h-1.2V518h1.2V519.2z M281.4,526.6h-1.1v-6.4h1.1V526.6z"/>
	<path d="M288.9,526.6h-1.1V523c0-0.3,0-0.6-0.1-0.8c0-0.3-0.1-0.5-0.2-0.6c-0.1-0.2-0.2-0.3-0.4-0.4c-0.2-0.1-0.4-0.1-0.7-0.1
		c-0.3,0-0.6,0.1-0.9,0.2c-0.3,0.1-0.6,0.3-0.9,0.6v4.8h-1.1v-6.4h1.1v0.7c0.3-0.3,0.7-0.5,1-0.7s0.7-0.2,1.1-0.2
		c0.7,0,1.2,0.2,1.6,0.6s0.5,1,0.5,1.8V526.6z"/>
	<path d="M295.9,526.6h-1.1v-0.7c-0.1,0.1-0.2,0.2-0.4,0.3c-0.2,0.1-0.3,0.2-0.5,0.3c-0.2,0.1-0.4,0.2-0.6,0.2
		c-0.2,0.1-0.5,0.1-0.8,0.1c-0.6,0-1.1-0.2-1.5-0.6s-0.6-0.9-0.6-1.5c0-0.5,0.1-0.9,0.3-1.2s0.5-0.5,0.9-0.7
		c0.4-0.2,0.9-0.3,1.4-0.3c0.5-0.1,1.1-0.1,1.8-0.1v-0.2c0-0.2,0-0.4-0.1-0.6c-0.1-0.2-0.2-0.3-0.4-0.4c-0.2-0.1-0.3-0.1-0.5-0.2
		c-0.2,0-0.4,0-0.7,0c-0.3,0-0.6,0-0.9,0.1c-0.3,0.1-0.7,0.2-1.1,0.3H291v-1.1c0.2-0.1,0.5-0.1,0.9-0.2c0.4-0.1,0.8-0.1,1.2-0.1
		c0.4,0,0.8,0,1.2,0.1c0.3,0.1,0.6,0.2,0.9,0.4c0.2,0.2,0.4,0.4,0.5,0.7c0.1,0.3,0.2,0.6,0.2,1V526.6z M294.8,525v-1.8
		c-0.3,0-0.7,0-1.2,0.1c-0.4,0-0.8,0.1-1.1,0.2c-0.3,0.1-0.6,0.2-0.7,0.4s-0.3,0.4-0.3,0.8c0,0.4,0.1,0.6,0.3,0.8
		c0.2,0.2,0.6,0.3,1,0.3c0.4,0,0.7-0.1,1-0.2C294.3,525.4,294.6,525.2,294.8,525z"/>
</g>
<g>
	<path d="M372.9,567.1c0,0.6-0.1,1.2-0.2,1.6c-0.1,0.5-0.4,0.8-0.7,1.1c-0.3,0.3-0.6,0.5-1,0.6c-0.4,0.1-0.8,0.2-1.4,0.2
		c-0.5,0-1-0.1-1.4-0.2c-0.4-0.1-0.7-0.3-1-0.6c-0.3-0.3-0.5-0.7-0.7-1.1c-0.1-0.4-0.2-1-0.2-1.6V562h1.1v5.1c0,0.5,0,0.8,0.1,1.1
		c0.1,0.3,0.2,0.5,0.3,0.7c0.2,0.2,0.4,0.4,0.7,0.6c0.3,0.1,0.6,0.2,1,0.2c0.4,0,0.8-0.1,1-0.2c0.3-0.1,0.5-0.3,0.7-0.6
		c0.1-0.2,0.3-0.5,0.3-0.7c0.1-0.3,0.1-0.6,0.1-1V562h1.1V567.1z"/>
	<path d="M379,565.3L379,565.3c-0.2,0-0.4-0.1-0.5-0.1c-0.2,0-0.3,0-0.5,0c-0.3,0-0.7,0.1-1,0.2c-0.3,0.1-0.6,0.3-0.9,0.6v4.5H375
		v-6.4h1.1v0.9c0.4-0.3,0.8-0.6,1.1-0.7c0.3-0.1,0.7-0.2,1-0.2c0.2,0,0.3,0,0.4,0s0.2,0,0.4,0.1V565.3z"/>
	<path d="M385.3,570.5h-1.1v-0.7c-0.4,0.3-0.7,0.5-1,0.7s-0.7,0.2-1.1,0.2c-0.7,0-1.2-0.2-1.6-0.6s-0.6-1-0.6-1.8v-4.1h1.1v3.6
		c0,0.3,0,0.6,0,0.8s0.1,0.4,0.2,0.6c0.1,0.2,0.2,0.3,0.4,0.4c0.2,0.1,0.4,0.1,0.7,0.1c0.3,0,0.6-0.1,0.9-0.2
		c0.3-0.1,0.6-0.3,0.9-0.6v-4.8h1.1V570.5z"/>
	<path d="M392.6,569.8c0,1.1-0.2,1.9-0.7,2.4c-0.5,0.5-1.2,0.8-2.3,0.8c-0.3,0-0.7,0-1-0.1c-0.3,0-0.6-0.1-1-0.2v-1.1h0.1
		c0.2,0.1,0.5,0.2,0.8,0.3s0.8,0.2,1.1,0.2c0.4,0,0.7,0,0.9-0.1c0.2-0.1,0.4-0.2,0.6-0.4c0.1-0.1,0.2-0.3,0.3-0.5
		c0.1-0.2,0.1-0.4,0.1-0.7v-0.6c-0.3,0.3-0.6,0.5-0.9,0.6s-0.7,0.2-1.1,0.2c-0.8,0-1.4-0.3-1.8-0.8c-0.4-0.6-0.7-1.3-0.7-2.3
		c0-0.5,0.1-1,0.2-1.4c0.2-0.4,0.4-0.7,0.6-1c0.2-0.3,0.5-0.5,0.9-0.6c0.4-0.2,0.7-0.2,1.1-0.2c0.4,0,0.7,0,0.9,0.1
		c0.3,0.1,0.5,0.2,0.8,0.3l0.1-0.3h1V569.8z M391.5,568.7v-3.5c-0.3-0.1-0.6-0.2-0.8-0.3c-0.2-0.1-0.5-0.1-0.7-0.1
		c-0.6,0-1.1,0.2-1.4,0.6c-0.3,0.4-0.5,1-0.5,1.7c0,0.7,0.1,1.3,0.4,1.6c0.3,0.4,0.7,0.6,1.3,0.6c0.3,0,0.6-0.1,0.9-0.2
		S391.2,568.9,391.5,568.7z"/>
	<path d="M400,570.5h-1.1v-0.7c-0.4,0.3-0.7,0.5-1,0.7s-0.7,0.2-1.1,0.2c-0.7,0-1.2-0.2-1.6-0.6s-0.6-1-0.6-1.8v-4.1h1.1v3.6
		c0,0.3,0,0.6,0,0.8s0.1,0.4,0.2,0.6c0.1,0.2,0.2,0.3,0.4,0.4c0.2,0.1,0.4,0.1,0.7,0.1c0.3,0,0.6-0.1,0.9-0.2
		c0.3-0.1,0.6-0.3,0.9-0.6v-4.8h1.1V570.5z"/>
	<path d="M407.1,570.5H406v-0.7c-0.1,0.1-0.2,0.2-0.4,0.3c-0.2,0.1-0.3,0.2-0.5,0.3c-0.2,0.1-0.4,0.2-0.6,0.2
		c-0.2,0.1-0.5,0.1-0.8,0.1c-0.6,0-1.1-0.2-1.5-0.6c-0.4-0.4-0.6-0.9-0.6-1.5c0-0.5,0.1-0.9,0.3-1.2c0.2-0.3,0.5-0.5,0.9-0.7
		c0.4-0.2,0.9-0.3,1.4-0.3c0.5-0.1,1.1-0.1,1.8-0.1v-0.2c0-0.2,0-0.4-0.1-0.6c-0.1-0.2-0.2-0.3-0.4-0.4c-0.2-0.1-0.3-0.1-0.5-0.2
		s-0.4,0-0.7,0c-0.3,0-0.6,0-0.9,0.1c-0.3,0.1-0.7,0.2-1.1,0.3h-0.1v-1.1c0.2-0.1,0.5-0.1,0.9-0.2c0.4-0.1,0.8-0.1,1.2-0.1
		c0.5,0,0.8,0,1.2,0.1c0.3,0.1,0.6,0.2,0.9,0.4c0.2,0.2,0.4,0.4,0.5,0.7c0.1,0.3,0.2,0.6,0.2,1V570.5z M406,568.9v-1.8
		c-0.3,0-0.7,0-1.2,0.1s-0.8,0.1-1.1,0.2c-0.3,0.1-0.6,0.2-0.7,0.4s-0.3,0.4-0.3,0.8c0,0.4,0.1,0.6,0.3,0.8s0.6,0.3,1,0.3
		c0.4,0,0.7-0.1,1-0.2C405.4,569.3,405.7,569.1,406,568.9z"/>
	<path d="M414.5,564.1l-3.7,8.7h-1.1l1.2-2.7l-2.5-6.1h1.2l2,4.7l2-4.7H414.5z"/>
</g>
</svg>
